<?xml version="1.0" encoding="UTF-8" standalone="no"?>
<!-- Created with Sodipodi ("http://www.sodipodi.com/") -->
<svg
   xmlns:xapMM="http://ns.adobe.com/xap/1.0/mm/"
   xmlns:xapGImg="http://ns.adobe.com/xap/1.0/g/img/"
   xmlns:xap="http://ns.adobe.com/xap/1.0/"
   xmlns:pdf="http://ns.adobe.com/pdf/1.3/"
   xmlns:a="http://ns.adobe.com/AdobeSVGViewerExtensions/3.0/"
   xmlns:x="adobe:ns:meta/"
   xmlns:dc="http://purl.org/dc/elements/1.1/"
   xmlns:cc="http://web.resource.org/cc/"
   xmlns:rdf="http://www.w3.org/1999/02/22-rdf-syntax-ns#"
   xmlns:svg="http://www.w3.org/2000/svg"
   xmlns="http://www.w3.org/2000/svg"
   xmlns:sodipodi="http://sodipodi.sourceforge.net/DTD/sodipodi-0.dtd"
   xmlns:inkscape="http://www.inkscape.org/namespaces/inkscape"
   width="48pt"
   height="48pt"
   viewBox="0 0 48 48"
   style="overflow:visible;enable-background:new 0 0 48 48"
   xml:space="preserve"
   id="svg1337"
   sodipodi:version="0.32"
   sodipodi:docname="zipdisk.svg"
   sodipodi:docbase="C:\Users\schroede.silverwhite\Documents\localcvs\spielwiese\flex\dnd\svg"
   inkscape:version="0.45.1"
   inkscape:output_extension="org.inkscape.output.svg.inkscape">
  <defs
   id="defs1480">
    
    
    <linearGradient
   y2="46.3583"
   x2="24.1235"
   y1="-0.5605"
   x1="24.1235"
   gradientUnits="userSpaceOnUse"
   id="XMLID_16_">
      <stop
   id="stop1343"
   style="stop-color:#494949"
   offset="0.0056" />
      <stop
   id="stop1344"
   style="stop-color:#616161"
   offset="0.0393" />
      <stop
   id="stop1345"
   style="stop-color:#000000"
   offset="1" />
      <a:midPointStop
   id="midPointStop1346"
   style="stop-color:#494949"
   offset="0.0056" />
      <a:midPointStop
   id="midPointStop1347"
   style="stop-color:#494949"
   offset="0.5" />
      <a:midPointStop
   id="midPointStop1348"
   style="stop-color:#616161"
   offset="0.0393" />
      <a:midPointStop
   id="midPointStop1349"
   style="stop-color:#616161"
   offset="0.5" />
      <a:midPointStop
   id="midPointStop1350"
   style="stop-color:#000000"
   offset="1" />
    </linearGradient>
    
    <linearGradient
   y2="46.3583"
   x2="24.1235"
   y1="-0.5464"
   x1="24.1235"
   gradientUnits="userSpaceOnUse"
   id="XMLID_17_">
      <stop
   id="stop1353"
   style="stop-color:#B1B1C5"
   offset="0.0056" />
      <stop
   id="stop1354"
   style="stop-color:#7D7D99"
   offset="1" />
      <a:midPointStop
   id="midPointStop1355"
   style="stop-color:#B1B1C5"
   offset="0.0056" />
      <a:midPointStop
   id="midPointStop1356"
   style="stop-color:#B1B1C5"
   offset="0.5" />
      <a:midPointStop
   id="midPointStop1357"
   style="stop-color:#7D7D99"
   offset="1" />
    </linearGradient>
    
    <linearGradient
   gradientTransform="matrix(1,-2.1e-3,2.1e-3,1.0237,0.782,-0.3682)"
   y2="41.5284"
   x2="23.2545"
   y1="8.4419"
   x1="23.3232"
   gradientUnits="userSpaceOnUse"
   id="XMLID_18_">
      <stop
   id="stop1360"
   style="stop-color:#828282"
   offset="0.0056" />
      <stop
   id="stop1361"
   style="stop-color:#494949"
   offset="1" />
      <a:midPointStop
   id="midPointStop1362"
   style="stop-color:#828282"
   offset="0.0056" />
      <a:midPointStop
   id="midPointStop1363"
   style="stop-color:#828282"
   offset="0.5" />
      <a:midPointStop
   id="midPointStop1364"
   style="stop-color:#494949"
   offset="1" />
    </linearGradient>
    
    <linearGradient
   y2="42.0742"
   x2="23.395"
   y1="7.1245"
   x1="23.395"
   gradientUnits="userSpaceOnUse"
   id="XMLID_19_">
      <stop
   id="stop1367"
   style="stop-color:#949494"
   offset="0.0056" />
      <stop
   id="stop1368"
   style="stop-color:#616161"
   offset="0.75" />
      <stop
   id="stop1369"
   style="stop-color:#B6B6B6"
   offset="1" />
      <a:midPointStop
   id="midPointStop1370"
   style="stop-color:#949494"
   offset="0.0056" />
      <a:midPointStop
   id="midPointStop1371"
   style="stop-color:#949494"
   offset="0.5" />
      <a:midPointStop
   id="midPointStop1372"
   style="stop-color:#616161"
   offset="0.75" />
      <a:midPointStop
   id="midPointStop1373"
   style="stop-color:#616161"
   offset="0.5" />
      <a:midPointStop
   id="midPointStop1374"
   style="stop-color:#B6B6B6"
   offset="1" />
    </linearGradient>
    
    <linearGradient
   gradientTransform="matrix(1,-2.1e-3,2.1e-3,1,1.1917,2.6188)"
   y2="24.7556"
   x2="27.7983"
   y1="8.8877"
   x1="7.3022"
   gradientUnits="userSpaceOnUse"
   id="XMLID_20_">
      <stop
   id="stop1377"
   style="stop-color:#B6B6B6"
   offset="0" />
      <stop
   id="stop1378"
   style="stop-color:#949494"
   offset="0.4045" />
      <stop
   id="stop1379"
   style="stop-color:#616161"
   offset="1" />
      <a:midPointStop
   id="midPointStop1380"
   style="stop-color:#B6B6B6"
   offset="0" />
      <a:midPointStop
   id="midPointStop1381"
   style="stop-color:#B6B6B6"
   offset="0.5" />
      <a:midPointStop
   id="midPointStop1382"
   style="stop-color:#949494"
   offset="0.4045" />
      <a:midPointStop
   id="midPointStop1383"
   style="stop-color:#949494"
   offset="0.5" />
      <a:midPointStop
   id="midPointStop1384"
   style="stop-color:#616161"
   offset="1" />
    </linearGradient>
    
    <linearGradient
   gradientTransform="matrix(1,-2.1e-3,2.1e-3,1,1.1917,2.6188)"
   y2="21.4716"
   x2="34.1538"
   y1="21.4248"
   x1="11.6274"
   gradientUnits="userSpaceOnUse"
   id="XMLID_21_">
      <stop
   id="stop1387"
   style="stop-color:#616161"
   offset="0" />
      <stop
   id="stop1388"
   style="stop-color:#B6B6B6"
   offset="1" />
      <a:midPointStop
   id="midPointStop1389"
   style="stop-color:#616161"
   offset="0" />
      <a:midPointStop
   id="midPointStop1390"
   style="stop-color:#616161"
   offset="0.5" />
      <a:midPointStop
   id="midPointStop1391"
   style="stop-color:#B6B6B6"
   offset="1" />
    </linearGradient>
    
    <linearGradient
   y2="34.8297"
   x2="35.861"
   y1="10.5479"
   x1="11.5791"
   gradientUnits="userSpaceOnUse"
   id="XMLID_22_">
      <stop
   id="stop1394"
   style="stop-color:#A2A2A2"
   offset="0" />
      <stop
   id="stop1395"
   style="stop-color:#616161"
   offset="1" />
      <a:midPointStop
   id="midPointStop1396"
   style="stop-color:#A2A2A2"
   offset="0" />
      <a:midPointStop
   id="midPointStop1397"
   style="stop-color:#A2A2A2"
   offset="0.5" />
      <a:midPointStop
   id="midPointStop1398"
   style="stop-color:#616161"
   offset="1" />
    </linearGradient>
    
    <linearGradient
   y2="27.8634"
   x2="24.0952"
   y1="6.8511"
   x1="24.0952"
   gradientUnits="userSpaceOnUse"
   id="XMLID_23_">
      <stop
   id="stop1401"
   style="stop-color:#616161"
   offset="0" />
      <stop
   id="stop1402"
   style="stop-color:#CCCCCC"
   offset="0.2416" />
      <stop
   id="stop1403"
   style="stop-color:#9B9B9B"
   offset="0.7109" />
      <stop
   id="stop1404"
   style="stop-color:#828282"
   offset="1" />
      <a:midPointStop
   id="midPointStop1405"
   style="stop-color:#616161"
   offset="0" />
      <a:midPointStop
   id="midPointStop1406"
   style="stop-color:#616161"
   offset="0.5" />
      <a:midPointStop
   id="midPointStop1407"
   style="stop-color:#CCCCCC"
   offset="0.2416" />
      <a:midPointStop
   id="midPointStop1408"
   style="stop-color:#CCCCCC"
   offset="0.4633" />
      <a:midPointStop
   id="midPointStop1409"
   style="stop-color:#828282"
   offset="1" />
    </linearGradient>
    
    <linearGradient
   gradientTransform="matrix(1,9e-4,9e-4,1.4294,-5.25e-2,-35.9208)"
   y2="50.2568"
   x2="23.2866"
   y1="53.9814"
   x1="23.2866"
   gradientUnits="userSpaceOnUse"
   id="XMLID_24_">
      <stop
   id="stop1412"
   style="stop-color:#616161"
   offset="0" />
      <stop
   id="stop1413"
   style="stop-color:#5A5A5A"
   offset="0.0667" />
      <stop
   id="stop1414"
   style="stop-color:#191919"
   offset="0.7008" />
      <stop
   id="stop1415"
   style="stop-color:#000000"
   offset="1" />
      <a:midPointStop
   id="midPointStop1416"
   style="stop-color:#616161"
   offset="0" />
      <a:midPointStop
   id="midPointStop1417"
   style="stop-color:#616161"
   offset="0.4633" />
      <a:midPointStop
   id="midPointStop1418"
   style="stop-color:#000000"
   offset="1" />
    </linearGradient>
    
    
    
    <linearGradient
   y2="43.114"
   x2="22.5386"
   y1="35.4492"
   x1="22.5386"
   gradientUnits="userSpaceOnUse"
   id="XMLID_25_">
      <stop
   id="stop1423"
   style="stop-color:#B1B1C5"
   offset="0.0056" />
      <stop
   id="stop1424"
   style="stop-color:#7D7D99"
   offset="1" />
      <a:midPointStop
   id="midPointStop1425"
   style="stop-color:#B1B1C5"
   offset="0.0056" />
      <a:midPointStop
   id="midPointStop1426"
   style="stop-color:#B1B1C5"
   offset="0.5" />
      <a:midPointStop
   id="midPointStop1427"
   style="stop-color:#7D7D99"
   offset="1" />
    </linearGradient>
    
    <linearGradient
   gradientTransform="matrix(1,-2.1e-3,2.2e-3,1.0548,1.0621,-3.8156)"
   y2="42.9781"
   x2="21.3838"
   y1="37.6914"
   x1="21.3838"
   gradientUnits="userSpaceOnUse"
   id="XMLID_26_">
      <stop
   id="stop1430"
   style="stop-color:#FFFFFF"
   offset="0" />
      <stop
   id="stop1431"
   style="stop-color:#F9F9FB"
   offset="0.1234" />
      <stop
   id="stop1432"
   style="stop-color:#E8E8EE"
   offset="0.2875" />
      <stop
   id="stop1433"
   style="stop-color:#CECEDB"
   offset="0.4663" />
      <stop
   id="stop1434"
   style="stop-color:#BDBDCF"
   offset="0.7921" />
      <stop
   id="stop1435"
   style="stop-color:#9A9AB1"
   offset="1" />
      <a:midPointStop
   id="midPointStop1436"
   style="stop-color:#FFFFFF"
   offset="0" />
      <a:midPointStop
   id="midPointStop1437"
   style="stop-color:#FFFFFF"
   offset="0.6463" />
      <a:midPointStop
   id="midPointStop1438"
   style="stop-color:#CECEDB"
   offset="0.4663" />
      <a:midPointStop
   id="midPointStop1439"
   style="stop-color:#CECEDB"
   offset="0.5" />
      <a:midPointStop
   id="midPointStop1440"
   style="stop-color:#BDBDCF"
   offset="0.7921" />
      <a:midPointStop
   id="midPointStop1441"
   style="stop-color:#BDBDCF"
   offset="0.5" />
      <a:midPointStop
   id="midPointStop1442"
   style="stop-color:#9A9AB1"
   offset="1" />
    </linearGradient>
    
    
    <linearGradient
   y2="40.0562"
   x2="22.5425"
   y1="36.7529"
   x1="22.5425"
   gradientUnits="userSpaceOnUse"
   id="XMLID_30_">
      <stop
   id="stop1469"
   style="stop-color:#FFFFFF"
   offset="0" />
      <stop
   id="stop1470"
   style="stop-color:#F9F9FB"
   offset="0.1975" />
      <stop
   id="stop1471"
   style="stop-color:#E8E8EE"
   offset="0.4603" />
      <stop
   id="stop1472"
   style="stop-color:#CDCDDA"
   offset="0.7584" />
      <stop
   id="stop1473"
   style="stop-color:#B1B1C5"
   offset="1" />
      <a:midPointStop
   id="midPointStop1474"
   style="stop-color:#FFFFFF"
   offset="0" />
      <a:midPointStop
   id="midPointStop1475"
   style="stop-color:#FFFFFF"
   offset="0.6463" />
      <a:midPointStop
   id="midPointStop1476"
   style="stop-color:#B1B1C5"
   offset="1" />
    </linearGradient>
    
    
  </defs>
  <sodipodi:namedview
   id="base"
   inkscape:zoom="6.2833333"
   inkscape:cx="30"
   inkscape:cy="30"
   inkscape:window-width="765"
   inkscape:window-height="575"
   inkscape:window-x="184"
   inkscape:window-y="184"
   inkscape:current-layer="svg1337" />
  <metadata
   id="metadata1338">
    
    <x:xmpmeta
   x:xmptk="XMP toolkit 3.0-29, framework 1.6">
      
    <metadata
   id="metadata40268"><rdf:RDF>
        <rdf:Description
   rdf:about="uuid:4fe4eeb8-4415-484c-a0f8-5d9e921f8e8e">
          <pdf:Producer>
Adobe PDF library 5.00</pdf:Producer>
        </rdf:Description>
        <rdf:Description
   rdf:about="uuid:4fe4eeb8-4415-484c-a0f8-5d9e921f8e8e" />
        <rdf:Description
   rdf:about="uuid:4fe4eeb8-4415-484c-a0f8-5d9e921f8e8e" />
        <rdf:Description
   rdf:about="uuid:4fe4eeb8-4415-484c-a0f8-5d9e921f8e8e">
          <xap:CreateDate>
2003-03-20T15:54:55+02:00</xap:CreateDate>
          <xap:ModifyDate>
2004-03-29T09:13:44Z</xap:ModifyDate>
          <xap:CreatorTool>
Adobe Illustrator 10.0</xap:CreatorTool>
          <xap:MetadataDate>
2004-02-29T16:17:58+01:00</xap:MetadataDate>
          <xap:Thumbnails>
            <rdf:Alt>
              <rdf:li
   rdf:parseType="Resource">
                <xapGImg:format>
JPEG</xapGImg:format>
                <xapGImg:width>
256</xapGImg:width>
                <xapGImg:height>
256</xapGImg:height>
                <xapGImg:image>
/9j/4AAQSkZJRgABAgEASABIAAD/7QAsUGhvdG9zaG9wIDMuMAA4QklNA+0AAAAAABAASAAAAAEA
AQBIAAAAAQAB/+4ADkFkb2JlAGTAAAAAAf/bAIQABgQEBAUEBgUFBgkGBQYJCwgGBggLDAoKCwoK
DBAMDAwMDAwQDA4PEA8ODBMTFBQTExwbGxscHx8fHx8fHx8fHwEHBwcNDA0YEBAYGhURFRofHx8f
Hx8fHx8fHx8fHx8fHx8fHx8fHx8fHx8fHx8fHx8fHx8fHx8fHx8fHx8fHx8f/8AAEQgBAAEAAwER
AAIRAQMRAf/EAaIAAAAHAQEBAQEAAAAAAAAAAAQFAwIGAQAHCAkKCwEAAgIDAQEBAQEAAAAAAAAA
AQACAwQFBgcICQoLEAACAQMDAgQCBgcDBAIGAnMBAgMRBAAFIRIxQVEGE2EicYEUMpGhBxWxQiPB
UtHhMxZi8CRygvElQzRTkqKyY3PCNUQnk6OzNhdUZHTD0uIIJoMJChgZhJRFRqS0VtNVKBry4/PE
1OT0ZXWFlaW1xdXl9WZ2hpamtsbW5vY3R1dnd4eXp7fH1+f3OEhYaHiImKi4yNjo+Ck5SVlpeYmZ
qbnJ2en5KjpKWmp6ipqqusra6voRAAICAQIDBQUEBQYECAMDbQEAAhEDBCESMUEFURNhIgZxgZEy
obHwFMHR4SNCFVJicvEzJDRDghaSUyWiY7LCB3PSNeJEgxdUkwgJChgZJjZFGidkdFU38qOzwygp
0+PzhJSktMTU5PRldYWVpbXF1eX1RlZmdoaWprbG1ub2R1dnd4eXp7fH1+f3OEhYaHiImKi4yNjo
+DlJWWl5iZmpucnZ6fkqOkpaanqKmqq6ytrq+v/aAAwDAQACEQMRAD8A9U4q7FXYq7FXYq7FXYq7
FXYq7FXYq7FXYq7FXYq7FXYq7FXYq7FXYq7FXYq7FXYq7FXYq7FXYq7FXYq7FXYq7FXYq7FXYq7F
XYq7FXYq7FXYq7FXYq7FXYq7FXYq7FXYq7FXYq7FXYq7FXYq7FXYq7FXYq7FXYq7FXYq7FXYq7FX
Yq7FXYq7FXYq7FXYq7FXYq7FXYq7FXYq7FXYq7FXYq7FXYq7FXYq7FXYq7FXYq7FXYq7FXYq7FXY
qhtQ1PTdOg+sahdw2dvUL61xIsSVPQcnIGKpVJ5+8jRrybzBpxHT4bqFj9ysTiql/wArH8hf9X+x
/wCR6f1xV3/Kx/IX/V/sf+R6f1xVRvPzQ8g2trLcHW7WYRKW9KGRZJGp+yig1JOKvFde/NTz95uv
pLXQ/VsLEfZgtW4Px7GWf4SK/MDFUL5c88+bfI/mONNVuJrqxl4m7tZJWlVo36vGWJo6nuOtKdMV
erj8/Py9IB9W6Ht6B/rirf8Ayvz8vf8Af1z/AMiD/XFXf8r8/L3/AH9c/wDIg/1xV3/K/Py9/wB/
XP8AyIP9cVd/yvz8vf8Af1z/AMiD/XFXf8r8/L3/AH9c/wDIg/1xV3/K/Py9/wB/XP8AyIP9cVd/
yvz8vf8Af1z/AMiD/XFXf8r8/L3/AH9c/wDIg/1xVQb/AJyD8hBiAl6wBoGEKUPvvIMVd/0MJ5D/
AN933/IlP+qmKu/6GE8h/wC+77/kSn/VTFXl35g/mPqvnHXPq+lzTW2jRAC3tyxj5GlWlmCE1Nen
Wg6bk4qhtB/Mfz35UuE/0t7yxqA1rcsZomHgrE8oz4UI+RxV7fo35x+Q9Q02G6n1GOwnkH720uKh
42GxFQKEeBHb7sVRv/K0/wAvf+r7bfe39MVd/wArT/L3/q+233t/TFXf8rT/AC9/6vtt97f0xVNt
E80eXdcEh0jUIL0xf3ixOCyg9CV+0B70xVNMVdirsVdirsVdir50/wCchbq5n88WVi8p+rxWkZij
/ZVpZH5tTxPEfdirCF8sKD8VySvgEof1nFV/+Gbb/fz/AIYq7/DNt/v5/wAMVXJ5Xgd1RZXLMQAN
upxV6XpOl2OjafHaQcUVd5JDsXem7E+JxVKdcg0TUpVS/aKT0CfT/ecCK0rurKe2KpUfLvk/+SP/
AJHv/wA14q0fL3lH+SP/AJHv/wA14qtPl/yl/JH/AMj3/wCa8VWny/5T/kj/AORz/wDNeKtHQPKv
8kf/ACOf/mvFVp0Hyt/In/I5/wDmvFVjaH5WHVYx85m/5qxVadG8reEf/I5v+a8VWnRvK/hH/wAj
m/5qxVadH8s+Ef8AyOb/AJqxVo6R5a8I/wDkc3/NWKrTpPlz+VP+Rrf81Yqq29ppFvy+rcA7imzl
ifACpOKrLmBuBSaMhHBBDAiuKoFfLliyg+pLv7r/AM04q3/hqx/35L96/wDNOKu/w1Y/78l+9f8A
mnFXf4asf9+S/ev/ADTiqr5L1G80HzzbSWEpVo2dDy6OhQkq4FKjFX1dpt6t7ZRXIXjzHxL4EbHF
UTirsVdirsVdir5t/P4/8hItf+YS3/5OSYql9tT11rv/ALWKphRP5R92Kuon8o+7FVazCfW4PhH9
4vb/AChiqH/Mc/6HZj/i1v8AiOKsdhjtjDGWkQNwWoLAH7IxVf6Vp/v2P/gl/rirvStP9+x/8Ev9
cVd6Vp/v2P8A4Jf64q70rT/fsf8AwS/1xV3pWn+/Y/8Agl/rirvStP8Afsf/AAS/1xV3pWn+/Y/+
CX+uKu9K0/37H/wS/wBcVd6Vp/v2P/gl/rirvStP9+x/8Ev9cVd6Vp/v2P8A4Jf64q70rT/fsf8A
wS/1xVVs47QXcBEsdRIv7Q/mGKsm860+qWx782/ViqW6eR9Ti+R/WcVRNR4Yq6o8MVQV7T1R/q/x
OKsb0o/87tEP+LG/5NnFX1d5Y/440H+y/WcVTTFXYq7FXYq7FXzV/wA5AGn5k2v/ADCW/wDyckxV
L7Zv36f59sVTDliruWKq1o9LqE+Dr+sYqh/zENbSz/4yN/xHFUm/I38qPIPnnWvOUvmrS/0jJYXF
mto3r3MHASxOX/uJIq14jrir1g/84vfkX/1LP/T9qH/ZRiqw/wDOMH5Gf9S1/wBP2of9lGKrG/5x
i/I4f9M1/wBPuof9lGFCmf8AnGT8j/8AqW/+n2//AOyjFVh/5xm/JH/qW/8Ap9v/APsoxpbWH/nG
j8kv+pc/6fb/AP7KMNLamf8AnGr8lP8AqXP+n2//AOq+NItYf+cbPyV/6l3/AKfb/wD6r40trD/z
jd+S/wD1Lv8A0+X3/VfGltTP/OOP5Mf9S9/0+X3/AFXxpbWH/nHP8mv+pe/6fL7/AKr4aRaw/wDO
Ov5N/wDUv/8AT5ff9V8aWywD84/yl/L/AMqaBpmp6BpX1K+bVrSAzfWLmX925YsOMski9VHbAQkF
mPnc0s7b/XP6siySzTm/0OL5H9ZxVEcsVdyxVB3rfvR/q/xOKsb0k/8AO8Rf8ZG/5NnFX1j5Y/44
0H+y/WcVTTFXYq7FXYq7FXzP/wA5Bmn5lWv/ADB23/J2TFUvtj++X/PtiqYcsVdyxVUtm/0iL/XX
9eKqX5gmtpaf8ZG/4jiqb/8AOK4/3Lefv+YnT/8AkxJir35sVU2woUmxVTbFVNsKFJsVU2xVSbCh
TbFVNsVUmxQpthV5R/zkWK+T9JH/AGu7H/jfBJMXeejSztf+Mh/4jkGaU6c3+hRfI/rOKonliruW
KoK9P70f6v8AE4qxzTW9PzzB3rKP+Gj/ALcVfWflcg6LAR0PL9eKprirsVdirsVdir5l/wCchTT8
zLX/AJg7b/k7JiqW25/fL/n2xVMOWKu5YqqWzf6RF/rr+vFVnn81tbT/AIyN/wARxVOv+cWP+Ot5
9/5idP8A+TEmKvfWxVTbChSbFVNsVU2woUmxVTbFVJsKFNsVU2xVSbFCm2FXlH/ORX/KIaT/ANty
x/43wSTFb58NLK1/4yN/xHIM0n05v9Ci+R/WcVRPLFXcsVQV4370f6v8TirHLJv+d7t/+Mqf8mxi
r608pf8AHEh+Z/hiqcYq7FXYq7FXYq+Yv+ciDT8zbX/mDtv+TsmKpbbt++X/AD7Yqj+WKu5YqqWz
f6RF/rr+vFWvPhra2v8Axkb/AIjiqd/84r/8dbz9/wAxOn/8mJMVe/Niqm2FCk2KqbYqpthQpNiq
m2KqTYUKbYqptiqk2KFNsKvKP+civ+UP0n/tt2P/ABvgkmKn5/NLK0/4yN/xHIM0l05v9Ci+R/Wc
VRPLFXcsVQd4370f6v8AE4qxyxP/ADvlt/xlT/k2MVfW/lL/AI4kPzP6hiqcYq7FXYq7FXYq+X/+
cij/AMhOtf8AmDtv+TsmKpZA371fniqP5Yq7liqpbN/pEX+uv68Vd56Nba1/4yN+rFU+/wCcVv8A
jq+fv+YnT/8AkxJir35sVU2woUmxVTbFVNsKFJsVU2xVSbChTbFVNsVUmxQpthV5R/zkX/yh2lf9
tux/43wSTFR/MI0sbT/jI3/EcgzSPTm/0KL5H9ZxVE8sVdyxVB3jfvB/q/xOKsdsD/zv1t/xmj/5
NjFX115S/wCOJD8z+oYqnGKuxV2KuxV2Kvlz/nI00/NC0/5grb/k7JiqVwN+9X54qj+WKu5YqqWz
f6RF/rr+vFV3nc1trX/jI36sVZB/zit/x1fP3/MVYf8AJiTFXvzYqpthQpNiqm2KqbYUKTYqptiq
k2FCm2KqbYqpNihTbCryf/nIz/lDtK/7bdl/zMwSTFR/MQ0sbP8A4yN/xHIM0g05v9Ci+R/WcVRP
LFXcsVQl237wf6v8TirHNPP/ADv9t/xmj/5NjFX195S/44kPzP6hiqcYq7FXYq7FXYq+Wv8AnI80
/NG0/wCYK2/5OyYqlUB/er88VR3LFXcsVVLZv9Ii/wBdf14qqedTW3tv9c/qxVkP/OKv/HV8/f8A
MVYf8mZMVe/tiqm2FCk2KqbYqpthQpNiqm2KqTYUKbYqptiqk2KFNsKvJ/8AnI3/AJQ3S/8Att2X
/MzBJMUP+Y5/0Cz/AOMrf8RyDNj+nn/Q4vkf1nFURyxV3LFUJdn94Pl/E4qx3Tj/AMhBtf8AjNH/
AMmxir7B8pf8cSH5n9QxVOMVdirsVdirsVfK/wDzkiafmlaf8wVt/wAnZMVSmE/vV+eKo6uKuriq
pbH/AEiL/XX9eKq3nI1t7b/XP6sVZH/zir/x1fP3/MVYf8mZMVe/tiqm2FCk2KqbYqpthQpNiqm2
KqTYUKbYqptiqk2KFNsKvJ/+cjf+UM0v/ttWX/MzBJMUP+Y/+8Fn/wAZW/4jkGbHLA/6JH8j+s4q
r1xV1cVQt2f3g+X8TirHdMP/ACEO1/4zR/8AJsYq+xPKX/HEh+Z/UMVTjFXYq7FXYq7FXyp/zkoa
fmnaf8wVr/ydkxVKYW/er88VRtcVdXFVS2b/AEiL/XX9eKq/m81gt/8AXP6sVeceV7XXX1/zH+jP
Meq6IonhMq6bdSWwlLISPUCEcuPRczdJpRlBs8nE1OoOOqZG1n52H/Tf+Zv+4lP/AM1ZmfybDvLj
fn5dwU2tfOw/6b7zL/3Ep/8AmrD/ACZDvKPz8u4KbQedh/03nmT/ALiU/wDzVj/JkO8o/Py7gptF
52H/AE3fmT/uJT/81Yf5Mh3lf5Ql3BTZfOw/6brzH/3EZ/8AmrH+TId5R/KEu4Kbf42H/Tc+Yv8A
uIz/APNWH+S4d5X+UJdwU2fzsP8ApuPMP/cRn/5qx/kuHeUfyjLuCm0vnYf9Nv5h/wC4jP8A81Yf
5Lh3lH8oy7gg7jV/OkD+mfOGvv35HUrkdfk2c12pllp83BHlQ5vovs12Jg12kGbJxCXERsdtvgoN
5g86f9Tbrv8A3Ern/mrNf+fyeTvD7J6T+n8x+pTbzD50/wCps13/ALiVz/zXkvz2Tyaj7LaX+l8x
+pTbzH50/wCpr1z/ALiNz/zXh/Oz8ms+zGl/pfP9iW6vqnmLUBZ2+o67qd/bm7gIhu7uaeMNzoGC
SMRyFdjmTp9RKcqPc6btjsjDpsQnC74q3+L6C/Mf/eCz/wCMrf8AEczHmWMWR/0WP5H9eKq9cVdX
FULdN+8Hy/icVY9pZ/5CJaf8Zo/+TYxV9j+Uv+OJD8z+oYqnGKuxV2KuxV2KvlL/AJyWP/IVbT/m
Ctf+TsmKpPC371fniqN5Yq7liqrbN/pEX+uv68VRHm01gt/9c/qxVgvlJxb+a/MNnMeM85t7mFT+
3FwILL40LAHNr2ZIeoOv18TsWWtm2daothQpNihRbChRbChRbChSbFCi2FCTal/vQfkM4P2g/wAa
PuD7Z7C/8Zw/ryQLZpg9XJSbJBokpNkw0SUBBJdappdlCOU9xeQhFHgrgs3yUdcztEDxE+Ty3tNk
iMMY9TL7gX0J+Y/+8Fn/AMZW/wCI5sniGK2R/wBGT6f1nFVbliruWKoW6b94Pl/HFWPaUf8AkI1p
/wAZo/8Ak2MVfZflL/jiQ/M/qGKpxirsVdirsVdir5P/AOcmDT81rP8A5gbX/k7JiqTwt+9X54qj
OWKu5Yqq2zf6RF/rr+vFUV5qNYYP9c/qxVKdU8nWuuWFjdxXEmn6vaLS11CHdgCTVHXbmvt/bkoy
MTY5olEEUUrPlv8AM5fhXV9PkUbCR4WVj7kKtB9GZY1+Vxjo8a0+WvzOP/S003/kXJ/zTh/lDL5I
/JY1p8r/AJmn/paab/yLk/5px/lDL5L+SxtHyp+ZZ/6Wmm/8i5P+acf5Ry+SPyONafKP5kn/AKWm
nf8AIuT/AJpx/lHL5L+RxrT5O/Mg/wDSz07/AJFyf804f5Ry+S/kca8eSPPhUctXsg3cCByPv2x/
lLL5L+QxuPkXzyf+lxZf8iG/rj/KWXyR+Qx+ajJ+XXm+RuUmqWTN4+jIP1Nmt1WOOefHMbvQ9m9s
Z9Hi8LEQIXe4vmpt+Wfmsg/7k7Ie4il/5qyj8nj7nNPtPrD1H+lCmfyt82H/AKW9p/yJf+uH8pj7
vvaj7R6z+d/sY/qWn8qvNR66va/8iX/rh/K4+772J9oNX/O/2Mf1Mq8n/l9YaBcHULidtR1Zl4C6
dQixqdiIkFeNe5r/ABy6MREUHV59RPLLimeIsv8AzH/3gs/+Mrf8RyTSxK0P+jp9P6ziqryxV3LF
UNdN+8Hy/jirHtJP/IR7P/jPH/ybGKvs7yl/xxIfmf1DFU4xV2KuxV2KuxV8m/8AOUo+rfmfYzE8
g+m28vHp9meZaf8ACYqk0J/eL88VRdcVdXFVW2b/AEiL/XX9eKozzQawwf65/ViqI0sn9Hw/6v8A
E4qiS5xVaZGxVozNiq0zviq03Mntiq03cvtirRvJfbFVpvZvb7sVWm/n8R92KrTqFx4j7sVWnUbn
xH3YqtOp3PiPuxVdb6lcvcRISKM6g7diaYqn/wCY3/HKtf8AjP8A8aNirDLY/uF+n9eKqlcVdXFU
Ncn94Pl/HFWP6Qf+Qk2f/GeP/k0MSr7R8pf8cSH5n9QxVOMVdirsVdirsVfJn/OWhp+Y2nf9seH/
AKirnFUjib94vzxVF1xV1cVVbZv9Ii/11/XiqN8ymsUP+sf1YqidLP8AuPh+R/WcVRBOKrCcVWE4
qtJxVYTiqwnFVpOKrCcVWE4qtJxVYTiqwnFV9of9Lg/4yL/xIYqyv8xv+OVa/wDGf/jRsVYTAf3S
/T+vFV9cVdXFUPct8Y+WKse0c/8AIS7L/jPH/wAmhiVfavlL/jiQ/M/qGKpxirsVdirsVdir5K/5
y2NPzH03/tjw/wDUVc4qkMR/eL88VRdcVdXFVW2P+kRf66/rxVMPMW8MR8H/AFjFURph/wBAh+R/
WcVVycVWE4qtJxVYTiqwnFVpOKrCcVWE4qtJxVYTiqwnFVhOKqlof9Mg/wCMif8AEhirLfzG/wCO
Va/8Z/8AjRsVYNEf3Y/z74qurirq4qh7k/EPlirH9GP/ACEyy/4zx/8AJoYlX2x5S/44kPzP6hiq
cYq7FXYq7FXYq+R/+cuTT8yNN/7Y0H/UVc4qkMR/eL88VRfLFXcsVVLZv9Ii/wBdf14qmWvmtvH/
AK/8Diqvpp/0GL5H9ZxVXJxVaTiqwnFVhOKrScVWE4qsJxVaTiqwnFVhOKrCcVWk4qvsz/pkH/GR
P+JDFWYfmN/xyrX/AIz/APGjYqwND8IxVdyxV3LFUPcH4h8sVY/op/5CdY/8Z4/+TQxKvtvyl/xx
Ifmf1DFU4xV2KuxV2KuxV8if85eGn5k6b/2xoP8AqKucVSGJv3i4qiuWKu5YqqW7gTxnwdf14qmm
umsEf+v/AAOKq+nn/Qovkf1nFVcnFVhOKrCcVWk4qsJxVYTiq0nFVhOKrCcVWE4qtJxVYTiq6BiJ
4yNiGUg/TirNPzG/45Vr/wAZ/wDjRsVYAp2xVvliruWKoe4b4h8sVSDQz/yE+x/5iI/+TQxV9veU
v+OJD8z+oYqnGKuxV2KuxV2KvkL/AJy/NPzK03/tjQf9RVziqQQbyqPE4qj/AEWxV3otiq6KEiVD
/lD9eKplrRrDH/r/AMDiqvYH/Qovkf1nFVYnFVhOKrScVWE4qsJxVaTiqwnFVhOKrCcVWk4qsJxV
aTiroj++j/1h+vFWcfmN/wAcq1/4z/8AGjYqwFYiyg4qu9FsVd6LYqhLxSjqD4YqxvSZPT/M+wNK
1uYF/wCDRR/HFX3H5RIOhwkdD/QYqnOKuxV2KuxV2Kvj/wD5zBNPzL0z/tiwf9RV1iqSWHxXkS+L
YqyD6v7Yq76v7Yq2tvRgadDiq3VzWJP9b+BxVEWJ/wBDj+X8cVVScVUGurYEgyoCNiCw2xVYby1/
38n/AAQ/riq03dr/AL+T/gh/XFVhu7b/AH8n/BD+uKrDd23+/k/4IYqotqenAkG6hBGxBkX+uKqZ
1TTf+WuH/kYv9cVWnVNN/wCWuH/kYv8AXFVo1LT2IC3MRJ6AOp/jiqsTiqwnFW4T++j/ANYfrxVn
X5jf8cq1/wCM/wDxo2KsPtIeVujU61/WcVVvq/tirvq/tiqUayvCdB4r/E4qxDTj/wAhP07/AJi7
X/iKYq+5fJn/ABw4vn/xquKp5irsVdirsVdir4//AOcxY3X8x9KlI+B9HiVT7rdXBP8AxIYqkmlU
/Sdup7uB9J2xVmn1fFXfV8VaNvQE+GKpTqprGn+t/DFWjfLa2EFI2nuJj6dtbRiskshrRFH6ydgN
ziAqf6D+QvmHzai3nmfU5La0fddMsmMcIH8rPQvKfE7CvQ5Zwgc0MjT/AJxE/LoIAwlLAbkvLv8A
dKP1YLHcq7/oUX8t/wCWX/gpv+q2NjuV3/Qov5b/AMsv/BTf9VsbHcrv+hRfy3/ll/4Kb/qtjY7l
d/0KL+W/8sv/AAU3/VbGx3K7/oUX8uP5Zf8Agpv+q2NjuV3/AEKJ+XH8sn/By/8AVbGx3K7/AKFE
/Lj+WT/g5f8AqtjY7lYL59/5xJt7O1ku/Lt46sgLejOecZp4mnNPn8WHhB5K8PguPNHlTU5LGbnD
JbtxnsZjyjPfYVpQ9Qy9cgRSXo+ja1batZLcQ/Cw+GWI9Ubw9x4HAqYQn9/H/rD9eKs9/Mb/AI5V
r/xn/wCNGxVj2lQ8rCJvHl/xI4qi/q+Ku+r4qxnzQAl7Evf06n6WOKsJ0JWuvzS09Yxut1Exr4RI
C34IcVfc/k3bQ4/n/wAariqeYq7FXYq7FXYq+e/+ctfy31XWtKsPNmlQm5fRo5IdThQVcWrHmsoA
3KxNy5eANegOKvnzQ/N0EgjW7l+r3kdCJiaIxXcNy6Kfnt+rFXoFh5xlQBb2ITL/AL8Sit86fZP4
YqyKx1fSL2ghnUSH/db/AAN9x6/RiqPkt6RsfAH9WKsU1I1jT/W/hiqe/lhpcWpau2oXA5RwMbW1
H8qIA07j3dvgr4D3y7GNrQXvVprUcKCPhxUbAr4DptgMVRqaxE/2XB9u+R4VXfpMeONK79JjxxpX
fpMeONK79JjxxpXfpMeONK79JjxxpVr6xEn2nAx4VQdzrqSKUVag9zkhFXzl/wA5B+VLRo01i3jC
S2rqrkDrbzGgB/1JD8PzOGYsWoeT+W5JNP1JCDSGakco7UPQ/QcpSz+D+/j/ANYfrxVn35jf8cq1
/wCM/wDxo2KpZoMPLSYG8ef/ABM4qvvtR0uxr9ZnVXH+6x8T/wDAipxVjt/5xBqljDT/AItl6/Qo
/rirBtd84W8bu7zfXLw7BVNVH+sRsKeAxVNPyY8patrHmZfMdyjLbRM5t3IIE0zhkPH/ACIwTU/I
eOKvtXy3EY9IhBFCxY/PelfwxVM8VdirsVdirsVcQCKHcHqMVeDfmn/zi15d1+4m1byyRpGoSkvN
axqDbu53JEdRwr/k0Htir54178tvzQ8mSuklnNJbITWS3Bmi9yYyOS+54/TiqVWnnehKX1sVIrVo
fHw4Of8AjbFWW6J54faOyv8A1EPwm2kO5FKkKj7/AErirJbsiW2EiGoA5j3FMVZb+UjGLTrZT1/f
E/S5OZMPpQXpP1j3xpDvrHvjSrhduOjH78aS39el/mxpW/r0n82NK769J/NjStfXpf5saVo3kh6s
fvxpVv1jGkO+sY0rzr84mEug3iHesEX4Tg4y+kpeJjTzQGmYyXr2m+RIZ7a2uvrrD1ESXj6Y/aAa
n2sVW+ftatLr0LC2cSmFjJM6mqhqUCgjr1NcVee6n5wezgFrJf8A1a2j+xEho5DEmtF+NhU/LFWI
XvneEVFnAZG/35LsK1/lG5H0jFVfTfKv5ieaiPStpIbJ/wDds3+jwcSa96NIPkGxV6n5K/5x1s4Z
IrjWWOoT1BEJBS3B/wBX7cn00HiMVfQXlnyJFaRx+pGIYkUKqABW4gUCqo2RcVZsqqihVAVVFFA6
ADFW8VdirsVdirsVdirsVULuws7xOFzCsq9PiG/34q8983fkJ5D8x85J7GNbhv8AdoHB6/8AGROL
0xV4b50/5xI1izWS48vXZmValbe4owPykQDj7cl+nFXlul+bdb8sXEuh+YbWakBKNHJtPF7Dlsy+
G/yNMVey/l1rFnNpNtd2bloH9QKWHE15EEEH3zKxj0sSzP8ATH+UPvyVK79MH+b8caV36YP83440
rv0wf5vxGNK79MH+b8RjSu/TB/m/EY0rX6YP8w+8Y0rv0x/lD7xjSu/TQ/nH3jGla/TI/nH3jDSs
P/MvVrZfL95cXEnGFI41ZhVuswA6V7nIzHpKh5cPN/lWg/0o/wDIqT/mnMRkiP8AH/l0R8frjlQK
ceEvb6MVSDWPPk98v1HRYZVkn+AS0rKSxpxjVeW58ev04qy3yd/zj5q2qxx3euXL2/qUd7OEAygH
f95K9VVvahxV7Z5O/IjQNN4SWemp6oofrUg9SSviJZa0/wBgMVem6b5EsrejSkch/IKn/g2/pirI
bXTrK0H7iJVPdurfed8VRGKuxV2KuxV2KuxV2KuxV2KuxV2KuxV5l+en5T6f538nagbOwifzPbQ+
ppdyAqys8bBzDzNP7wKV3NKnFXxxpPmvzv5Rgl0X9HGJ4pWaSG7gmEsbkAFackoNq9MsjkIFIpG/
8rb88f8ALDb/APIib/mvJeMVp3/K2/PH/LDb/wDIib/mvHxitO/5W354/wCWG3/5ETf814+MVpeP
zM/MVxzTT1KtuONtKR9B5HB4xWnf8rJ/Mj/q3j/pFl/rj4xWnf8AKyfzI/6t4/6RZf64+MVp3/Ky
fzI/6t4/6RZf64+MVp3/ACsn8yP+reP+kWX+uPjFad/ysn8yP+reP+kWX+uPjFad/wArJ/Mj/q3j
/pFl/rj4xWkDrXmjz/5gsTpVzp0jRTspKQ20odipqo79xglkJFLT1D8v/wDnHfS9V0S2OsxTDV3H
KeNJCApYkqlBtVUpy98rSywf84o+XQa/Vrk+3qtirLPKv5D6Nocgex01IJRsZ23kp3/eyM70PguK
vUNF8sWmnopdVeRfsqB8C++/U+5xVOsVdirsVdirsVdirsVdirsVdirsVdirsVdirsVdiqTaz5T0
rVZhPMnC4pQyKPtAfzDauKpb/wAq70n+b/hT/wA1Yq7/AJV3pP8AN/wp/wCasVd/yrvSf5v+FP8A
zVira/l5pI6tUf6v9ScVXf8AKvtH9/8AgRirv+VfaP7/APAjFXf8q+0f3/4EYq7/AJV9o/v/AMCM
Vd/yr7R/f/gRirv+VfaP7/8AAjFXf8q+0f3/AOBGKpppPl2x01ucVSwBC7AAV60A74qmmKuxV2Ku
xV2KuxV2KuxV2KuxV2KuxV2KuxV2KuxV2KuxV2KuxV2KuxV2KuxV2KuxV2KuxV2KuxV2KuxV2Kux
V2KuxV2KuxV2KuxV2KuxV2KuxV2KuxV2KuxV2KuxV2KuxV2KuxV2KuxV2KuxV2KuxV2KuxV2KuxV
2KuxV2KuxV2KuxV2KuxV2KuxV//Z</xapGImg:image>
              </rdf:li>
            </rdf:Alt>
          </xap:Thumbnails>
        </rdf:Description>
        <rdf:Description
   rdf:about="uuid:4fe4eeb8-4415-484c-a0f8-5d9e921f8e8e">
          <xapMM:DocumentID>
uuid:30ba070f-207d-432d-8910-f6e9c3787288</xapMM:DocumentID>
        </rdf:Description>
        <rdf:Description
   rdf:about="uuid:4fe4eeb8-4415-484c-a0f8-5d9e921f8e8e">
          <dc:format>
image/svg+xml</dc:format>
          <dc:title>
            <rdf:Alt>
              <rdf:li
   xml:lang="x-default">
zip_unmount.ai</rdf:li>
            </rdf:Alt>
          </dc:title>
        </rdf:Description>
      <cc:Work
   rdf:about=""><dc:format>image/svg+xml</dc:format><dc:type
     rdf:resource="http://purl.org/dc/dcmitype/StillImage" /></cc:Work></rdf:RDF></metadata></x:xmpmeta>
    
  </metadata>
  <path
   id="path1340"
   d="M 34.309,5.769 C 34.309,5.769 34.15,6.021 33.992,6.271 C 33.042,6.273 16.604,6.31 15.653,6.312 C 15.494,6.062 15.333,5.809 15.333,5.809 C 15.128,5.487 14.749,5.321 14.373,5.39 C 13.589,5.534 12.906,5.953 12.414,6.553 C 11.603,6.555 6.707,6.565 6.707,6.565 C 6.458,6.565 6.22,6.665 6.044,6.841 C 5.87,7.017 5.772,7.254 5.772,7.502 C 5.772,7.502 5.835,37.669 5.835,37.669 C 5.835,37.785 5.861,37.898 5.903,38.005 C 5.903,38.162 5.903,38.319 5.903,38.319 C 5.906,39.84 8.184,40.62 10.821,41.523 C 11.52,41.762 12.173,41.988 12.634,42.185 C 12.978,42.548 13.39,42.83 13.856,43.006 C 13.879,43.111 13.948,43.428 13.948,43.428 C 14.042,43.86 14.424,44.167 14.866,44.166 L 31.723,44.131 C 32.164,44.13 32.545,43.821 32.637,43.39 C 32.637,43.39 32.658,43.29 32.678,43.198 C 33.508,43.196 34.741,43.193 34.741,43.193 C 35.655,43.191 36.499,42.81 37.122,42.165 C 37.584,41.96 38.269,41.72 39.004,41.465 C 41.636,40.552 43.909,39.763 43.909,38.243 C 43.909,38.242 43.908,38.081 43.908,37.922 C 43.947,37.818 43.974,37.709 43.974,37.592 C 43.974,37.591 43.911,7.424 43.911,7.424 C 43.91,6.906 43.49,6.487 42.972,6.488 C 42.972,6.488 38.04,6.498 37.23,6.5 C 36.736,5.902 36.05,5.486 35.266,5.345 C 34.891,5.279 34.513,5.446 34.309,5.769 z "
   style="opacity:1;fill:#000000;fill-opacity:0.29723993" /><path
   id="path1341"
   d="M 33.934,5.394 C 33.934,5.394 33.775,5.646 33.617,5.896 C 32.668,5.898 16.23,5.935 15.279,5.937 C 15.12,5.687 14.959,5.434 14.959,5.434 C 14.754,5.112 14.375,4.946 13.999,5.015 C 13.215,5.159 12.532,5.578 12.04,6.178 C 11.229,6.18 6.333,6.19 6.333,6.19 C 6.084,6.19 5.846,6.29 5.67,6.466 C 5.495,6.642 5.397,6.879 5.397,7.127 C 5.397,7.127 5.46,37.294 5.46,37.294 C 5.46,37.41 5.486,37.523 5.528,37.63 C 5.528,37.787 5.528,37.944 5.528,37.944 C 5.531,39.465 7.809,40.245 10.446,41.148 C 11.145,41.387 11.798,41.613 12.259,41.81 C 12.603,42.173 13.015,42.455 13.481,42.631 C 13.504,42.736 13.573,43.053 13.573,43.053 C 13.667,43.485 14.049,43.792 14.491,43.791 L 31.348,43.756 C 31.789,43.755 32.17,43.446 32.262,43.015 C 32.262,43.015 32.283,42.915 32.303,42.823 C 33.133,42.821 34.366,42.818 34.366,42.818 C 35.28,42.816 36.124,42.435 36.747,41.79 C 37.209,41.585 37.894,41.345 38.629,41.09 C 41.261,40.177 43.534,39.388 43.534,37.868 C 43.534,37.867 43.533,37.706 43.533,37.547 C 43.572,37.443 43.599,37.334 43.599,37.217 C 43.599,37.216 43.536,7.049 43.536,7.049 C 43.535,6.531 43.115,6.112 42.597,6.113 C 42.597,6.113 37.665,6.123 36.855,6.125 C 36.361,5.527 35.675,5.111 34.891,4.97 C 34.516,4.904 34.138,5.071 33.934,5.394 z "
   style="opacity:1" /><path
   id="path1351"
   d="M 33.559,5.019 C 33.559,5.019 33.4,5.271 33.242,5.521 C 32.292,5.523 15.854,5.56 14.903,5.562 C 14.744,5.312 14.583,5.059 14.583,5.059 C 14.378,4.737 13.999,4.571 13.623,4.64 C 12.839,4.784 12.156,5.203 11.664,5.803 C 10.853,5.805 5.957,5.815 5.957,5.815 C 5.708,5.815 5.47,5.915 5.294,6.091 C 5.12,6.267 5.022,6.504 5.022,6.752 C 5.022,6.752 5.085,36.919 5.085,36.919 C 5.085,37.035 5.111,37.148 5.153,37.255 C 5.153,37.412 5.153,37.569 5.153,37.569 C 5.156,39.09 7.434,39.87 10.071,40.773 C 10.77,41.012 11.423,41.238 11.884,41.435 C 12.228,41.798 12.64,42.08 13.106,42.256 C 13.129,42.361 13.198,42.678 13.198,42.678 C 13.292,43.11 13.674,43.417 14.116,43.416 L 30.973,43.381 C 31.414,43.38 31.795,43.071 31.887,42.64 C 31.887,42.64 31.908,42.54 31.928,42.448 C 32.758,42.446 33.991,42.443 33.991,42.443 C 34.905,42.441 35.749,42.06 36.372,41.415 C 36.834,41.21 37.519,40.97 38.254,40.715 C 40.886,39.802 43.159,39.013 43.159,37.493 C 43.159,37.492 43.158,37.331 43.158,37.172 C 43.197,37.068 43.224,36.959 43.224,36.842 C 43.224,36.841 43.161,6.674 43.161,6.674 C 43.16,6.156 42.74,5.737 42.222,5.738 C 42.222,5.738 37.29,5.748 36.48,5.75 C 35.986,5.152 35.3,4.736 34.516,4.595 C 34.141,4.529 33.763,4.696 33.559,5.019 z "
   style="fill:url(#XMLID_16_);opacity:1" /><path
   id="path1358"
   d="M 42.288,36.843 L 42.225,6.677 L 36.007,6.69 C 35.669,6.088 35.068,5.648 34.352,5.52 L 33.759,6.458 L 14.389,6.5 L 13.792,5.562 C 13.077,5.693 12.477,6.136 12.141,6.739 L 5.959,6.752 L 6.022,36.918 L 6.089,36.918 L 6.09,37.568 C 6.092,38.767 10.674,39.849 12.417,40.643 C 12.785,41.108 13.328,41.431 13.951,41.52 C 13.959,41.683 13.977,41.848 14.013,42.011 C 14.013,42.011 14.066,42.255 14.115,42.48 C 14.72,42.479 30.365,42.446 30.971,42.445 C 31.02,42.219 31.072,41.975 31.072,41.975 C 31.105,41.821 31.122,41.666 31.131,41.512 L 33.991,41.506 C 34.748,41.504 35.42,41.157 35.854,40.619 C 37.549,39.815 42.225,38.704 42.223,37.491 L 42.221,36.842 L 42.288,36.842 L 42.288,36.843 z "
   style="fill:url(#XMLID_17_);opacity:1" /><path
   id="path1365"
   d="M 24.362,6.714 C 24.241,8.046 24.156,9.38 24.1,10.714 C 24.038,9.38 23.948,8.047 23.821,6.714 L 5.959,6.752 L 6.022,36.918 L 6.089,36.918 L 6.09,37.568 C 6.093,38.913 11.855,40.11 12.914,40.92 L 23.572,40.528 C 23.67,39.106 23.743,37.692 23.74,36.297 C 23.73,31.424 23.982,26.517 24.122,21.604 C 24.284,26.516 24.556,31.422 24.566,36.296 C 24.569,37.691 24.649,39.105 24.753,40.526 L 35.412,40.873 C 36.468,40.059 42.225,38.838 42.222,37.492 L 42.22,36.843 L 42.287,36.843 L 42.225,6.677 L 24.362,6.714 z "
   style="fill:url(#XMLID_18_);opacity:1" /><path
   id="path1375"
   d="M 25.882,7.592 C 25.824,8.423 25.774,9.267 25.736,10.156 C 25.699,11.064 24.987,11.78 24.121,11.781 C 23.254,11.783 22.54,11.07 22.499,10.162 C 22.459,9.273 22.405,8.429 22.344,7.599 C 20.07,7.605 9.654,7.627 7.204,7.633 C 7.21,10.629 7.261,36.198 7.263,37.043 C 7.304,37.192 7.332,37.346 7.332,37.504 C 7.332,37.504 7.332,37.608 7.332,37.669 C 8.005,38.091 9.662,38.672 10.605,39.003 C 11.734,39.399 12.521,39.683 13.089,39.98 C 13.818,39.953 19.958,39.721 22.048,39.643 C 22.092,38.786 22.127,37.862 22.127,36.937 C 22.127,36.912 22.127,36.666 22.127,36.569 C 22.127,33.059 22.251,29.493 22.37,26.041 L 22.519,21.43 C 22.549,20.516 23.263,19.791 24.135,19.789 C 25.007,19.787 25.725,20.509 25.758,21.423 L 25.926,26.025 C 26.063,29.575 26.204,33.246 26.212,36.852 C 26.214,37.801 26.253,38.753 26.302,39.633 C 28.393,39.702 34.534,39.906 35.263,39.931 C 35.83,39.631 36.615,39.345 37.742,38.944 C 38.684,38.61 40.339,38.021 41.011,37.596 C 41.011,37.534 41.01,37.428 41.01,37.427 C 41.01,37.266 41.038,37.114 41.077,36.967 C 41.076,36.118 41.024,10.554 41.018,7.559 C 38.571,7.564 28.155,7.587 25.882,7.592 z "
   style="fill:url(#XMLID_19_);opacity:1" /><path
   id="path1385"
   d="M 34.352,5.519 L 33.759,6.457 L 14.389,6.5 L 13.792,5.562 C 12.688,5.764 11.852,6.709 11.854,7.844 L 11.919,39.235 C 11.922,40.516 12.989,41.551 14.303,41.548 L 33.989,41.507 C 35.302,41.504 36.365,40.464 36.362,39.184 L 36.298,7.792 C 36.296,6.658 35.457,5.717 34.352,5.519 z "
   style="fill:url(#XMLID_20_);opacity:1" /><path
   id="path1392"
   d="M 34.355,7.449 C 34.355,7.449 13.077,7.493 12.91,7.493 C 12.877,7.606 12.846,7.72 12.846,7.842 L 12.911,39.233 C 12.912,39.965 13.536,40.559 14.302,40.557 L 33.988,40.516 C 34.753,40.515 35.375,39.918 35.373,39.186 L 35.307,7.794 C 35.307,7.672 35.275,7.559 35.243,7.446 C 35.074,7.447 34.355,7.449 34.355,7.449 z "
   style="fill:url(#XMLID_21_);opacity:1" /><rect
   id="rect1399"
   height="33.282001"
   width="20.559"
   style="fill:url(#XMLID_22_);opacity:1"
   y="6.4369998"
   x="13.829" /><rect
   id="rect1410"
   height="18.614"
   width="20.559999"
   style="fill:url(#XMLID_23_);opacity:1"
   y="7.3610001"
   x="13.816" /><path
   id="path1419"
   d="M 29.422,35.942 L 17.121,35.967 C 15.089,35.972 13.44,38.025 13.445,40.546 L 13.446,41.251 L 33.119,41.21 L 33.117,40.505 C 33.112,37.984 31.455,35.938 29.422,35.942 z "
   style="fill:url(#XMLID_24_);opacity:1" /><path
   id="path1420"
   d="M 28.529,36.44 L 28.529,36.44 L 17.281,36.463 C 16.488,36.464 15.742,36.776 15.181,37.339 C 14.621,37.902 14.313,38.646 14.313,39.437 C 14.313,39.439 14.317,41.382 14.317,41.382 C 14.317,41.59 14.341,41.802 14.386,42.011 C 14.386,42.011 14.439,42.255 14.488,42.48 C 15.093,42.479 30.738,42.446 31.344,42.445 C 31.393,42.219 31.445,41.975 31.445,41.975 C 31.489,41.768 31.512,41.558 31.512,41.353 C 31.512,41.351 31.508,39.407 31.508,39.407 C 31.506,37.768 30.169,36.437 28.529,36.44 z "
   style="opacity:1" /><path
   id="path1421"
   d="M 28.342,36.44 L 28.342,36.44 L 17.094,36.463 C 16.301,36.464 15.555,36.776 14.994,37.339 C 14.434,37.902 14.126,38.646 14.126,39.437 C 14.126,39.439 14.13,41.382 14.13,41.382 C 14.13,41.59 14.154,41.802 14.199,42.011 C 14.199,42.011 14.252,42.255 14.301,42.48 C 14.906,42.479 30.551,42.446 31.157,42.445 C 31.206,42.219 31.258,41.975 31.258,41.975 C 31.302,41.768 31.325,41.558 31.325,41.353 C 31.325,41.351 31.321,39.407 31.321,39.407 C 31.318,37.768 29.981,36.437 28.342,36.44 z "
   style="opacity:1" /><path
   id="path1428"
   d="M 28.154,36.44 L 28.154,36.44 L 16.906,36.463 C 16.113,36.464 15.367,36.776 14.806,37.339 C 14.246,37.902 13.938,38.646 13.938,39.437 C 13.938,39.439 13.942,41.382 13.942,41.382 C 13.942,41.59 13.966,41.802 14.011,42.011 C 14.011,42.011 14.064,42.255 14.113,42.48 C 14.718,42.479 30.363,42.446 30.969,42.445 C 31.018,42.219 31.07,41.975 31.07,41.975 C 31.114,41.768 31.137,41.558 31.137,41.353 C 31.137,41.351 31.133,39.407 31.133,39.407 C 31.131,37.768 29.794,36.437 28.154,36.44 z "
   style="fill:url(#XMLID_25_);opacity:1" /><path
   id="path1443"
   d="M 30.489,41.852 C 30.524,41.68 30.544,41.503 30.543,41.321 L 30.539,39.275 C 30.536,37.889 29.469,36.768 28.155,36.771 L 16.907,36.794 C 15.594,36.797 14.531,37.923 14.533,39.308 L 14.537,41.354 C 14.537,41.537 14.557,41.714 14.593,41.885 L 30.489,41.852 z "
   style="fill:url(#XMLID_26_);opacity:1" /><g
   id="g1444"
   style="opacity:1">
      <path
   id="path1445"
   d="M 13.796,21.161 L 13.8,23.278 L 13.812,23.278 C 13.914,24.171 14.68,24.864 15.609,24.862 L 32.591,24.826 C 33.521,24.825 34.283,24.128 34.381,23.235 L 34.394,23.235 L 34.389,21.118 L 13.796,21.161 z " />
      <linearGradient
   y2="22.9902"
   x2="33.982399"
   y1="22.9902"
   x1="14.209"
   gradientUnits="userSpaceOnUse"
   id="XMLID_27_">
        <stop
   id="stop1447"
   style="stop-color:#5081BA"
   offset="0" />
        <stop
   id="stop1448"
   style="stop-color:#084D91"
   offset="1" />
        <a:midPointStop
   id="midPointStop1449"
   style="stop-color:#5081BA"
   offset="0" />
        <a:midPointStop
   id="midPointStop1450"
   style="stop-color:#5081BA"
   offset="0.5" />
        <a:midPointStop
   id="midPointStop1451"
   style="stop-color:#084D91"
   offset="1" />
      </linearGradient>
      <path
   id="path1452"
   d="M 14.209,21.57 C 14.21,22.103 14.212,23.277 14.212,23.277 C 14.212,23.262 14.223,23.247 14.221,23.232 C 14.301,23.929 14.897,24.453 15.608,24.451 L 32.591,24.416 C 33.302,24.415 33.896,23.888 33.972,23.19 C 33.971,23.205 33.982,23.221 33.982,23.236 C 33.982,23.236 33.979,22.062 33.978,21.529 C 33.204,21.531 14.984,21.569 14.209,21.57 z "
   style="fill:url(#XMLID_27_)" />
      <rect
   id="rect1453"
   height="12.577"
   width="20.594999"
   y="8.9980001"
   x="13.798" />
      <linearGradient
   y2="15.2861"
   x2="33.9814"
   y1="15.2861"
   x1="14.2095"
   gradientUnits="userSpaceOnUse"
   id="XMLID_28_">
        <stop
   id="stop1455"
   style="stop-color:#FFFFFF"
   offset="0" />
        <stop
   id="stop1456"
   style="stop-color:#CED5DA"
   offset="1" />
        <a:midPointStop
   id="midPointStop1457"
   style="stop-color:#FFFFFF"
   offset="0" />
        <a:midPointStop
   id="midPointStop1458"
   style="stop-color:#FFFFFF"
   offset="0.5" />
        <a:midPointStop
   id="midPointStop1459"
   style="stop-color:#CED5DA"
   offset="1" />
      </linearGradient>
      <path
   id="path1460"
   d="M 14.209,9.408 C 14.209,10.15 14.209,20.423 14.209,21.164 C 14.984,21.164 33.206,21.164 33.981,21.164 C 33.981,20.422 33.981,10.149 33.981,9.408 C 33.206,9.408 14.985,9.408 14.209,9.408 z "
   style="fill:url(#XMLID_28_)" />
      <linearGradient
   y2="22.9785"
   x2="33.982399"
   y1="22.9785"
   x1="27.476601"
   gradientUnits="userSpaceOnUse"
   id="XMLID_29_">
        <stop
   id="stop1462"
   style="stop-color:#CF0000"
   offset="0" />
        <stop
   id="stop1463"
   style="stop-color:#990000"
   offset="1" />
        <a:midPointStop
   id="midPointStop1464"
   style="stop-color:#CF0000"
   offset="0" />
        <a:midPointStop
   id="midPointStop1465"
   style="stop-color:#CF0000"
   offset="0.5" />
        <a:midPointStop
   id="midPointStop1466"
   style="stop-color:#990000"
   offset="1" />
      </linearGradient>
      <path
   id="path1467"
   d="M 27.477,21.543 L 27.477,24.427 L 32.592,24.416 C 33.303,24.415 33.897,23.888 33.973,23.19 C 33.972,23.205 33.983,23.221 33.983,23.236 C 33.983,23.236 33.98,22.062 33.979,21.529 C 33.686,21.53 30.884,21.536 27.477,21.543 z "
   style="fill:url(#XMLID_29_)" />
    </g><path
   id="path1477"
   d="M 22.539,39.527 C 25.472,39.527 28.076,38.926 29.73,37.996 C 29.367,37.492 28.796,37.165 28.156,37.167 L 16.908,37.19 C 16.278,37.191 15.717,37.508 15.355,38 C 17.01,38.929 19.611,39.527 22.539,39.527 z "
   style="fill:url(#XMLID_30_);opacity:1" /><polyline
   points="0,48 0,0 48,0 48,48 "
   style="fill:none;opacity:1"
   id="_x3C_Slice_x3E_" />
</svg>