<?xml version="1.0" encoding="UTF-8" standalone="no"?>
<!-- Created with Sodipodi ("http://www.sodipodi.com/") -->
<svg
   xmlns:dc="http://purl.org/dc/elements/1.1/"
   xmlns:cc="http://web.resource.org/cc/"
   xmlns:rdf="http://www.w3.org/1999/02/22-rdf-syntax-ns#"
   xmlns:svg="http://www.w3.org/2000/svg"
   xmlns="http://www.w3.org/2000/svg"
   xmlns:sodipodi="http://sodipodi.sourceforge.net/DTD/sodipodi-0.dtd"
   xmlns:inkscape="http://www.inkscape.org/namespaces/inkscape"
   width="48pt"
   height="48pt"
   viewBox="0 0 256 256"
   overflow="visible"
   enable-background="new 0 0 256 256"
   xml:space="preserve"
   id="svg153"
   sodipodi:version="0.32"
   sodipodi:docname="camera.svg"
   sodipodi:docbase="C:\Users\schroede.silverwhite\Documents\localcvs\spielwiese\flex\dnd\svg"
   inkscape:version="0.45.1"
   inkscape:output_extension="org.inkscape.output.svg.inkscape"><metadata
     id="metadata21323"><rdf:RDF><cc:Work
         rdf:about=""><dc:format>image/svg+xml</dc:format><dc:type
           rdf:resource="http://purl.org/dc/dcmitype/StillImage" /></cc:Work></rdf:RDF></metadata><defs
     id="defs254"><linearGradient
       y2="50.317"
       x2="58.9756"
       y1="45.9658"
       x1="58.9756"
       gradientUnits="userSpaceOnUse"
       id="XMLID_1_"><stop
         id="stop161"
         style="stop-color:#CCCCCC"
         offset="0" /><stop
         id="stop162"
         style="stop-color:#666666"
         offset="1" /></linearGradient><linearGradient
       y2="132.0928"
       x2="238.375"
       y1="132.0928"
       x1="7.3384"
       gradientUnits="userSpaceOnUse"
       id="XMLID_2_"><stop
         id="stop171"
         style="stop-color:#D9D9D9"
         offset="0" /><stop
         id="stop172"
         style="stop-color:#BFBFBF"
         offset="1" /></linearGradient><linearGradient
       y2="135.6475"
       x2="221.3945"
       y1="135.6475"
       x1="79.6855"
       gradientUnits="userSpaceOnUse"
       id="XMLID_3_"><stop
         id="stop182"
         style="stop-color:#D0D2D8"
         offset="0.0056" /><stop
         id="stop183"
         style="stop-color:#EDEFF6"
         offset="0.5" /><stop
         id="stop184"
         style="stop-color:#D0D2D8"
         offset="1" /></linearGradient><linearGradient
       y2="135.6475"
       x2="183.8193"
       y1="135.6475"
       x1="117.2612"
       gradientUnits="userSpaceOnUse"
       id="XMLID_4_"><stop
         id="stop195"
         style="stop-color:#D9D9D9"
         offset="0" /><stop
         id="stop196"
         style="stop-color:#BFBFBF"
         offset="1" /></linearGradient><linearGradient
       y2="161.7986"
       x2="150.54"
       y1="106.8774"
       x1="150.54"
       gradientUnits="userSpaceOnUse"
       id="XMLID_5_"><stop
         id="stop204"
         style="stop-color:#D0D2D8"
         offset="0.0056" /><stop
         id="stop205"
         style="stop-color:#EDEFF6"
         offset="0.5" /><stop
         id="stop206"
         style="stop-color:#D0D2D8"
         offset="1" /></linearGradient><linearGradient
       y2="72.8909"
       x2="202.0693"
       y1="64.8745"
       x1="202.0693"
       gradientUnits="userSpaceOnUse"
       id="XMLID_6_"><stop
         id="stop223"
         style="stop-color:#FFFFFF"
         offset="0" /><stop
         id="stop224"
         style="stop-color:#D2DDE9"
         offset="1" /></linearGradient><linearGradient
       y2="73.985"
       x2="118.5383"
       y1="94.4316"
       x1="117.0698"
       gradientUnits="userSpaceOnUse"
       id="XMLID_7_"><stop
         id="stop233"
         style="stop-color:#99CCFF"
         offset="0" /><stop
         id="stop234"
         style="stop-color:#0066CC"
         offset="1" /></linearGradient><linearGradient
       y2="71.7536"
       x2="118.5576"
       y1="65.8765"
       x1="118.5576"
       gradientUnits="userSpaceOnUse"
       id="XMLID_8_"><stop
         id="stop240"
         style="stop-color:#FFFFFF"
         offset="0" /><stop
         id="stop241"
         style="stop-color:#3366CC"
         offset="1" /></linearGradient><linearGradient
       y2="75.0636"
       x2="148.5332"
       y1="66.6089"
       x1="148.5332"
       gradientUnits="userSpaceOnUse"
       id="XMLID_9_"><stop
         id="stop247"
         style="stop-color:#FFFFFF"
         offset="0" /><stop
         id="stop248"
         style="stop-color:#000000"
         offset="1" /></linearGradient></defs><sodipodi:namedview
     id="namedview253"
     inkscape:zoom="8.8859752"
     inkscape:cx="35.290724"
     inkscape:cy="27.925663"
     inkscape:window-width="898"
     inkscape:window-height="781"
     inkscape:window-x="653"
     inkscape:window-y="274"
     inkscape:current-layer="svg153" /><g
     id="sfondo"
     stroke="#000000"
     style="opacity:1"><path
       fill="none"
       stroke="none"
       d="M256,256H0V0h256V256z"
       id="path155" /></g><g
     id="Layer_1"
     stroke="#000000"
     style="opacity:1" /><g
     id="base"
     stroke="#000000"
     style="opacity:1" /><path
     style="fill:#666666;stroke:none;opacity:1"
     id="path159"
     d="M 36.932,53.853 C 36.932,59.11 46.801,63.372 58.976,63.372 C 71.151,63.372 81.02,59.11 81.02,53.853 C 81.02,48.596 71.151,44.334 58.976,44.334 C 46.801,44.334 36.932,48.596 36.932,53.853 z " /><path
     style="fill:url(#XMLID_1_);stroke:none;opacity:1"
     id="path166"
     d="M 39.604,52.221 C 39.604,53.828 46.265,58.476 58.976,58.476 C 71.687,58.476 78.348,53.828 78.348,52.221 C 78.348,50.614 71.687,45.966 58.976,45.966 C 46.265,45.966 39.604,50.614 39.604,52.221 z " /><path
     style="opacity:1;stroke:none;fill:#000000;fill-opacity:0.11940298"
     id="path167"
     d="M 28.024,65.667 C 21.394,65.667 16,71.062 16,77.692 L 16,212.495 C 16,219.126 21.394,224.519 28.024,224.519 L 241.025,224.519 C 247.656,224.519 253.048,219.125 253.048,212.495 L 253.048,77.692 C 253.048,71.062 247.655,65.668 241.025,65.668 L 28.024,65.668 L 28.024,65.667 z " /><path
     style="fill:#666666;stroke:none;opacity:1"
     id="path168"
     d="M 16.357,50.667 C 8.624,50.667 2.333,56.959 2.333,64.691 L 2.333,199.494 C 2.333,207.227 8.625,213.518 16.357,213.518 L 229.358,213.518 C 237.09,213.518 243.381,207.227 243.381,199.494 L 243.381,64.692 C 243.381,56.959 237.09,50.668 229.358,50.668 L 16.357,50.668 L 16.357,50.667 z " /><path
     style="fill:#666666;stroke:none;opacity:1"
     id="path169"
     d="M 16.357,52.667 C 9.727,52.667 4.333,58.062 4.333,64.691 L 4.333,199.494 C 4.333,206.125 9.727,211.518 16.357,211.518 L 229.358,211.518 C 235.988,211.518 241.381,206.124 241.381,199.494 L 241.381,64.692 C 241.381,58.062 235.987,52.668 229.358,52.668 L 16.357,52.668 L 16.357,52.667 z " /><path
     style="fill:url(#XMLID_2_);stroke:none;opacity:1"
     id="path176"
     d="M 238.375,199.495 C 238.375,204.475 234.338,208.513 229.358,208.513 L 16.357,208.513 C 11.377,208.513 7.338,204.476 7.338,199.495 L 7.338,64.692 C 7.338,59.711 11.376,55.673 16.357,55.673 L 229.358,55.673 C 234.337,55.673 238.375,59.711 238.375,64.692 L 238.375,199.495 z " /><path
     style="fill:#bfbfbf;stroke:none;opacity:1"
     id="path177"
     d="M 229.358,55.673 L 226.351,55.673 C 231.331,55.673 235.37,59.711 235.37,64.692 L 235.37,199.495 C 235.37,204.475 231.332,208.513 226.351,208.513 L 229.358,208.513 C 234.337,208.513 238.375,204.476 238.375,199.495 L 238.375,64.692 C 238.375,59.711 234.338,55.673 229.358,55.673 z " /><path
     style="fill:#bfbfbf;stroke:none;opacity:1"
     id="path178"
     d="M 10.344,199.495 L 10.344,64.692 C 10.344,59.711 14.382,55.673 19.363,55.673 L 16.357,55.673 C 11.377,55.673 7.338,59.711 7.338,64.692 L 7.338,199.495 C 7.338,204.475 11.376,208.513 16.357,208.513 L 19.363,208.513 C 14.382,208.513 10.344,204.476 10.344,199.495 z " /><path
     style="opacity:1;fill:#ffffff;stroke:none"
     id="path179"
     d="M 229.358,55.673 L 16.357,55.673 C 11.377,55.673 7.338,59.711 7.338,64.692 L 7.338,69.948 C 7.338,65.149 11.376,61.26 16.357,61.26 L 229.358,61.26 C 234.337,61.26 238.375,65.15 238.375,69.948 L 238.375,64.692 C 238.375,59.711 234.338,55.673 229.358,55.673 z " /><path
     style="fill:#999999;stroke:none;opacity:1"
     id="path180"
     d="M 78.183,135.648 C 78.183,175.61 110.579,208.005 150.541,208.005 C 190.503,208.005 222.898,175.609 222.898,135.648 C 222.898,95.685 190.502,63.29 150.541,63.29 C 110.578,63.29 78.183,95.686 78.183,135.648 z " /><path
     style="fill:url(#XMLID_3_);stroke:none;opacity:1"
     id="path190"
     d="M 79.686,135.648 C 79.686,174.717 111.472,206.502 150.541,206.502 C 189.61,206.502 221.395,174.718 221.395,135.648 C 221.395,96.578 189.611,64.793 150.541,64.793 C 111.471,64.793 79.686,96.579 79.686,135.648 z " /><path
     style="fill:#f7f7f7;stroke:none;opacity:1"
     id="path191"
     d="M 112.752,135.648 C 112.752,156.484 129.704,173.435 150.541,173.435 C 171.378,173.435 188.329,156.484 188.329,135.648 C 188.329,114.811 171.378,97.859 150.541,97.859 C 129.704,97.859 112.752,114.812 112.752,135.648 z " /><path
     style="fill:#666666;stroke:none;opacity:1"
     id="path192"
     d="M 115.758,135.648 C 115.758,154.826 131.361,170.43 150.541,170.43 C 169.72,170.43 185.323,154.826 185.323,135.648 C 185.323,116.468 169.719,100.865 150.541,100.865 C 131.36,100.865 115.758,116.468 115.758,135.648 z " /><path
     style="fill:#666666;stroke:none;opacity:1"
     id="path193"
     d="M 118.297,136.918 C 118.297,155.397 133.331,170.431 151.81,170.431 C 170.29,170.431 185.324,155.397 185.324,136.918 C 185.324,118.438 170.291,103.404 151.81,103.404 C 133.331,103.404 118.297,118.438 118.297,136.918 z " /><path
     style="fill:url(#XMLID_4_);stroke:none;opacity:1"
     id="path200"
     d="M 117.261,135.648 C 117.261,153.998 132.19,168.926 150.541,168.926 C 168.891,168.926 183.819,153.997 183.819,135.648 C 183.819,117.297 168.89,102.368 150.541,102.368 C 132.19,102.368 117.261,117.298 117.261,135.648 z " /><path
     style="fill:#ffffff;stroke:none;opacity:1"
     id="path201"
     d="M 118.276,136.155 C 118.276,118.086 132.978,103.384 151.047,103.384 C 169.032,103.384 183.675,117.949 183.813,135.902 C 183.813,135.817 183.819,135.734 183.819,135.649 C 183.819,117.298 168.89,102.369 150.541,102.369 C 132.19,102.369 117.261,117.299 117.261,135.649 C 117.261,153.999 132.19,168.927 150.541,168.927 C 150.626,168.927 150.71,168.921 150.795,168.92 C 132.842,168.783 118.276,154.141 118.276,136.155 z " /><path
     style="fill:#999999;stroke:none;opacity:1"
     id="path202"
     d="M 121.77,135.648 C 121.77,151.511 134.677,164.418 150.541,164.418 C 166.405,164.418 179.311,151.512 179.311,135.648 C 179.311,119.783 166.406,106.877 150.541,106.877 C 134.676,106.877 121.77,119.784 121.77,135.648 z " /><path
     style="fill:url(#XMLID_5_);stroke:none;opacity:1"
     id="path212"
     d="M 123.272,135.648 C 123.272,150.683 135.504,162.915 150.541,162.915 C 165.575,162.915 177.808,150.684 177.808,135.648 C 177.808,120.612 165.576,108.38 150.541,108.38 C 135.505,108.38 123.272,120.613 123.272,135.648 z " /><path
     style="fill:#ffffff;stroke:none;opacity:1"
     id="path213"
     d="M 133.793,135.648 C 133.793,144.881 141.307,152.393 150.541,152.393 C 159.774,152.393 167.286,144.881 167.286,135.648 C 167.286,126.414 159.774,118.901 150.541,118.901 C 141.307,118.901 133.793,126.414 133.793,135.648 z " /><path
     style="stroke:none;opacity:1"
     id="path214"
     d="M 133.793,135.648 C 133.793,144.881 141.307,152.393 150.541,152.393 C 159.774,152.393 167.286,144.881 167.286,135.648 C 167.286,126.414 159.774,118.901 150.541,118.901 C 141.307,118.901 133.793,126.414 133.793,135.648 z " /><path
     style="opacity:1;fill:#ffffff;stroke:none"
     id="path215"
     d="M 150.541,64.793 C 150.368,64.793 150.197,64.805 150.024,64.806 C 188.294,65.085 219.343,96.751 219.343,135.648 C 219.343,174.544 188.293,206.209 150.024,206.489 C 150.197,206.49 150.368,206.502 150.541,206.502 C 189.61,206.502 221.395,174.718 221.395,135.648 C 221.395,96.579 189.61,64.793 150.541,64.793 z " /><path
     style="opacity:1;fill:#ffffff;stroke:none"
     id="path216"
     d="M 81.208,135.648 C 81.208,96.707 112.449,65.01 150.923,64.802 C 150.795,64.802 150.668,64.793 150.54,64.793 C 111.47,64.793 79.685,96.579 79.685,135.648 C 79.685,174.717 111.471,206.502 150.54,206.502 C 150.668,206.502 150.795,206.493 150.923,206.492 C 112.449,206.285 81.208,174.59 81.208,135.648 z " /><path
     style="fill:#999999;stroke:none;opacity:1"
     id="path217"
     d="M 176.935,68.278 L 176.935,78.567 C 176.935,80.341 178.373,81.78 180.147,81.78 L 198.839,81.78 C 192.458,76.056 185.053,71.461 176.935,68.278 z " /><path
     style="fill:#ffffff;stroke:none;opacity:1"
     id="path218"
     d="M 176.935,69.912 L 176.935,78.568 C 176.935,80.342 178.373,81.781 180.147,81.781 L 196.495,81.781 C 190.702,76.833 184.109,72.803 176.935,69.912 z " /><path
     style="fill:#4d4d4d;stroke:none;opacity:1"
     id="path219"
     d="M 179.981,77.549 C 179.981,79.209 181.327,80.555 182.987,80.555 L 221.151,80.555 C 222.811,80.555 224.157,79.209 224.157,77.549 L 224.157,65.788 C 224.157,64.128 222.811,62.782 221.151,62.782 L 182.987,62.782 C 181.327,62.782 179.981,64.128 179.981,65.788 L 179.981,77.549 L 179.981,77.549 z " /><path
     style="fill:#9db3d0;stroke:none;opacity:1"
     id="path220"
     d="M 182.987,64.285 C 182.158,64.285 181.484,64.959 181.484,65.788 L 181.484,77.549 C 181.484,78.378 182.158,79.052 182.987,79.052 L 221.151,79.052 C 221.98,79.052 222.654,78.378 222.654,77.549 L 222.654,65.788 C 222.654,64.959 221.98,64.285 221.151,64.285 L 182.987,64.285 z " /><path
     style="fill:#d2dde9;stroke:none;opacity:1"
     id="path221"
     d="M 182.988,65.788 C 182.988,65.79 182.987,77.549 182.987,77.549 L 221.151,77.549 L 221.151,65.788 C 221.151,65.788 182.993,65.788 182.988,65.788 z " /><path
     style="fill:url(#XMLID_6_);stroke:none;opacity:1"
     id="path228"
     d="M 182.988,64.285 C 182.988,64.286 182.987,71.428 182.987,74.574 C 196.153,72.3 208.01,67.056 221.151,67.28 L 221.151,64.286 C 221.151,64.285 182.993,64.285 182.988,64.285 z " /><path
     style="stroke:none;opacity:1"
     id="path229"
     d="M 105.847,73.953 C 105.847,80.964 111.531,86.647 118.541,86.647 C 125.552,86.647 131.236,80.964 131.236,73.953 C 131.236,66.942 125.552,61.259 118.541,61.259 C 111.53,61.259 105.847,66.942 105.847,73.953 z " /><path
     style="fill:#ffffff;stroke:none;opacity:1"
     id="path230"
     d="M 144.393,66.58 C 141.138,68.3 138.914,71.716 138.914,75.645 C 138.914,81.297 143.514,85.896 149.169,85.896 C 154.827,85.896 159.428,81.297 159.428,75.645 C 159.428,71.546 157.003,68.011 153.515,66.372 C 152.53,66.331 151.539,66.296 150.542,66.296 C 148.468,66.296 146.421,66.404 144.393,66.58 z " /><path
     style="stroke:none;opacity:1"
     id="path231"
     d="M 139.882,75.457 C 139.882,80.265 143.793,84.176 148.601,84.176 C 153.41,84.176 157.321,80.264 157.321,75.457 C 157.321,70.649 153.41,66.738 148.601,66.738 C 143.793,66.737 139.882,70.648 139.882,75.457 z " /><path
     style="fill:url(#XMLID_7_);stroke:none;opacity:1"
     id="path238"
     d="M 110.356,73.953 C 110.356,78.467 114.027,82.139 118.541,82.139 C 123.055,82.139 126.726,78.467 126.726,73.953 C 126.726,69.44 123.055,65.768 118.541,65.768 C 114.027,65.769 110.356,69.44 110.356,73.953 z " /><path
     style="fill:url(#XMLID_8_);stroke:none;opacity:1"
     id="path245"
     d="M 118.541,65.876 C 115.891,65.876 113.616,67.251 112.537,69.223 C 112.877,71.898 115.429,73.986 118.561,73.986 C 121.673,73.986 124.211,71.926 124.58,69.278 C 123.514,67.275 121.217,65.876 118.541,65.876 z " /><path
     style="fill:url(#XMLID_9_);stroke:none;opacity:1"
     id="path252"
     d="M 142.996,73.326 C 143.984,75.349 146.043,76.754 148.447,76.754 C 150.986,76.754 153.158,75.197 154.071,72.988 C 153.126,70.903 151.035,69.442 148.6,69.442 C 146.037,69.442 143.859,71.063 142.996,73.326 z " /></svg>