<?xml version="1.0" encoding="UTF-8" standalone="no"?>
<!-- Created with Sodipodi ("http://www.sodipodi.com/") -->
<svg
   xmlns:a="http://ns.adobe.com/AdobeSVGViewerExtensions/3.0/"
   xmlns:xapMM="http://ns.adobe.com/xap/1.0/mm/"
   xmlns:xapGImg="http://ns.adobe.com/xap/1.0/g/img/"
   xmlns:xap="http://ns.adobe.com/xap/1.0/"
   xmlns:x="adobe:ns:meta/"
   xmlns:dc="http://purl.org/dc/elements/1.1/"
   xmlns:cc="http://web.resource.org/cc/"
   xmlns:rdf="http://www.w3.org/1999/02/22-rdf-syntax-ns#"
   xmlns:svg="http://www.w3.org/2000/svg"
   xmlns="http://www.w3.org/2000/svg"
   xmlns:xlink="http://www.w3.org/1999/xlink"
   xmlns:sodipodi="http://sodipodi.sourceforge.net/DTD/sodipodi-0.dtd"
   xmlns:inkscape="http://www.inkscape.org/namespaces/inkscape"
   width="48pt"
   height="48pt"
   viewBox="0 0 48 48"
   style="overflow:visible;enable-background:new 0 0 48 48"
   xml:space="preserve"
   id="svg1057"
   sodipodi:version="0.32"
   sodipodi:docname="printer.svg"
   sodipodi:docbase="C:\Users\schroede.silverwhite\Documents\localcvs\yfiles-flex\flex\CanvasFlex\src\demo\resources\svg"
   inkscape:version="0.45.1"
   inkscape:output_extension="org.inkscape.output.svg.inkscape">
  <defs
   id="defs1199"><linearGradient
   inkscape:collect="always"
   id="linearGradient11056"><stop
     style="stop-color:#ffffff;stop-opacity:1;"
     offset="0"
     id="stop11058" /><stop
     style="stop-color:#ffffff;stop-opacity:0;"
     offset="1"
     id="stop11060" /></linearGradient>
    
    
    <linearGradient
   y2="14.3296"
   x2="23.7007"
   y1="41.6758"
   x1="23.7007"
   gradientUnits="userSpaceOnUse"
   id="XMLID_15_">
      <stop
   id="stop1063"
   style="stop-color:#616161"
   offset="0" />
      <stop
   id="stop1064"
   style="stop-color:#555555"
   offset="0.5225" />
      <stop
   id="stop1065"
   style="stop-color:#494949"
   offset="1" />
      <a:midPointStop
   id="midPointStop1066"
   style="stop-color:#616161"
   offset="0" />
      <a:midPointStop
   id="midPointStop1067"
   style="stop-color:#616161"
   offset="0.5" />
      <a:midPointStop
   id="midPointStop1068"
   style="stop-color:#555555"
   offset="0.5225" />
      <a:midPointStop
   id="midPointStop1069"
   style="stop-color:#555555"
   offset="0.5" />
      <a:midPointStop
   id="midPointStop1070"
   style="stop-color:#494949"
   offset="1" />
    </linearGradient>
    
    <linearGradient
   y2="29.8945"
   x2="23.7007"
   y1="40.5029"
   x1="23.7007"
   gradientUnits="userSpaceOnUse"
   id="XMLID_16_">
      <stop
   id="stop1073"
   style="stop-color:#CECEDB"
   offset="0" />
      <stop
   id="stop1074"
   style="stop-color:#E9E9EF"
   offset="0.1854" />
      <stop
   id="stop1075"
   style="stop-color:#CECEDB"
   offset="0.5225" />
      <stop
   id="stop1076"
   style="stop-color:#B1B1C5"
   offset="1" />
      <a:midPointStop
   id="midPointStop1077"
   style="stop-color:#CECEDB"
   offset="0" />
      <a:midPointStop
   id="midPointStop1078"
   style="stop-color:#CECEDB"
   offset="0.5" />
      <a:midPointStop
   id="midPointStop1079"
   style="stop-color:#E9E9EF"
   offset="0.1854" />
      <a:midPointStop
   id="midPointStop1080"
   style="stop-color:#E9E9EF"
   offset="0.5" />
      <a:midPointStop
   id="midPointStop1081"
   style="stop-color:#CECEDB"
   offset="0.5225" />
      <a:midPointStop
   id="midPointStop1082"
   style="stop-color:#CECEDB"
   offset="0.5" />
      <a:midPointStop
   id="midPointStop1083"
   style="stop-color:#B1B1C5"
   offset="1" />
    </linearGradient>
    
    <linearGradient
   y2="1.5501"
   x2="23.7017"
   y1="32.0684"
   x1="23.7017"
   gradientUnits="userSpaceOnUse"
   id="XMLID_17_">
      <stop
   id="stop1086"
   style="stop-color:#F7F7F7"
   offset="0" />
      <stop
   id="stop1087"
   style="stop-color:#F3F3F4"
   offset="0.2346" />
      <stop
   id="stop1088"
   style="stop-color:#E6E6EB"
   offset="0.4771" />
      <stop
   id="stop1089"
   style="stop-color:#D2D2DC"
   offset="0.723" />
      <stop
   id="stop1090"
   style="stop-color:#B5B5C8"
   offset="0.9701" />
      <stop
   id="stop1091"
   style="stop-color:#B1B1C5"
   offset="1" />
      <a:midPointStop
   id="midPointStop1092"
   style="stop-color:#F7F7F7"
   offset="0" />
      <a:midPointStop
   id="midPointStop1093"
   style="stop-color:#F7F7F7"
   offset="0.7006" />
      <a:midPointStop
   id="midPointStop1094"
   style="stop-color:#B1B1C5"
   offset="1" />
    </linearGradient>
    
    <linearGradient
   y2="2.1292"
   x2="23.7017"
   y1="31.458"
   x1="23.7017"
   gradientUnits="userSpaceOnUse"
   id="XMLID_18_">
      <stop
   id="stop1097"
   style="stop-color:#F7F7F7"
   offset="0" />
      <stop
   id="stop1098"
   style="stop-color:#BDBDCF"
   offset="0.5056" />
      <stop
   id="stop1099"
   style="stop-color:#B1B1C5"
   offset="1" />
      <a:midPointStop
   id="midPointStop1100"
   style="stop-color:#F7F7F7"
   offset="0" />
      <a:midPointStop
   id="midPointStop1101"
   style="stop-color:#F7F7F7"
   offset="0.5085" />
      <a:midPointStop
   id="midPointStop1102"
   style="stop-color:#BDBDCF"
   offset="0.5056" />
      <a:midPointStop
   id="midPointStop1103"
   style="stop-color:#BDBDCF"
   offset="0.5" />
      <a:midPointStop
   id="midPointStop1104"
   style="stop-color:#B1B1C5"
   offset="1" />
    </linearGradient>
    
    
    <linearGradient
   y2="50.1548"
   x2="31.8184"
   y1="39.3223"
   x1="20.9858"
   gradientUnits="userSpaceOnUse"
   id="XMLID_19_">
      <stop
   id="stop1108"
   style="stop-color:#9A9AB1"
   offset="0" />
      <stop
   id="stop1109"
   style="stop-color:#585868"
   offset="1" />
      <a:midPointStop
   id="midPointStop1110"
   style="stop-color:#9A9AB1"
   offset="0" />
      <a:midPointStop
   id="midPointStop1111"
   style="stop-color:#9A9AB1"
   offset="0.5" />
      <a:midPointStop
   id="midPointStop1112"
   style="stop-color:#585868"
   offset="1" />
    </linearGradient>
    
    <linearGradient
   y2="37.1494"
   x2="23.7017"
   y1="31.9609"
   x1="23.7017"
   gradientUnits="userSpaceOnUse"
   id="XMLID_20_">
      <stop
   id="stop1115"
   style="stop-color:#B2B2B2"
   offset="0" />
      <stop
   id="stop1116"
   style="stop-color:#828282"
   offset="1" />
      <a:midPointStop
   id="midPointStop1117"
   style="stop-color:#B2B2B2"
   offset="0" />
      <a:midPointStop
   id="midPointStop1118"
   style="stop-color:#B2B2B2"
   offset="0.5" />
      <a:midPointStop
   id="midPointStop1119"
   style="stop-color:#828282"
   offset="1" />
    </linearGradient>
    
    <linearGradient
   y2="32.7383"
   x2="23.6978"
   y1="37.0439"
   x1="23.6978"
   gradientUnits="userSpaceOnUse"
   id="XMLID_21_">
      <stop
   id="stop1122"
   style="stop-color:#666666"
   offset="0" />
      <stop
   id="stop1123"
   style="stop-color:#333333"
   offset="1" />
      <a:midPointStop
   id="midPointStop1124"
   style="stop-color:#666666"
   offset="0" />
      <a:midPointStop
   id="midPointStop1125"
   style="stop-color:#666666"
   offset="0.5" />
      <a:midPointStop
   id="midPointStop1126"
   style="stop-color:#333333"
   offset="1" />
    </linearGradient>
    
    
    
    
    
    
    <linearGradient
   y2="15.8262"
   x2="23.6792"
   y1="30.6543"
   x1="23.6792"
   gradientUnits="userSpaceOnUse"
   id="XMLID_24_">
      <stop
   id="stop1149"
   style="stop-color:#949494"
   offset="0" />
      <stop
   id="stop1150"
   style="stop-color:#616161"
   offset="1" />
      <a:midPointStop
   id="midPointStop1151"
   style="stop-color:#949494"
   offset="0" />
      <a:midPointStop
   id="midPointStop1152"
   style="stop-color:#949494"
   offset="0.5" />
      <a:midPointStop
   id="midPointStop1153"
   style="stop-color:#616161"
   offset="1" />
    </linearGradient>
    
    <linearGradient
   y2="19.9082"
   x2="23.7007"
   y1="4.5127"
   x1="23.7007"
   gradientUnits="userSpaceOnUse"
   id="XMLID_25_">
      <stop
   id="stop1156"
   style="stop-color:#9A9AB1"
   offset="0" />
      <stop
   id="stop1157"
   style="stop-color:#585868"
   offset="1" />
      <a:midPointStop
   id="midPointStop1158"
   style="stop-color:#9A9AB1"
   offset="0" />
      <a:midPointStop
   id="midPointStop1159"
   style="stop-color:#9A9AB1"
   offset="0.5" />
      <a:midPointStop
   id="midPointStop1160"
   style="stop-color:#585868"
   offset="1" />
    </linearGradient>
    
    
    <linearGradient
   y2="22.1956"
   x2="32.3355"
   y1="2.5386"
   x1="12.6787"
   gradientUnits="userSpaceOnUse"
   id="XMLID_26_">
      <stop
   id="stop1164"
   style="stop-color:#FFFFFF"
   offset="0.3202" />
      <stop
   id="stop1165"
   style="stop-color:#E6EEF6"
   offset="0.6236" />
      <stop
   id="stop1166"
   style="stop-color:#CECEDB"
   offset="0.9382" />
      <a:midPointStop
   id="midPointStop1167"
   style="stop-color:#FFFFFF"
   offset="0.3202" />
      <a:midPointStop
   id="midPointStop1168"
   style="stop-color:#FFFFFF"
   offset="0.5" />
      <a:midPointStop
   id="midPointStop1169"
   style="stop-color:#E6EEF6"
   offset="0.6236" />
      <a:midPointStop
   id="midPointStop1170"
   style="stop-color:#E6EEF6"
   offset="0.5" />
      <a:midPointStop
   id="midPointStop1171"
   style="stop-color:#CECEDB"
   offset="0.9382" />
    </linearGradient>
    
    
    <linearGradient
   y2="53.5806"
   x2="35.7899"
   y1="32.291"
   x1="14.5005"
   gradientUnits="userSpaceOnUse"
   id="XMLID_27_">
      <stop
   id="stop1175"
   style="stop-color:#FFFFFF"
   offset="0" />
      <stop
   id="stop1176"
   style="stop-color:#CECEDB"
   offset="1" />
      <a:midPointStop
   id="midPointStop1177"
   style="stop-color:#FFFFFF"
   offset="0" />
      <a:midPointStop
   id="midPointStop1178"
   style="stop-color:#FFFFFF"
   offset="0.5" />
      <a:midPointStop
   id="midPointStop1179"
   style="stop-color:#CECEDB"
   offset="1" />
    </linearGradient>
    
    
    <linearGradient
   y2="28.9786"
   x2="23.6792"
   y1="19.6987"
   x1="23.6792"
   gradientUnits="userSpaceOnUse"
   id="XMLID_28_">
      <stop
   id="stop1183"
   style="stop-color:#F7F7F7"
   offset="0" />
      <stop
   id="stop1184"
   style="stop-color:#E5F0F8"
   offset="0.0425" />
      <stop
   id="stop1185"
   style="stop-color:#6BC2FC"
   offset="0.3388" />
      <stop
   id="stop1186"
   style="stop-color:#1EA4FE"
   offset="0.5419" />
      <stop
   id="stop1187"
   style="stop-color:#0099FF"
   offset="0.6348" />
      <stop
   id="stop1188"
   style="stop-color:#006DFF"
   offset="1" />
      <a:midPointStop
   id="midPointStop1189"
   style="stop-color:#F7F7F7"
   offset="0" />
      <a:midPointStop
   id="midPointStop1190"
   style="stop-color:#F7F7F7"
   offset="0.4689" />
      <a:midPointStop
   id="midPointStop1191"
   style="stop-color:#0099FF"
   offset="0.6348" />
      <a:midPointStop
   id="midPointStop1192"
   style="stop-color:#0099FF"
   offset="0.5" />
      <a:midPointStop
   id="midPointStop1193"
   style="stop-color:#006DFF"
   offset="1" />
    </linearGradient>
    
    
    
    
  <linearGradient
   inkscape:collect="always"
   xlink:href="#linearGradient11056"
   id="linearGradient11062"
   x1="11.828"
   y1="24.583553"
   x2="33.92"
   y2="24.583553"
   gradientUnits="userSpaceOnUse" /></defs>
  <sodipodi:namedview
   id="base"
   inkscape:zoom="10.266667"
   inkscape:cx="30"
   inkscape:cy="30"
   inkscape:window-width="1350"
   inkscape:window-height="814"
   inkscape:window-x="207"
   inkscape:window-y="207"
   inkscape:current-layer="svg1057" />
  <metadata
   id="metadata1058">
    
    <x:xmpmeta
   x:xmptk="XMP toolkit 3.0-29, framework 1.6">
      
    <metadata
   id="metadata2249"><rdf:RDF>
        <rdf:Description
   rdf:about="uuid:bcb648b3-15a3-41a4-815d-774960d2ac54" />
        <rdf:Description
   rdf:about="uuid:bcb648b3-15a3-41a4-815d-774960d2ac54" />
        <rdf:Description
   rdf:about="uuid:bcb648b3-15a3-41a4-815d-774960d2ac54">
          <xap:CreateDate>
2003-06-11T12:03:38Z</xap:CreateDate>
          <xap:ModifyDate>
2004-03-29T09:19:38Z</xap:ModifyDate>
          <xap:CreatorTool>
Adobe Illustrator 10.0</xap:CreatorTool>
          <xap:MetadataDate>
2004-02-14T13:06:31+01:00</xap:MetadataDate>
          <xap:Thumbnails>
            <rdf:Alt>
              <rdf:li
   rdf:parseType="Resource">
                <xapGImg:format>
JPEG</xapGImg:format>
                <xapGImg:width>
256</xapGImg:width>
                <xapGImg:height>
256</xapGImg:height>
                <xapGImg:image>
/9j/4AAQSkZJRgABAgEASABIAAD/7QAsUGhvdG9zaG9wIDMuMAA4QklNA+0AAAAAABAASAAAAAEA
AQBIAAAAAQAB/+4ADkFkb2JlAGTAAAAAAf/bAIQABgQEBAUEBgUFBgkGBQYJCwgGBggLDAoKCwoK
DBAMDAwMDAwQDA4PEA8ODBMTFBQTExwbGxscHx8fHx8fHx8fHwEHBwcNDA0YEBAYGhURFRofHx8f
Hx8fHx8fHx8fHx8fHx8fHx8fHx8fHx8fHx8fHx8fHx8fHx8fHx8fHx8fHx8f/8AAEQgBAAEAAwER
AAIRAQMRAf/EAaIAAAAHAQEBAQEAAAAAAAAAAAQFAwIGAQAHCAkKCwEAAgIDAQEBAQEAAAAAAAAA
AQACAwQFBgcICQoLEAACAQMDAgQCBgcDBAIGAnMBAgMRBAAFIRIxQVEGE2EicYEUMpGhBxWxQiPB
UtHhMxZi8CRygvElQzRTkqKyY3PCNUQnk6OzNhdUZHTD0uIIJoMJChgZhJRFRqS0VtNVKBry4/PE
1OT0ZXWFlaW1xdXl9WZ2hpamtsbW5vY3R1dnd4eXp7fH1+f3OEhYaHiImKi4yNjo+Ck5SVlpeYmZ
qbnJ2en5KjpKWmp6ipqqusra6voRAAICAQIDBQUEBQYECAMDbQEAAhEDBCESMUEFURNhIgZxgZEy
obHwFMHR4SNCFVJicvEzJDRDghaSUyWiY7LCB3PSNeJEgxdUkwgJChgZJjZFGidkdFU38qOzwygp
0+PzhJSktMTU5PRldYWVpbXF1eX1RlZmdoaWprbG1ub2R1dnd4eXp7fH1+f3OEhYaHiImKi4yNjo
+DlJWWl5iZmpucnZ6fkqOkpaanqKmqq6ytrq+v/aAAwDAQACEQMRAD8A9U4q7FXYq7FXYq7FXYq7
FXYq7FXYq7FXYq7FXYq7FXYq7FXYq7FXYq7FXYq7FXYq7FXYq7FXYq7FXYq7FXYq7FXYq7FXYq7F
XYq7FXYq8vGjzeZ/N2rW91dvGLV5REacwFST01UAkU2zI4uGIQmf/KqLf/q5P/yKH/NWR8byWnf8
qot/+rk//Iof81Y+N5LTv+VUW/8A1cn/AORQ/wCasfG8lp3/ACqi3/6uT/8AIof81Y+N5LTv+VUW
/wD1cn/5FD/mrHxvJad/yqi3/wCrk/8AyKH/ADVj43ktO/5VRb/9XJ/+RQ/5qx8byWnf8qot/wDq
5P8A8ih/zVj43ktO/wCVUW//AFcn/wCRQ/5qx8byWnf8qot/+rk//Iof81Y+N5LTv+VUW/8A1cn/
AORQ/wCasfG8lp3/ACqi3/6uT/8AIof81Y+N5LSA/LvzHdw3I0uUmW1kI9KpJMbEhaL/AJJr0xzD
dQ9MylLsVdirsVdirsVdirsVdirsVdirsVdirsVdirsVdirsVYF5N/5TjXv9ef8A6iMun9IQGe5S
l2KuxV2KuxV2KtE4q0Xw0haZT4Y0trTOfDDS2tNyfAY8KLRA6ZFk8c8j/wDHft/9ZP8Aia5dm6ID
2PKUuxV2KuxV2KuxV2KuxV2KuxV2KuxV2KuxV2KuxV2KuxVgHkxq+etfHg9x/wBRGXT+kIDP8pS7
FXYq7FXYq0TiqwnChYThQsJwqsJxQsJwoTAdBlbY8a8itXX4P9ZP+Jrl2bogPZcpS7FXYq7FXYq7
FXYq7FXYq7FXYq7FXYq7FXYq7FXYq7FXnnkhq+ffMI8HuP8AqIy6f0hAeh5Sl2KuxV2KtE4qsJwo
WE4ULCcKrCcULCcKFhOFUzHQZU2PFvy/auvQ/wCun/Exl2ZAe05Sl2KuxV2KuxV2KuxV2KuxV2Ku
xV2KuxV2KuxV2KuxV2KvOPIrV/MHzGPB7j/qJy6f0hAej5Sl2KuxVonFVhOFCwnChYThVYTihYTh
QsJwqsJwoTZfsj5ZS2vEvy5auvRf66f8TGXZUB7blKXYq7FXYq7FXYq7FXYq7FXYq7FXYq7FXYq7
FXYq7FXYq808hNX8xfMo8Huf+orLp/SEPS8pS7FWicVWE4ULCcKFhOFVhOKFhOFCwnCqwnChTZsV
Tlfsj5ZS2vD/AMs2rrsf+vH/AMTGXZUB7jlKXYq7FXYq7FXYq7FXYq7FXYq7FXYq7FXYq7FXYq7F
XYq8w/L5q/mT5nHhJc/9RWWz+kIen5UlonFVhOFCwnChYThVYTihYThQsJwqsJwoU2bFVNmxSnq/
ZHyylseF/lc1ddT/AF4/+JjLcqA91ypLsVdirsVdirsVdirsVdirsVdirsVdirsVdirsVdirsVeW
fl21fzM80jwkuv8AqLy2f0hD1InKkrCcKFhOFCwnCqwnFCwnChYThVYThQps2KqbNilTZsVZCv2R
8hlLY8H/ACoauuD/AF4/+JjLcqA95ypLsVdirsVdirsVdirsVdirsVdirsVdirsVdirsVdiqVa35
r8taEF/TGp21iziqJNIquw8VT7RHyGKvN/ysvba9/MXzLd2sgmtrj6xNBKvRo3ugysPYg5bP6Qh6
252ysJUicLFYThVYTihYThQsJwqsJwoU2bFVNmxSps2KqTNilkyfYX5DKWb5z/LnzFouk6yj6peR
2iO8ZV5TxWgYV36bZblQH0RaXdpeW0dzaTR3FtKOUU8TB0YeKspIOVJVcVdirsVdirsVdirsVdir
sVdirsVdirsVU7i6traIy3MyQRDrJIwRfvagxVjeofmh+XthUXGv2ZK7MsMnrkEdqQ+ocVY1qf8A
zkL+XttDIbOa4vpgrekI4HRWah41MvpkCvtirxDyz5d1X8xfMWp3uqaotqsMUl9qeozKZAiA9FQF
dh2FQAoxV6b+Rdtb2nmzVrO2uBd29tbNFDdqvESpHMqrIFq1OYFaVy2f0hD2yU7DKwpUCckhYTih
YThQsJwqsJwoU2bFVNmxSps2KqTNilSZsVZWn2F+Qylm+VvLnkC285yS2qaxHp+qxKfqVnLEXFx8
JZvjDDgF4b/C2W5UBZ+VX5mXfkjVJ7PUfVk0aYkXNolGMcymnNASADtRt9/oypL26y/PX8srogNq
jWznos8Ey/8ADKjL+OKsl03zr5Q1OgsNasrh2pSNJ4+e/ihPIfdiqdYq7FXYq7FXYq7FXYq7FVG8
vLSytZLu8mS3tYV5SzysERVHdmagGKvIvNf/ADkhodk72/l2zbU5V2+tzEwwV8VWnqP/AMLirzy4
/ND84PNUjx6bLcJETRotLhKKhPjKoaRfpfFVKL8ofzJ1mRp9SZYpe0l/cmR2r7x+ufvw8Kp9Zf8A
OPUh4Ne60B/PHDAT9zs4/wCI4eFU9tfyF8nROGmuL25p1RpEVD/wEat/w2HhQmms+V/Lvk78vvMM
+j2xt5tQSG0kZpJHLhn40+Nmp8MjHbBIJSL/AJx8P/Oy6iPCy/5mpk5/SEPdJz8IysKUOTkmKwnC
hYThVYThQps2KqbNilTZsVUmbFKkzYqps2KsvT7C/IZSzfK35d6gbLzxotxWg+tJEx6UWf8AdN+D
5bkQHqmufk55Fu9Qu5WspIZp5XkeSKaUfE7ciQGZlHXwyIASxu7/AOcfvLrRkWmpXkMnZpRFKv8A
wKrF+vHhVIL/AP5x91qMA2GqW9x4idHg+7j62DhVK08r/nF5VJfTzfRwxmgNhMZUYf8AGFGJI/1k
wUqb6J/zkJ560mf6trlvFqSxnjKkqfVrgU7ckAUfTGcCvYfJP5ueUPNjJbW8xs9UYf8AHPuaK7Ed
fTYfDJ9Br7YqzXFXYq7FXYq0zKqlmICgVJOwAGKvl/8AMnzxrH5geaY9D0XnJpSTelYWybCZxUGd
/bqRX7K77b4qzryl+S/lvSYo5tVRdV1CgL+qK26nuEjP2vm9fkMmAr0CKCKGNYokWONBREQBVAHY
AYULuOKu44q7jirC/wA6br0fJ+n2YNGu7syN7rEjCn3suQkli35CX9na+aNTa6uI4E+qFQ0rqgJ9
VNqsRlxxyIFAsDOI5l7LfecfKUKn1dbsI+Bo/K6hWh6b1bJQ0uU8oy+Ra5ajGP4h80rm/MPyJHTl
5h0416cbmJ/+IsctGhzn+CXyLWdVi/nR+aFl/NH8vo24tr1oT1+F+Q+9QRlg7Ozn+AsDrcX84Ieb
82fy7jALa5AQdvhDsfuVTkh2ZqD/AAFB12H+cFA/m/8Alz/1eo/+Rc3/ADRkv5L1H837mP5/D/OW
H83fy6/6vUf/ACLm/wCaMf5L1H837k/n8P8AOWN+bf5ef9XmP/kXN/zRg/kvUfzfuX8/h/nfept+
bP5e/wDV5j/5Fzf80Yf5L1H837k/n8P87713/KzvIbKCNat6EVFSwP3EZH+TdR/MLL89h/nBtfzE
8kSKSut2lOnxSBT9zUyJ7Pzj+CSRrMP84Lx518oOAV1uw+LoDcxA/cWrkTosw/gl8izGqxfzo/MM
5tvNHlmVAItXspCoHILcRNT50bMU6fIOcZfItgzQP8Q+b5L024eOZZ4yOcLq6H3U1H6scoI5s4kH
k+rLx0neO5T7FxGkq/JhtkIskPxwodxxV3HFUu1ny3oWtQ+jqljFdrQhWkUc1r/I4oy/7E4q8X/M
X8o5dAgbW9BkklsITzngY1lgFdnVhQsg+9eu+5ESEvSfyU/NKXzHZnRdYk5azZrWO4brcRDarf5a
9D49etcir1XFXYq7FXnn55+aX0PyPNb278LzVm+pxEdRGwJmb/gBx/2WKsH/ACF8qLDp9x5kuErN
dE29kT+zEhpIw/1nHH/Y++Sir1rjkkO44q7jiruOKu44q8w/PW6X6/o9kTQW1q87e3rNxP8AyZyA
BJoKTQTbRvyU8gNptpLqmnvcag8SPeObidAZmUF6KjrQciaZuD2lnh6YSqI2Gw5B1Y0eKXqkPUee
5TaH8ovywhXimhREVr8cs7n73kY5A9pak/x/d+pmNHgH8P3o2P8ALr8u425L5fsif8qJWH3NUZUd
bqD/ABy+bMabD/NCunkbyChqPLumk9PitYWH3FTkTq8/8+XzLIYMX82PyC//AAX5D/6lzS/+kK3/
AOaMH5rP/Pn/AKYp8HF/Nj8giR5f8rAUGj2IA6D6tD/zTkPFy/zpfMsuDH/NHyb/AEB5W/6s9j/0
jQ/804+Ll/nS+ZXgx/zR8nfoDyt/1Z7H/pGh/wCacfFy/wA6XzK8GP8Amj5LJfLPlCZOE2iafInX
i9rAwr8iuEZ8o5Tl8yg48Z5xj8gof4L8h/8AUuaX/wBIVv8A80ZL81n/AJ8/9MUeDi/mx+QUj5D/
AC/JJ/w7p2/hbRD/AI1yX5vP/Pl8yjwMP82PyQ0n5ZflxIhRtAtAD3VSp+9SDkxr9QP4ywOlw/zQ
gp/yc/K6ZuTaIqmlBwnuUH3LIBlg7U1I/j+wfqYHRYD/AA/aWAfmV+X/AJf8siwuNCt2t7a5Mkd0
rSPJ+8Xi0dOZY7rz+7KdVqcmaFzNmJ+/+xu0+GGOVR2B/Q9I0m9mufJvl+6RyK2ogcg9WgpHv/wJ
zCg5hXi5uv8AfjZOlbF5dj/dh+4f0xpVwv7sftA/MDGlXjUrgdVU/Qf64KVc9+ssbxTQLJFICrod
1KkUIIINQRjwq+d9Qin8j/mCJbTkkFrMJrbc1a2k/Zr3opK18RlRFJfWGj6jFqWm295GQyyoGqOl
aYFRmKuxV84/85G6u955vstJjJZNPtgSg3/fXDcjQe6KmKvYPLujx6PoNhpcYFLSBImIFAzhfjb/
AGTVOTVMaYodTFXUxV1MVXKnJgviaYq8h/MVRq35niypyiWS1tWH/FdFeX7g7ZbpY3kHlv8ALdp1
Mqgfl83p/wBc98yvDcLxHfXPfHw18R31z3x8NfEd9c98fDXxHfXPfHw18R31z3x8NfEcbwAVJoMf
DR4qi+s2qdZQT4Df9WTGnkejA6mI6qDeYYB9kM33DJjSFgdWFJvMTfsqB8zX+mS/KMTrFh1+Y9wP
lkvyoY/mytOuzn/dn6sP5YI/NHva/Tc3+/Dj+WHcv5k97F/zEne/8uksxc200cyr16kxH7lkJyOT
T+iXu+7f9DZg1H7yPv8Av2Tr8u5vrP5exR9TY3kkVPAP+8/XJmmhzd4m3D2yxClczQ21tLcznhDA
jSSueyoOTH7hhQTQtj76zZyaJ+kL2Z/Xu1521hbyNEIIz9gyyRlXaUjcjlxHSnfMeeU3UXVanXVG
wd/uXeRL3Ub/AEV57xmkT6xKtnM/2ngUgKSe9G5CvemXuZoskp4wZc2R8PbFynlX55aQPR03VlUA
qzWkzdzyHqRj6OL/AH5CavQ/yI1s33lOK2dqvbgpT/jGeP8AxHjkEvTMVdir5f1Tnr/57SLQOo1Z
UYHcGOyIVuv+RBiFfQ/HJq7jiruOKu44q7jiq+2KfWo0qORNQO+2+Aq8XsZBf/mXfXxNVimup4z7
BjCo/wCBkzP7PhfEfKvn/Y6/tDJQA8/x97Ovrfvmf4bq/Ed9b98fDXxHfW/fHw18Ro3gAqTQDqTj
4a+KgbjzLZRVCv6reCdPv6ZfDRyPk489dAeaXTearh9o6Rj7z95zIjogObjy15PLZByaxLIavIW+
Zrlo04HINJ1JPMrf0n75LwUeO79J++Pgr47v0n74+Cvju/Sfvj4K+O79J++Pgr47v0n74+CvjoXU
7k3enXNsDvNE6KfAlSAfvx8DvTHU0bTz8nLkT6HrVoOimC4T/ZBgf+IDOMMTGVHo9xGQIsMt4ZJK
ld2UN3azWs684LhGilXxRwVYfccbQRYpjsP5e6aESG4uri6tY6Bbd2RQVHQOyKrN9/zyIiAbcL+T
8d2d2SxW0UMSRRIscUYCoigBVUCgAA6AZJzgF3DFWI/mtp/1nyNqBCc5LcxzJQVI4yKGP0IWwS5K
kH/OO2olLq6sydvUDUr2kXj+tcrS+gMVdir5f/KhX1P81xfg1CteXbnrUSK6frlGEK+i+OFXccVd
xxVa7IgqxpiqDluZG2T4V/HCh1pILYXN424toJJTX/JFcZJeN+TOSz31yxqT6cYJ68t3f7+S5u+z
cX7q+8/d+C8/2pl/eAdw+9lP1s+OZ/hut8Ro3lASTQDqcfDXxEmv/OFrBVLf99IP2v2B9Pf6MzMX
Z8pbnYOFl7RjHaO5SG68w3d0f3spK9kGyj6BmfDSRjyDr8mslLmUP+kj45Z4LX47v0kfHHwV8d36
SPjj4K+O79JHxx8FfHd+kj44+Cvju/SR8cfBXx3fpI+OPgr47v0kfHHwV8d36SPjj4K+O79JHxx8
FfHZb+Sk4GuXtp0S4tZo0X3jkHH/AISucH2pi8PUTHnfz3fROy83iaeEvL7tno3DMNzncMVdwxV3
DFXcMVSnzbatP5V1iJV5u9lcBF8W9JuP44lXkH5H3Rg8zyLWnJEf/gHr/HK0vqDFVK8kaK0nlU8W
SNmDeBCk13xV82/84/Kp863Veo0+Ur8/Wh/hhCvoWmFXUxVTmlEYoN27DFUE/JzVjU4UNcMKoLzJ
N9V8oa1N05QeiP8AnsfT/wCN8jJLyvy2oTTi/QzSyOf9ifTH/CoM6zSY+HDEeX37/peR1suLNI+f
3bIy/wBVtbGH1Z3pX7KDdmPgBmbiwSmaDg5ckYCyw7VPMV3fMVr6dv2iU/8AEj3zb4dJGHmXT588
snkEu9f3zI4XG4Xev748K8LvX98eFeF3r++PCvC71/fHhXhd6/vjwrwu9f3x4V4Xev748K8LvX98
eFeF3r++PCvC71/fHhXhd6/vjwrwsw/KS99Dzra77SSFW+UsRRR/wS1ziPaXDw54y/nR+57v2ayX
pzH+bL73tUsXGV18GI+45z70KzhhV3DFXcMVdwxVZNEGhkDfZ4nkfAU3wK+dvylk4ebV3oWgcD51
XIJfV6nkoPiK4qgtd/44eo/8w03/ACbOKvl78qbie38yTTQO0ci2r8WU0P8AeR5ZjFlBe56f51da
Jfxcx/v6PZvpXp92SOPuW2RWeqWF6lbWZZHp/dk0b/gTvlZBCWniepLA1PfG1W+nhV3p4qxv8zrp
bTyS4Y0E9wgb/VRTIf8AiGMYmUgB1YylQJPR5hPqkOi6PbpL8U6xqiR92cKORPtXrnf4NMckqHIP
E5svALPMsMvNTuLydpp35OengB4AZvceEQFB02QmZsqHrZPhYcDvWx4V4HetjwrwO9bHhXgd62PC
vA71seFeB3rY8K8DvWx4V4HetjwrwO9bHhXgd62PCvA71seFeB3rY8K8Ce+Rr/6t5ospq0CSRyE/
8Y5VNPuY5yvtVh/dQn3Sr5/2PS+zc6nKPeL+X9r6XvIqXL+5r94ziQ9eoenhV3pnFV4t3oSfhUbl
jsMFqll5r+j2lR6n1qUfsRbr9LdPuyQgShjmr+aNSuraaOIi1hKN8EWzHbu/X7ssEAFt43+V3/KW
Rf8AGNv1jMdL6xtyTBGT1KKT92KqGqxCXS7yImgkgkUnwqhGKvlb8s2C6/MD+1bOB/waH+GWYuaC
9Oy9DYJBBBoR0IxVNLPzPrFqAom9aMfsS/H+P2vxyJgCm06tfOlm9Bd2zRn+eIhh9xpkDjPRbTW2
1fRrmnpXaBj+y/wH/hqZAxISx/8AM/RNT1bQraKwha5jgMklxHGQXYEAAIv7VQWzI0RAzwJIA4hz
cfVAnFIDuLwPXdP80G6kudS026tqmgEsMiKq9gOSjxz1DTZsHCBCcT7iHhM+HLdyjIfApNyOZtOL
TuRxpadyONLTuRxpadyONLTuRxpadyONLTuRxpadyONLTuRxpadyONLTuRxpadyONLS+KOeZwkKN
I56KgLH7hkZSjEWTTKMCeQZT5S8k+bbzV7cppd1HF8R9eWJ4ovsHq7gLnNe0Wqwz00oicTKxtYvm
7vsbT5I5xIxkI0d68n0rcSxIkcl1KkLFF9QuwUcqb0rTPPw9gldz5l0O3qBK1ww/ZjG33mg/HJiB
RaUXXnW4NVs7dIR/O/xt/AfryYx962kl5qeoXhrcztIP5SaL/wACKDJiICELhVTuSFtpWJoAjEn6
MSrzf8rIy3mtCP2YmP8AwyjMRk+rrcEQRg9Qqj8MVXOiujIwqrAhh4g4q+Tfy7VovNJhanL0pUb5
rQ7f8Dk8fNBeqenmQh3p4q708Vd6eKu9PFVaCe7tzWCZ4j/kMV/VgICpjB5m1uLb1/UHg6g/jQH8
ciYBNqs2v293/wAdLSrW88eaA/8AEw/hk4SnD6ZEfFhLHGXMAoSay/Ly7H+leWrePxMEUaHrXqnp
Zkx7Q1UeWSXzLjy0OA84R+SHbyV+Uc430t4T/MJLkfgJGGZEe3NbH+P7I/qaZdk6Y/wfaf1oZvyr
/KuYjhc3MW3QSkf8TjOWj2j1o6g/ANR7E0x6H5qTfkx+XL09PV7pK/zTQfxjGWj2o1Y6Q+R/W1ns
HB3y+f7Fg/I3yUxPDXJyPD1IDT7lyX+irVfzYfKX/FMf9D+Dvn8x+pY35E+U+R469KF7AmEn79sm
PavUdYQ+39aD7P4f50vs/UuT8ivKAHx67Mx8Q0I/gcifavU9Iw+Uv+KSPZ/D1lL7P1Np+SPkRa+p
rk7U7CW3H/GpwH2p1X82Hyl/xSR2Bg75fMfqVV/J/wDLOPd9Su3NN/30dP8AhYsrPtNrD/NHw/az
HYWn/pfNWi/Lf8poKcxPc0FKNJN9/wAATKpe0GtP8QHwj+psHY2mH8N/EohPLH5U27Vi0MyEUpya
Rxt/xklOUy7X1kueQ/YPuDbHszTD+AIpJPJ9sALPy1ZKV+y7QwhtvE8CT9+Y89XqJfVkmf8AOLfH
SYY8oR+QRB8136J6drBBbRj7KonT8afhmMY2bJtvAA5IKfXNZnrzu5AD2Q8P+I0wiISgGVnYsxLM
epO5ySGvTxV3p4q708Vd6eKoXVh6el3kn8kEjfchOA8lYB+UsXLzI7gfZhYe++/8MxWT6nUcVA8B
TFW8VfK2jxfUfzSuLU7CO9vLcgU7GRR+IyUOavVfSzIYu9LFXelirvSxVJdS82+WNLu2tNR1GG2u
VAJickGhFQemR4glC/8AKwvI3/V5t/vP9MeMK7/lYXkb/q82/wB5/pjxhXf8rC8jf9Xm3+8/0x4w
rv8AlYXkb/q82/3n+mPGFd/ysLyN/wBXm3+8/wBMeMK7/lYXkb/q82/3n+mPGFd/ysLyN/1ebf7z
/THjCu/5WF5G/wCrzb/ef6Y8YV3/ACsLyN/1ebf7z/THjCu/5WF5G/6vNv8Aef6Y8YV3/KwvI3/V
5t/vP9MeMK7/AJWF5G/6vNv95/pjxhXf8rC8jf8AV5t/vP8ATHjCu/5WF5G/6vNv95/pjxhXf8rC
8jf9Xm3+8/0x4wrv+VheRv8Aq82/3n+mPGFd/wArC8jf9Xm3+8/0x4wrv+VheRv+rzb/AHn+mPGF
TnS9Q0/VbUXenzrc2rMVWVOhK7H8cINqi/Swod6WKu9LFUp82kQ+WdTc97eRP+DHD/jbIyOyWJ/k
rbeprFw9P99qPpJB/WMx0vpbFXYq+ZfOcP6L/Oa4J+FGv4Zif8m4COx3/wBc4RzV6j6eZCHenirv
TxV3p4q+efzYj9bzjPINwY0p8t8x5c0sN+q+2BXfVfbFXfVfbFXfVfbFXfVfbFXfVfbFXfVfbFXf
VfbFXfVfbFXfVfbFXfVfbFXfVfbFXfVfbFXfVfbFXfVfbFXfVfbFXfVfbFXfVfbFXvn5NCnlGKH+
V5GA+cjZbjQWeenliu9PFXenirF/zLlEHlG6WtDO8Ua/8GGP4KchM7KhPyIsiZWmI3acUPsoB/Wp
ylL3zFXYq+eP+cgbB7TzpaahGOIu7VG5/wDFsLsp+5eGKvRLJ0urOC6T7E8aSr8nUMP15faFb0cV
d6OKrJ1EUEkn8ilvuFcbV88efYvV19n61iT+OUlLHfqvtgV6Z+WX5faRqOkTalrFr9YSaX07RGZ1
osY+JxwK15M3H/Y4qzH/AJVj5F/6tSf8jJv+a8Vd/wAqx8i/9WpP+Rk3/NeKu/5Vj5F/6tSf8jJv
+a8Vd/yrHyL/ANWpP+Rk3/NeKu/5Vj5F/wCrUn/Iyb/mvFXf8qx8i/8AVqT/AJGTf814q7/lWPkX
/q1J/wAjJv8AmvFXf8qx8i/9WpP+Rk3/ADXirv8AlWPkX/q1J/yMm/5rxV3/ACrHyL/1ak/5GTf8
14q7/lWPkX/q1J/yMm/5rxV3/KsfIv8A1ak/5GTf814q7/lWPkX/AKtSf8jJv+a8Vd/yrHyL/wBW
pP8AkZN/zXirx3zn5Y/QnmO7sUUi35CW16kelIOSAE9eNeJ9xiqSfVfbFXsn5QnhpsMP8wloPcSV
ycEPSPRyxXejirvRxV51+c1yI9M0+yrvNM0xHtEvH/mZkJlQyn8jtOMWmQSEUJVpSf8AW6fhJlaX
rOKuxV5P/wA5D6Objy5p+qIKtYXBjfbpHcL1P+zjUfTirvyyvRqHk2xJNZLYNbSe3pn4R/wBXLIn
ZDKvRyVq70cbVDalZTz6fcw268ppY2SNRTcsKU3wEq8r1z8pPO+o331mGxXhwC/HLEpqK9i2VpY7
qP5ZeadPu4bS5tkFxcU9KNZUYnk3EfZJ6nCIkq92s/J97punWWm2kIaCyt0hDhlAZ6cpHoTX4pGY
5FXHQdY/3x/w6f8ANWFVp0LWf98f8On/ADVirX6D1n/fP/Dp/wA1YqtOiaz/AL5/4dP+asVaOi61
/vn/AIdP+asVWnRda/30f+DT+uNK0dG1v/fR/wCDT+uGlWnR9b/30f8Ag0/rjStHSNb/AN9H/g0/
rjSrTpOuf77P/Bp/XGlWnStc/wB9n/g0/rjStHS9c/32f+DT+uNKtOma7/vs/wDBp/XDSoqw0nWZ
GaN4eTdVq6fT3wEKxH85PJl3Joun6yYeNxZu1rc7qSYZDzjYkHoshYf7LABasI0v8pPOOqWEN/ZW
sctrOOUb+tEK0JB2LVFCKYkUrPfIvkTzPo09ql/aenHCZTK6ujKAysR9lj44QrOvRyy0O9HG1d6O
Nq8T/Ny6N95wh06I1NrFHDx/4slPM/gy5XIpe1/lvpy2mjrQUUKqJ8qcv1EZFWX4q7FUp82aEmve
W9R0hqA3cLLEx6CUfFGx+TqDirxP8ldVez1XUPLt4DFJITLFG+xE0PwypT+Yrv8A7HJRKvYfTXxG
SQ7018RirggBqDQjocVX83/34fvOKsU8sxHXfOk2ovV7Wx+KMncVHwxfxf6MnPaNK9Hc0X55QlRJ
wqtJxVaThVaTiqwnFVpOKrScKrScVWE4qtJxQtJwqtJxVYTiq6CYxTJJ/Kd/l3xKplrukwazot5p
stPTu4mQN14sRVH/ANi1DkAaKXlf5T6rdQPqHlu7ZoriykaSOMncUbhKv+xen35bMdUPRCzkUMhp
8zkVW+mviMVd6a+IxVRvJ7aztJru4cJBbo0srnsqCpP3DFXz/wCXY5/MnnSbUpV2kmadh148yeC/
7EdPllaX0zodp9V0yGOlGI5sP9bcfcMVR2KuxV2KvGvzU/LvVrXWh5x8sKTOGE17BGBzWRf93IP2
g37a/TvU0VQWl/nRZ8Vh1myltbkbSPEOaV7nixV1+W+TElZHafmP5RugPT1OJCe03KKn/IwKMNhC
a2/mDTLkVt7yCYHp6ciN+onxwqhvMWrm20qXg1JJR6Sf7Lqfurkox3VPvy/0n6h5fjldaTXh9d/H
idkH/A7/AE5DIbKhP5Wq1PDIJUycVWk4VWk4qsJxVaTiq0nCq0nFVhOKrScULScKrScVWE4qtJxV
aThVO9Kn9W2Ck/FH8J+XbK5BLyD8yIJPKv5h2PmOFStnqHxXFOnJQI5xT3QhvnlsDYpDOG1OBIxI
8qrGRUOWABFK1qcaVAXPnHy7bV9fU7ZCOq+qhb/gQa4NlSa9/NryjbA8LmS6YfsQRsfxfgv44LCs
K8z+fNc822x0zS7J7fT5GHryMas4U1AZqBVFe2+RJSzT8rfI5tEVplqdnncjrXtv40oPbIq9cxV2
KuxV2KuxVj+s+QvK2r1a6sUEh6ugA38aUK/hirDdQ/IXQJiTaymMnpXkKf8AAmn4Yqx+7/5x/u1J
+rXPL/ZrT8VGKofyz5FmsfMC6HLKZZXkUTkdERRzYChI+zX6cvhtG0PeAEjjCqAqoKKo6ADYDKEo
cnCq0nCq0nFVhOKrScVWk4VWk4qsJxVaTihaThVaTiqwnFVpOKrScKrScVRWlXHpXYUn4ZPhPz7Y
JBUt/Njy4dc8mXaxJyu7H/S7anUmMHmv+yjLbeNMjA0UvDPJ3kY+aEkaGdvXibjJFsDSnwkEg7Uw
zFFQzez/ACHeo9bkR/lyA/8AEeByCsg078ldKtyDIIgR3A5n/hwf14qyrTvImh2fE8DIy9K7D+JH
34qyCGCGCMRwoEQdFUUxVfirsVdirsVdirsVdiqH1C9isbGe8l/u4EaRh48RWn09MIFlWF/lvZS3
Vxf69c/FNO5jjY+LHnIR+Ay3KeiAzedqAL9OVBKgThVaTiqwnFVpOKrScKrScVWE4qtJxQtJwqtJ
xVYTiq0nFVpOFVpOKrScVW8iDUbEd8VZPaTrcWqSdeQow9+hyshLwLT+fkT8259PHwWF1IPq46Ax
S/HF91TH9+WHcIfQSOrorqaqwDKfEHfKkt4q7FXYq7FXYq7FXYq7FXYq7FWF/mdqTRabb6bFUyXj
1dR1KRkED6XI+7LcQ3tBZLoOmLpmj2tiPtRIPUI7u3xOf+CJyEjZSjiiE1IqcirXpR/yjFWvRi/l
GKu9CH+UY2rX1eH+QY2rvq0H8gxtXfVoP5BhtWvqtv8A77GNq76pbf77GNq19Ttv99jG1d9Stf8A
fYxtWvqNp/voY2rvqNp/vpcbV31Cz/30uNq1+j7L/fK42Vd+jrL/AHyuNlWv0bY/75XGyqtDDFCv
CJQi1rQeOC1eR/8AOQvl9307T/MlsCJ7CQW87r1Ech5Rsf8AVkFP9llmM9EFm/5ceYF1vytaXNf3
gQCQeB6EfQwIyBFJZRgV2KuxV2KuxV2KuxV2KuxV2KsR89+Wb7Ufq+o6eSbu0FPTFeTAHkpT/KBy
yE65oLCzqXnYEg3V2COoLPk+OHcrX6T86/8ALXd/8G+PHDuV36T86/8ALXd/8G+PHDuV36T86/8A
LXd/8G+PHDuVadS879ru7/4N8eKHcq06j567Xl3/AMG+Dij3Kpm/8/dr27/4N8eKPcqw3v5g9r67
/wCRj48Ue5VhvPzE7X93/wAjHx4o9yrDdfmR21C7/wCRr48Ue5VhuPzL7ajd/wDI2THij3KsM35n
dtSu/wDkbJjxR7lWGX80e2p3f/I6T+mDiiqwv+avbVLv/kdJ/THiiqwn82O2q3f/ACOk/pjxRVYf
+Vt9tWu/+R8n9MeKKrCv5v8AbVrv/kfL/THiiqwx/nF21e7/AOR8v9MeKKrDF+cv/V4u/wDpIl/p
jxRVD32kfmtqVq9lqGpT3FnNQSwyzSOjcSGFVINaEA48UVeqflHod5o+nC1kqYlVuTEUHJmDfrr9
GVk2UvQ8CuxV2KuxV2KuxV2KuxV2KuxV2KuxV2KuxV2KuxV2KuxV2KuxV2KuxV2KuxV2KuxV2Kux
V2KuxV2KuxV2KuxV2KuxV2Kv/9k=</xapGImg:image>
              </rdf:li>
            </rdf:Alt>
          </xap:Thumbnails>
        </rdf:Description>
        <rdf:Description
   rdf:about="uuid:bcb648b3-15a3-41a4-815d-774960d2ac54">
          <xapMM:DocumentID>
uuid:d239e853-732f-4c92-b61f-ae7afe52f4ba</xapMM:DocumentID>
        </rdf:Description>
        <rdf:Description
   rdf:about="uuid:bcb648b3-15a3-41a4-815d-774960d2ac54">
          <dc:format>
image/svg+xml</dc:format>
        </rdf:Description>
      <cc:Work
   rdf:about=""><dc:format>image/svg+xml</dc:format><dc:type
     rdf:resource="http://purl.org/dc/dcmitype/StillImage" /></cc:Work></rdf:RDF></metadata></x:xmpmeta>
    
  </metadata>
  <path
   id="path1060"
   d="M 46.563,28.461 C 46.563,25.75 46.252,20.891 44.172,18.811 C 43.129,17.77 40.484,17.018 36.114,16.512 C 35.992,15.853 35.444,15.352 34.777,15.293 C 34.621,15.279 34.46,15.267 34.301,15.253 L 34.301,2.784 C 34.301,2.384 33.975,2.058 33.575,2.058 L 15.023,2.058 C 14.623,2.058 14.297,2.384 14.297,2.784 L 14.297,15.263 C 14.142,15.277 13.984,15.288 13.831,15.302 C 13.165,15.363 12.616,15.864 12.495,16.521 C 8.104,17.03 5.454,17.779 4.422,18.811 C 2.346,20.887 2.036,25.796 2.036,28.538 C 2.036,33.133 2.872,38.854 4.422,40.404 C 5.062,41.045 7.259,41.467 10.203,41.742 C 8.809,45.27 8.745,45.515 8.745,45.752 C 8.745,46.152 9.071,46.479 9.471,46.479 L 39.239,46.479 C 39.639,46.479 39.965,46.153 39.965,45.752 C 39.965,45.512 39.898,45.266 38.457,41.714 C 41.327,41.443 43.549,41.029 44.173,40.404 C 45.821,38.756 46.563,32.427 46.563,28.461 z "
   style="opacity:1;fill:#000000;fill-opacity:0.16760829" /><path
   id="path1061"
   d="M 46.199,28.244 C 46.199,25.533 45.889,20.675 43.808,18.595 C 42.765,17.554 40.121,16.802 35.75,16.296 C 35.628,15.637 35.081,15.136 34.414,15.077 C 34.258,15.063 34.096,15.051 33.937,15.037 L 33.937,2.568 C 33.937,2.168 33.612,1.842 33.211,1.842 L 14.66,1.842 C 14.26,1.842 13.934,2.168 13.934,2.568 L 13.934,15.047 C 13.779,15.061 13.621,15.072 13.468,15.086 C 12.802,15.147 12.253,15.648 12.132,16.305 C 7.741,16.814 5.091,17.563 4.059,18.595 C 1.983,20.671 1.673,25.58 1.673,28.322 C 1.673,32.918 2.509,38.639 4.059,40.189 C 4.699,40.829 6.896,41.252 9.84,41.526 C 8.447,45.055 8.382,45.299 8.382,45.537 C 8.382,45.937 8.707,46.263 9.108,46.263 L 38.876,46.263 C 39.276,46.263 39.603,45.938 39.603,45.537 C 39.603,45.297 39.536,45.05 38.094,41.499 C 40.964,41.228 43.187,40.813 43.81,40.189 C 45.458,38.539 46.199,32.211 46.199,28.244 z "
   style="opacity:1;fill:#000000;fill-opacity:0.09227872" /><path
   id="path1071"
   d="M 13.232,14.766 L 13.232,14.766 C 12.566,14.826 12.017,15.327 11.895,15.985 C 7.504,16.494 4.855,17.242 3.823,18.275 C 1.747,20.351 1.437,25.26 1.437,28.002 C 1.437,32.598 2.273,38.318 3.823,39.869 C 5.331,41.377 15.476,41.683 23.72,41.677 C 30.465,41.672 42.012,41.431 43.573,39.869 C 45.221,38.22 45.964,31.89 45.964,27.925 C 45.964,25.214 45.653,20.356 43.573,18.276 C 42.53,17.234 39.885,16.483 35.515,15.976 C 35.393,15.317 34.845,14.816 34.178,14.757 C 27.836,14.184 19.615,14.188 13.232,14.766 z M 11.895,15.986 L 11.895,15.987 C 11.895,15.986 11.895,15.986 11.895,15.986 z "
   style="fill:#000000;opacity:1;fill-opacity:0.18832392" /><path
   id="path1084"
   d="M 4.552,39.501 C 6.589,41.538 40.864,41.48 42.843,39.501 C 44.822,37.522 46.334,22.858 42.843,19.367 C 39.352,15.875 7.986,15.933 4.552,19.367 C 1.119,22.8 2.516,37.465 4.552,39.501 z "
   style="fill:url(#XMLID_16_);opacity:1" /><path
   id="path1095"
   d="M 23.701,31.341 C 32.16,31.341 39.746,29.689 44.909,27.073 C 44.791,23.639 44.189,20.51 42.843,19.109 C 39.352,15.476 7.986,15.537 4.552,19.109 C 3.223,20.492 2.618,23.629 2.493,27.074 C 7.657,29.689 15.243,31.341 23.701,31.341 z "
   style="fill:url(#XMLID_17_);opacity:1" /><path
   id="path1105"
   d="M 23.701,30.759 C 32.16,30.759 39.746,29.171 44.909,26.658 C 44.791,23.357 44.189,20.35 42.843,19.004 C 39.352,15.512 7.986,15.57 4.552,19.004 C 3.223,20.333 2.618,23.347 2.493,26.659 C 7.657,29.172 15.243,30.759 23.701,30.759 z "
   style="fill:url(#XMLID_18_);opacity:1" /><rect
   id="rect1106"
   height="0.74800003"
   width="30.013"
   style="opacity:1;fill:#ffffff"
   y="36.877998"
   x="8.8050003" /><path
   id="path1113"
   d="M 12.828,34.119 C 12.458,34.119 12.139,34.522 12.1,34.884 C 12.101,34.871 12.102,34.858 12.102,34.845 C 12.102,34.831 12.09,34.823 12.088,34.809 C 11.934,35.315 11.139,37.33 10.187,39.732 C 8.226,44.676 8.145,44.95 8.145,45.216 C 8.145,45.616 8.47,45.942 8.871,45.942 L 38.64,45.942 C 39.039,45.942 39.366,45.617 39.366,45.216 C 39.366,44.946 39.283,44.673 37.279,39.753 C 36.435,37.682 35.716,35.908 35.425,35.116 C 35.36,35.058 35.315,34.978 35.304,34.885 C 35.265,34.524 34.945,34.119 34.576,34.119 L 12.828,34.119 z M 11.425,34.716 C 11.457,34.854 11.55,34.972 11.696,34.999 C 11.862,35.029 12.011,34.932 12.078,34.783 C 12.049,34.631 11.94,34.502 11.777,34.484 C 11.615,34.467 11.486,34.572 11.425,34.716 z "
   style="fill:url(#XMLID_19_);opacity:1" /><path
   id="path1120"
   d="M 37.896,31.961 L 37.896,37.149 C 38.262,37.149 38.518,37.149 38.637,37.149 C 38.638,35.873 37.896,31.961 37.896,31.961 z M 8.766,37.149 C 8.899,37.149 9.151,37.149 9.499,37.149 L 9.499,31.961 C 9.499,31.961 8.766,35.873 8.766,37.149 z "
   style="opacity:1;fill:url(#XMLID_20_)" /><rect
   id="rect1127"
   height="4.3060002"
   width="28.396999"
   style="fill:url(#XMLID_21_);opacity:1"
   y="32.737999"
   x="9.4989996" /><path
   id="path1128"
   d="M 34.065,19.702 C 37.448,19.702 40.695,19.915 43.718,20.306 C 43.47,19.783 43.18,19.341 42.842,19.004 C 39.351,15.512 7.985,15.57 4.551,19.004 C 3.222,20.333 2.617,23.347 2.492,26.659 C 3.448,27.124 4.487,27.558 5.598,27.955 C 8.77,23.215 20.311,19.702 34.065,19.702 z "
   style="opacity:1;fill:#ffffff" /><g
   id="g1129"
   style="opacity:1">
      <circle
   sodipodi:ry="0.972"
   sodipodi:rx="0.972"
   sodipodi:cy="22.176001"
   sodipodi:cx="39.937"
   id="circle1130"
   r="0.972"
   cy="22.176001"
   cx="39.937"
   style="fill:#336666" />
      <linearGradient
   gradientTransform="matrix(0.7071,-0.7071,0.7071,0.7071,71.522,44.5771)"
   y2="-37.491199"
   x2="-6.3817"
   y1="-38.180698"
   x1="-6.4966002"
   gradientUnits="userSpaceOnUse"
   id="XMLID_22_">
        <stop
   id="stop1132"
   style="stop-color:#72C296"
   offset="0" />
        <stop
   id="stop1133"
   style="stop-color:#009F81"
   offset="1" />
        <a:midPointStop
   id="midPointStop1134"
   style="stop-color:#72C296"
   offset="0" />
        <a:midPointStop
   id="midPointStop1135"
   style="stop-color:#72C296"
   offset="0.5" />
        <a:midPointStop
   id="midPointStop1136"
   style="stop-color:#009F81"
   offset="1" />
      </linearGradient>
      <path
   id="path1137"
   d="M 40.235,21.398 C 39.876,21.429 39.347,21.795 39.174,22.241 C 39.003,22.686 39.277,22.985 39.636,22.954 C 39.996,22.924 40.526,22.557 40.697,22.112 C 40.868,21.667 40.594,21.368 40.235,21.398 z "
   style="fill:url(#XMLID_22_)" />
      <linearGradient
   gradientTransform="matrix(0.7071,-0.7071,0.7071,0.7071,71.522,44.5771)"
   y2="-38.1609"
   x2="-6.3134999"
   y1="-38.7192"
   x1="-6.3134999"
   gradientUnits="userSpaceOnUse"
   id="XMLID_23_">
        <stop
   id="stop1139"
   style="stop-color:#FFFFFF"
   offset="0" />
        <stop
   id="stop1140"
   style="stop-color:#33CC66"
   offset="1" />
        <a:midPointStop
   id="midPointStop1141"
   style="stop-color:#FFFFFF"
   offset="0" />
        <a:midPointStop
   id="midPointStop1142"
   style="stop-color:#FFFFFF"
   offset="0.5" />
        <a:midPointStop
   id="midPointStop1143"
   style="stop-color:#33CC66"
   offset="1" />
      </linearGradient>
      <path
   id="path1144"
   d="M 40.238,21.388 C 39.932,21.415 39.475,21.728 39.32,22.107 C 39.291,22.178 39.275,22.244 39.271,22.305 C 39.485,22.249 39.708,22.17 39.917,22.072 C 40.297,21.894 40.541,21.696 40.6,21.541 C 40.525,21.432 40.392,21.374 40.238,21.388 z "
   style="fill:url(#XMLID_23_)" />
    </g><path
   id="path1145"
   d="M 44.908,26.618 C 44.892,26.222 44.872,25.831 44.843,25.446 C 44.872,25.831 44.893,26.223 44.908,26.618 z "
   style="fill:#ffffff;opacity:1" /><path
   id="path1146"
   d="M 44.908,26.618 C 44.908,26.631 44.908,26.645 44.908,26.658 C 44.909,26.658 44.909,26.658 44.909,26.658 C 44.909,26.645 44.908,26.631 44.908,26.618 z "
   style="fill:#ffffff;opacity:1" /><path
   id="path1147"
   d="M 36.536,29.442 C 35.99,25.495 35.198,20.019 34.503,16.164 C 34.465,15.957 34.295,15.802 34.087,15.783 C 27.799,15.217 19.649,15.22 13.326,15.794 C 13.118,15.813 12.948,15.968 12.91,16.174 C 12.206,20.032 11.389,25.497 10.824,29.435 C 14.683,30.28 19.06,30.759 23.701,30.759 C 28.324,30.759 32.687,30.283 36.536,29.442 z "
   style="fill:#ffffff;opacity:1" /><path
   id="path1154"
   d="M 13.368,16.254 C 12.638,20.227 11.78,25.979 11.272,29.487 C 15.046,30.236 19.258,30.654 23.701,30.654 C 28.128,30.654 32.324,30.238 36.086,29.496 C 35.598,25.986 34.768,20.221 34.045,16.243 C 27.759,15.681 19.655,15.688 13.368,16.254 z "
   style="fill:url(#XMLID_24_);opacity:1" /><path
   id="path1161"
   d="M 14.424,1.522 C 14.023,1.522 13.698,1.847 13.698,2.248 L 13.698,24.874 C 13.698,25.274 14.023,25.6 14.424,25.6 L 32.976,25.6 C 33.376,25.6 33.703,25.275 33.703,24.874 L 33.703,2.248 C 33.703,1.847 33.377,1.522 32.976,1.522 L 14.424,1.522 L 14.424,1.522 z "
   style="fill:url(#XMLID_25_);opacity:1" /><path
   id="path1162"
   d="M 14.424,2.248 C 14.424,2.654 14.424,24.469 14.424,24.874 C 14.828,24.874 32.573,24.874 32.976,24.874 C 32.976,24.469 32.976,2.654 32.976,2.248 C 32.573,2.248 14.828,2.248 14.424,2.248 z "
   style="fill:#ffffff;opacity:1" /><path
   id="path1172"
   d="M 15.875,3.699 C 15.875,6.068 15.875,21.054 15.875,23.422 C 18.132,23.422 29.268,23.422 31.525,23.422 C 31.525,21.054 31.525,6.068 31.525,3.699 C 29.269,3.699 18.133,3.699 15.875,3.699 z "
   style="fill:url(#XMLID_26_);opacity:1" /><path
   id="path1173"
   d="M 12.828,34.845 C 12.828,35.241 8.871,44.821 8.871,45.216 C 9.865,45.216 37.646,45.216 38.639,45.216 C 38.639,44.82 34.575,35.24 34.575,34.845 C 33.582,34.845 13.822,34.845 12.828,34.845 z "
   style="fill:#ffffff;opacity:1" /><path
   id="path1180"
   d="M 13.871,36.297 C 13.577,37.081 13.074,38.361 12.201,40.562 C 11.798,41.578 11.319,42.786 10.939,43.764 C 14.249,43.764 33.214,43.764 36.553,43.764 C 36.163,42.787 35.674,41.586 35.262,40.575 C 34.362,38.366 33.844,37.082 33.542,36.298 C 31.761,36.297 15.666,36.297 13.871,36.297 z "
   style="fill:url(#XMLID_27_);opacity:1" /><path
   id="path1181"
   d="M 13.77,19.497 C 13.068,22.386 12.244,26.568 11.756,29.119 C 15.382,29.663 19.43,29.968 23.701,29.968 C 27.955,29.968 31.988,29.665 35.604,29.125 C 35.134,26.573 34.335,22.382 33.641,19.49 C 27.599,19.08 19.812,19.086 13.77,19.497 z "
   style="fill:#0053bd;opacity:1" /><path
   id="path1194"
   d="M 13.77,19.981 C 13.068,22.901 12.244,27.128 11.756,29.709 C 15.382,30.259 19.43,30.566 23.701,30.566 C 27.955,30.566 31.988,30.26 35.604,29.714 C 35.134,27.134 34.335,22.897 33.641,19.973 C 27.599,19.56 19.812,19.565 13.77,19.981 z "
   style="fill:url(#XMLID_28_);opacity:1" /><path
   id="path1195"
   d="M 33.717,21.215 C 33.784,21.215 33.852,21.216 33.92,21.217 C 33.825,20.786 33.732,20.37 33.641,19.979 C 27.599,19.558 19.812,19.563 13.77,19.987 C 13.101,22.819 12.322,26.856 11.828,29.501 C 15.072,24.667 23.647,21.215 33.717,21.215 z "
   style="opacity:1;fill:url(#linearGradient11062);fill-opacity:1.0" /><path
   id="path1196"
   d="M 35.055,37.121 C 34.762,35.782 34.576,34.871 34.576,34.72 C 33.583,34.72 13.823,34.72 12.829,34.72 C 12.829,34.871 12.647,35.783 12.363,37.121 L 35.055,37.121 L 35.055,37.121 z "
   style="opacity:1" /><polyline
   points="0,48 0,0 48,0 48,48 "
   style="fill:none;opacity:1"
   id="_x3C_Slice_x3E_" />
</svg>