<?xml version="1.0" encoding="UTF-8" standalone="no"?>
<!-- Created with Inkscape (http://www.inkscape.org/) -->
<svg
   xmlns:www="http://www.adobe.com"
   xmlns:dc="http://purl.org/dc/elements/1.1/"
   xmlns:cc="http://web.resource.org/cc/"
   xmlns:rdf="http://www.w3.org/1999/02/22-rdf-syntax-ns#"
   xmlns:svg="http://www.w3.org/2000/svg"
   xmlns="http://www.w3.org/2000/svg"
   xmlns:sodipodi="http://sodipodi.sourceforge.net/DTD/sodipodi-0.dtd"
   xmlns:inkscape="http://www.inkscape.org/namespaces/inkscape"
   version="1.0"
   x="0.0000000"
   y="0.0000000"
   width="60.000000"
   height="60.000000"
   viewBox="0 0 48 48"
   id="svg548"
   xml:space="preserve"
   sodipodi:version="0.32"
   inkscape:version="0.45.1"
   sodipodi:docname="dvd.svg"
   inkscape:output_extension="org.inkscape.output.svg.inkscape"
   sodipodi:docbase="C:\Users\schroede.silverwhite\Documents\localcvs\spielwiese\flex\dnd\svg"><sodipodi:namedview
   inkscape:window-height="575"
   inkscape:window-width="765"
   inkscape:pageshadow="2"
   inkscape:pageopacity="0.0"
   guidetolerance="10.0"
   gridtolerance="10.0"
   objecttolerance="10.0"
   borderopacity="1.0"
   bordercolor="#666666"
   pagecolor="#ffffff"
   id="base"
   inkscape:zoom="6.2833333"
   inkscape:cx="30"
   inkscape:cy="30"
   inkscape:window-x="23"
   inkscape:window-y="23"
   inkscape:current-layer="svg548" />
  <defs
   id="defs588">
    
    
    
    <linearGradient
   gradientUnits="userSpaceOnUse"
   id="XMLID_4_"
   y2="23.968800"
   x2="42.875000"
   y1="23.968800"
   x1="4.6367002">
      <stop
   id="stop555"
   offset="0.0000000"
   style="stop-color:#e6edff;stop-opacity:1.0000000;" />
      <stop
   id="stop556"
   offset="1.0000000"
   style="stop-color:#b3caff;stop-opacity:1.0000000;" />
      <www:midPointStop
   id="midPointStop557"
   style="stop-color:#E6EDFF"
   offset="0" />
      <www:midPointStop
   id="midPointStop558"
   style="stop-color:#E6EDFF"
   offset="0.5" />
      <www:midPointStop
   id="midPointStop559"
   style="stop-color:#B3CAFF"
   offset="1" />
    </linearGradient>
    
    
    
    
    
    
    
    
    
    <linearGradient
   gradientUnits="userSpaceOnUse"
   id="XMLID_5_"
   y2="8.4939003"
   x2="23.912600"
   y1="16.236300"
   x1="23.912600">
      <stop
   id="stop570"
   offset="0.0000000"
   style="stop-color:#e1e1ff;stop-opacity:1.0000000;" />
      <stop
   id="stop571"
   offset="1.0000000"
   style="stop-color:#ffffff;stop-opacity:1.0000000;" />
      <www:midPointStop
   id="midPointStop572"
   style="stop-color:#E1E1FF"
   offset="0" />
      <www:midPointStop
   id="midPointStop573"
   style="stop-color:#E1E1FF"
   offset="0.5" />
      <www:midPointStop
   id="midPointStop574"
   style="stop-color:#FFFFFF"
   offset="1" />
    </linearGradient>
    
    
    <linearGradient
   gradientTransform="matrix(1,0,0,-1,224.5,1156.5)"
   gradientUnits="userSpaceOnUse"
   id="XMLID_6_"
   y2="1139.5234"
   x2="-186.93770"
   y1="1156.9980"
   x1="-210.54539">
      <stop
   id="stop579"
   offset="0.0000000"
   style="stop-color:#0053bd;stop-opacity:1.0000000;" />
      <stop
   id="stop580"
   offset="1.0000000"
   style="stop-color:#00008d;stop-opacity:1.0000000;" />
      <www:midPointStop
   id="midPointStop581"
   style="stop-color:#0053BD"
   offset="0" />
      <www:midPointStop
   id="midPointStop582"
   style="stop-color:#0053BD"
   offset="0.5" />
      <www:midPointStop
   id="midPointStop583"
   style="stop-color:#00008D"
   offset="1" />
    </linearGradient>
    
    
    
  </defs>
  <metadata
   id="metadata549">

    

  <rdf:RDF><cc:Work
     rdf:about=""><dc:format>image/svg+xml</dc:format><dc:type
       rdf:resource="http://purl.org/dc/dcmitype/StillImage" /></cc:Work></rdf:RDF></metadata>
  <path
   id="path551"
   style="opacity:1"
   d="M 22.086,4.396 L 22.086,4.396 C 16.632,5.067 11.767,7.823 8.385,12.154 C 5.004,16.484 3.511,21.873 4.182,27.327 C 4.853,32.78 7.608,37.646 11.939,41.028 C 20.88,48.007 33.832,46.413 40.813,37.473 C 44.189,33.149 45.678,27.761 45.006,22.3 C 44.334,16.841 41.581,11.975 37.257,8.598 C 32.928,5.217 27.539,3.725 22.086,4.396 M 23.817,25.814 C 23.507,25.572 23.33,25.206 23.33,24.81 C 23.33,24.525 23.422,24.255 23.598,24.031 C 23.806,23.763 24.108,23.593 24.446,23.552 C 24.782,23.51 25.115,23.602 25.381,23.811 C 25.649,24.019 25.819,24.32 25.86,24.657 C 25.902,24.995 25.809,25.328 25.601,25.595 C 25.17,26.146 24.37,26.245 23.817,25.814 z " /><path
   id="path552"
   style="opacity:1"
   d="M 21.524,4.114 L 21.524,4.114 C 16.07,4.786 11.205,7.541 7.823,11.872 C 4.442,16.202 2.949,21.591 3.62,27.045 C 4.291,32.498 7.046,37.364 11.377,40.746 C 20.318,47.725 33.27,46.131 40.251,37.191 C 43.627,32.867 45.116,27.479 44.444,22.018 C 43.772,16.559 41.019,11.693 36.695,8.316 C 32.365,4.936 26.977,3.443 21.524,4.114 M 23.255,25.533 C 22.945,25.291 22.768,24.925 22.768,24.529 C 22.768,24.244 22.86,23.974 23.036,23.75 C 23.244,23.482 23.546,23.312 23.884,23.271 C 24.22,23.229 24.553,23.321 24.82,23.53 C 25.087,23.738 25.257,24.039 25.298,24.376 C 25.34,24.714 25.247,25.047 25.039,25.314 C 24.607,25.865 23.808,25.964 23.255,25.533 z " /><path
   id="path553"
   style="fill:#3a3aa9;opacity:1"
   d="M 21.243,3.552 L 21.243,3.552 C 15.789,4.223 10.923,6.979 7.542,11.31 C 4.161,15.64 2.668,21.029 3.339,26.483 C 4.01,31.936 6.765,36.802 11.096,40.184 C 20.037,47.163 32.989,45.569 39.97,36.629 C 43.346,32.305 44.835,26.917 44.163,21.456 C 43.491,15.997 40.738,11.131 36.414,7.754 C 32.084,4.373 26.695,2.881 21.243,3.552 M 22.974,24.971 C 22.664,24.729 22.487,24.363 22.487,23.967 C 22.487,23.682 22.579,23.412 22.755,23.188 C 22.963,22.92 23.265,22.75 23.603,22.708 C 23.939,22.667 24.272,22.759 24.539,22.968 C 24.806,23.176 24.976,23.477 25.017,23.814 C 25.059,24.152 24.967,24.485 24.759,24.752 C 24.326,25.303 23.526,25.401 22.974,24.971 z " /><path
   id="path560"
   style="fill:url(#XMLID_4_);opacity:1"
   d="M 8.687,12.203 C 2.189,20.526 3.668,32.541 11.99,39.038 C 20.313,45.536 32.327,44.058 38.825,35.734 C 45.323,27.412 43.843,15.397 35.52,8.899 C 27.197,2.401 15.184,3.88 8.687,12.203 M 25.902,25.645 C 24.978,26.83 23.263,27.041 22.079,26.117 C 20.896,25.192 20.684,23.478 21.609,22.294 C 22.533,21.11 24.248,20.898 25.431,21.823 C 26.615,22.746 26.827,24.461 25.902,25.645 z " /><path
   id="path561"
   style="fill:#ffffff;opacity:1"
   d="M 26.139,25.342 C 27.045,24.182 26.818,22.486 25.635,21.561 C 24.451,20.637 22.752,20.83 21.846,21.99 C 21.806,22.04 21.771,22.093 21.736,22.146 C 22.684,21.096 24.299,20.939 25.431,21.823 C 26.563,22.707 26.803,24.313 26.013,25.486 C 26.057,25.438 26.1,25.393 26.139,25.342 M 12.464,38.431 C 4.193,31.974 2.577,20.202 8.808,12.052 C 8.767,12.103 8.726,12.153 8.686,12.204 C 2.188,20.527 3.667,32.542 11.989,39.039 C 20.312,45.537 32.326,44.059 38.824,35.735 C 38.863,35.684 38.902,35.631 38.942,35.581 C 32.547,43.602 20.736,44.89 12.464,38.431 z " /><path
   id="path562"
   style="opacity:1;fill:#9b95ff"
   d="M 35.521,8.899 C 32.739,6.727 29.543,5.447 26.281,5.015 L 25.303,11.988 L 24.004,21.259 C 24.507,21.304 25.004,21.488 25.432,21.822 C 25.786,22.099 26.05,22.446 26.227,22.829 L 34.765,19.376 L 41.433,16.68 C 40.213,13.713 38.229,11.014 35.521,8.899 z " /><path
   id="path563"
   style="opacity:1;fill:#ffffff"
   d="M 39.523,13.15 C 38.443,11.575 37.107,10.137 35.52,8.899 C 33.855,7.599 32.042,6.619 30.155,5.948 C 28.585,10.247 27.157,14.157 27.157,14.157 C 27.157,14.157 25.945,17.474 24.527,21.358 C 24.846,21.452 25.153,21.604 25.432,21.821 C 25.629,21.976 25.798,22.154 25.941,22.346 C 30.023,19.583 35.765,15.697 39.523,13.15 z " /><path
   id="path564"
   style="opacity:1;fill:#9b95ff"
   d="M 23.174,26.626 C 22.787,26.542 22.412,26.375 22.079,26.116 C 21.674,25.798 21.385,25.387 21.215,24.938 L 12.414,28.497 L 6.01,31.087 C 7.223,34.121 9.229,36.883 11.99,39.038 C 14.678,41.137 17.749,42.402 20.896,42.875 L 21.876,35.886 L 23.174,26.626 z " /><path
   id="path565"
   style="opacity:1;fill:#ffffff"
   d="M 22.079,26.116 C 21.879,25.958 21.707,25.776 21.563,25.58 C 18.089,27.932 15.099,29.957 15.099,29.957 C 15.099,29.957 11.724,32.242 7.98,34.777 C 9.063,36.356 10.401,37.798 11.989,39.038 C 13.614,40.307 15.379,41.269 17.217,41.938 C 18.805,37.59 21.18,31.086 22.844,26.533 C 22.575,26.438 22.316,26.301 22.079,26.116 z " /><path
   id="path566"
   style="fill:#9b95ff;opacity:1"
   d="M 18.077,19.535 C 15.632,22.666 16.191,27.203 19.322,29.648 C 22.453,32.093 26.99,31.535 29.433,28.404 C 31.878,25.273 31.32,20.736 28.189,18.291 C 25.059,15.846 20.522,16.404 18.077,19.535 M 25.902,25.645 C 24.978,26.83 23.263,27.041 22.079,26.117 C 20.896,25.192 20.684,23.478 21.609,22.294 C 22.533,21.11 24.248,20.898 25.431,21.823 C 26.615,22.746 26.827,24.461 25.902,25.645 z " /><path
   id="path567"
   style="fill:#e6e6e6;opacity:1"
   d="M 20.044,21.071 C 18.447,23.117 18.811,26.083 20.857,27.68 C 22.903,29.277 25.869,28.912 27.466,26.867 C 29.064,24.82 28.699,21.855 26.652,20.257 C 24.606,18.659 21.642,19.024 20.044,21.071 M 25.902,25.645 C 24.978,26.83 23.263,27.041 22.079,26.117 C 20.896,25.192 20.684,23.478 21.609,22.294 C 22.533,21.11 24.248,20.898 25.431,21.823 C 26.615,22.746 26.827,24.461 25.902,25.645 z " /><rect
   id="rect568"
   style="opacity:1;fill:none"
   y="2.632"
   x="2.842"
   height="42.140999"
   width="42.139999" /><g
   id="g576"
   style="opacity:1">
      <path
   id="path577"
   d="M 45.882,9.821 C 45.725,9.243 45.384,8.687 44.897,8.213 C 44.131,7.47 43.066,6.975 41.725,6.742 C 41.448,6.695 41.152,6.657 40.846,6.633 C 40.584,6.612 40.336,6.613 40.096,6.613 L 39.903,6.613 L 38.126,6.611 L 36.35,6.611 L 35.831,6.614 C 35.447,6.618 35.084,6.622 34.725,6.607 L 34.64,6.603 C 34.431,6.59 34.144,6.573 33.836,6.669 L 33.834,6.67 C 33.466,6.785 33.271,7.046 33.177,7.171 C 33.177,7.171 33.163,7.189 33.163,7.19 L 33.02,7.362 L 32.946,7.45 L 31.8,8.813 L 31.485,9.185 C 31.216,9.501 30.939,9.828 30.672,10.164 C 30.672,10.164 30.611,10.243 30.56,10.311 C 30.487,10.081 30.413,9.85 30.331,9.62 L 30.148,9.113 C 30.017,8.754 29.893,8.415 29.789,8.073 L 29.748,7.931 C 29.694,7.748 29.634,7.54 29.542,7.328 L 29.546,7.336 L 29.542,7.326 C 29.324,6.764 28.908,6.64 28.679,6.616 L 28.412,6.611 L 28.382,6.613 C 28.38,6.613 17.591,6.613 17.591,6.613 C 17.591,6.613 17.591,7.005 17.591,7.424 C 17.531,7.424 17.47,7.424 17.41,7.424 L 17.41,7.422 C 17.407,7.437 17.403,7.452 17.399,7.467 C 17.035,7.377 16.716,7.299 16.716,7.299 L 16.395,8.602 L 16.38,8.653 C 16.345,8.768 16.293,8.941 16.293,9.15 C 16.293,9.15 16.325,9.223 16.336,9.247 C 16.241,9.373 16.175,9.524 16.15,9.695 L 16.161,9.639 L 16.069,10.02 L 15.445,12.627 L 15.237,13.506 L 15.174,13.775 L 15.04,14.329 L 15.018,14.4 C 14.977,14.532 14.915,14.732 14.915,14.965 L 14.915,15.865 L 18.029,15.865 L 19.544,15.869 L 19.779,15.87 C 20.436,15.872 21.017,15.831 21.555,15.745 C 22.734,15.557 23.802,15.181 24.732,14.629 C 25.631,14.094 26.313,13.485 26.77,12.813 C 26.783,12.846 27.45,14.734 27.45,14.734 L 27.622,15.223 C 27.756,15.611 27.895,16.012 28.049,16.408 L 28.058,16.429 L 28.169,16.738 L 28.197,16.849 C 28.297,17.31 28.679,17.609 29.141,17.592 L 29.937,17.114 C 30.178,16.82 30.436,16.538 30.709,16.24 C 30.709,16.24 31.051,15.864 31.052,15.864 L 32.283,14.474 L 32.933,13.738 L 33.674,12.901 C 33.674,12.901 33.796,12.762 33.972,12.565 C 33.908,12.839 33.846,13.1 33.846,13.1 L 33.641,13.963 L 33.587,14.169 C 33.53,14.379 33.467,14.617 33.442,14.885 L 33.355,15.865 L 37.002,15.865 L 37.45,15.867 C 38.471,15.872 39.528,15.878 40.594,15.647 C 41.185,15.52 41.762,15.336 42.308,15.101 C 42.914,14.84 43.442,14.506 43.877,14.211 C 44.833,13.569 45.55,12.625 45.844,11.621 C 46.024,11.014 46.036,10.39 45.882,9.821 M 21.814,11.999 C 21.683,12.073 21.527,12.132 21.334,12.197 C 21.066,12.288 20.851,12.345 20.655,12.378 C 20.525,12.399 20.389,12.411 20.25,12.42 C 20.323,12.113 20.406,11.763 20.406,11.763 C 20.406,11.763 20.767,10.236 20.805,10.076 C 21.01,10.08 21.212,10.088 21.408,10.109 C 21.6,10.13 22.564,10.259 22.618,10.764 C 22.621,10.794 22.622,10.823 22.622,10.852 C 22.623,11.329 22.215,11.774 21.814,11.999 M 39.139,12.382 C 39.017,12.4 38.89,12.408 38.764,12.415 C 38.787,12.316 38.81,12.217 38.834,12.12 L 38.929,11.721 L 39,11.417 L 39.139,10.832 L 39.187,10.643 C 39.233,10.467 39.279,10.267 39.315,10.059 C 39.709,10.074 40.086,10.115 40.438,10.215 C 40.739,10.3 40.941,10.406 41.039,10.529 C 41.103,10.612 41.138,10.726 41.138,10.854 C 41.138,10.864 41.138,10.874 41.138,10.884 C 41.121,11.302 40.825,11.713 40.347,11.984 C 40.19,12.073 40.009,12.151 39.811,12.215 C 39.549,12.3 39.323,12.356 39.139,12.382 M 29.182,17.593 C 29.167,17.594 29.155,17.592 29.141,17.593 L 29.132,17.595 L 29.182,17.593 z " />
    </g><path
   id="path584"
   style="fill:url(#XMLID_6_);opacity:1"
   d="M 33.834,5.965 C 33.466,6.08 33.271,6.341 33.177,6.466 C 33.177,6.466 33.163,6.484 33.163,6.485 L 33.02,6.657 L 32.946,6.745 L 31.8,8.108 L 31.485,8.48 C 31.216,8.796 30.939,9.123 30.672,9.459 C 30.672,9.459 30.611,9.538 30.56,9.606 C 30.487,9.376 30.413,9.145 30.331,8.914 L 30.148,8.407 C 30.017,8.048 29.893,7.71 29.789,7.367 L 29.748,7.225 C 29.694,7.042 29.634,6.834 29.542,6.622 L 29.546,6.63 L 29.542,6.619 C 29.324,6.058 28.908,5.934 28.679,5.909 L 28.412,5.905 L 28.382,5.907 C 28.38,5.907 17.591,5.907 17.591,5.907 C 17.591,5.907 17.591,6.357 17.591,6.807 C 17.153,6.7 16.716,6.592 16.716,6.592 L 16.395,7.895 L 16.38,7.947 C 16.345,8.062 16.293,8.236 16.293,8.444 C 16.293,8.444 16.325,8.517 16.336,8.541 C 16.241,8.667 16.175,8.818 16.15,8.989 L 16.161,8.933 L 16.069,9.314 L 15.445,11.921 L 15.237,12.8 L 15.174,13.069 L 15.04,13.624 L 15.019,13.696 C 14.978,13.828 14.916,14.027 14.916,14.261 L 14.916,15.161 L 18.03,15.161 L 19.545,15.165 L 19.78,15.165 C 20.437,15.168 21.018,15.126 21.556,15.04 C 22.735,14.852 23.803,14.475 24.733,13.923 C 25.632,13.389 26.314,12.78 26.771,12.107 C 26.784,12.139 27.451,14.028 27.451,14.028 L 27.623,14.517 C 27.757,14.906 27.896,15.307 28.05,15.703 L 28.059,15.724 L 28.17,16.032 L 28.198,16.143 C 28.3,16.618 28.704,16.924 29.183,16.887 L 29.133,16.888 C 29.133,16.888 29.809,16.603 29.879,16.475 L 29.938,16.409 C 30.179,16.115 30.437,15.833 30.71,15.535 C 30.71,15.535 31.052,15.158 31.053,15.158 L 32.284,13.768 L 32.934,13.032 L 33.675,12.195 C 33.675,12.195 33.797,12.057 33.973,11.859 C 33.909,12.133 33.847,12.393 33.847,12.393 L 33.642,13.257 L 33.588,13.462 C 33.531,13.672 33.468,13.911 33.443,14.178 L 33.356,15.159 L 37.003,15.159 L 37.451,15.161 C 38.472,15.166 39.529,15.171 40.595,14.941 C 41.186,14.814 41.763,14.629 42.309,14.395 C 42.915,14.135 43.443,13.8 43.878,13.506 C 44.834,12.863 45.551,11.92 45.845,10.916 C 46.024,10.309 46.035,9.686 45.881,9.117 C 45.724,8.539 45.383,7.983 44.896,7.509 C 44.13,6.766 43.065,6.272 41.724,6.039 C 41.447,5.992 41.151,5.954 40.845,5.929 C 40.583,5.908 40.335,5.909 40.095,5.91 L 39.902,5.91 L 38.125,5.908 L 36.35,5.908 L 35.831,5.91 C 35.447,5.914 35.084,5.917 34.725,5.902 L 34.64,5.897 C 34.431,5.884 34.144,5.867 33.836,5.963 L 33.836,5.963 L 33.834,5.965 M 18.269,9.975 C 18.269,9.975 18.574,9.975 18.811,9.975 C 18.737,10.288 18.233,12.418 18.233,12.418 C 18.233,12.418 18.068,13.127 18.015,13.36 C 17.999,13.36 17.465,13.36 16.956,13.36 C 16.973,13.29 16.99,13.218 16.99,13.218 L 17.199,12.34 C 17.199,12.34 17.61,10.619 17.764,9.975 C 18.008,9.975 18.269,9.975 18.269,9.975 L 18.269,9.975 M 20.406,11.058 C 20.406,11.058 20.767,9.531 20.805,9.371 C 21.01,9.375 21.212,9.383 21.408,9.404 C 21.6,9.425 22.564,9.554 22.618,10.059 C 22.621,10.088 22.622,10.118 22.622,10.147 C 22.622,10.624 22.215,11.069 21.814,11.293 C 21.683,11.368 21.527,11.426 21.334,11.492 C 21.066,11.583 20.851,11.64 20.655,11.673 C 20.525,11.694 20.389,11.706 20.25,11.715 C 20.324,11.408 20.406,11.058 20.406,11.058 L 20.406,11.058 M 24.796,7.709 C 24.796,7.709 25.244,7.709 25.427,7.709 C 25.427,7.947 25.427,8.42 25.427,8.42 C 25.427,8.714 25.498,8.947 25.559,9.141 C 25.599,9.269 25.625,9.409 25.64,9.58 C 25.65,9.674 25.654,9.768 25.654,9.858 C 25.654,10.17 25.602,10.451 25.498,10.698 C 25.25,11.287 24.667,11.867 23.811,12.375 C 23.407,12.616 22.961,12.811 22.486,12.965 C 22.556,12.932 22.625,12.904 22.695,12.865 C 23.769,12.263 24.424,11.219 24.424,10.145 C 24.424,10.053 24.419,9.96 24.409,9.867 C 24.293,8.785 23.475,8.005 22.183,7.708 C 23.392,7.709 24.796,7.709 24.796,7.709 M 31.187,11.749 L 31.436,11.425 L 31.603,11.213 L 31.812,10.936 L 32.082,10.581 C 32.332,10.268 32.601,9.952 32.859,9.646 L 33.179,9.267 L 34.325,7.906 L 34.389,7.831 C 34.389,7.831 34.444,7.763 34.499,7.696 C 34.51,7.696 34.645,7.705 34.645,7.705 C 34.874,7.715 35.103,7.718 35.33,7.718 C 35.109,7.843 34.97,8.017 34.897,8.108 C 34.897,8.108 34.876,8.133 34.876,8.134 C 34.871,8.14 33.969,9.149 33.969,9.149 L 32.323,11.004 L 31.585,11.84 L 30.93,12.58 L 29.711,13.955 C 29.711,13.955 29.513,14.171 29.436,14.257 C 29.398,14.148 29.359,14.042 29.322,13.93 L 29.146,13.43 L 27.944,10.033 L 27.682,9.301 C 27.682,9.301 27.401,8.516 27.392,8.491 C 27.39,8.485 27.386,8.471 27.386,8.471 C 27.275,8.079 27.097,7.849 26.909,7.712 C 27.442,7.712 27.806,7.712 28.011,7.712 C 28.012,7.719 28.065,7.893 28.065,7.893 C 28.183,8.284 28.322,8.662 28.456,9.028 L 28.632,9.515 C 28.816,10.035 28.977,10.578 29.133,11.105 C 29.187,11.287 29.238,11.481 29.253,11.668 C 29.29,12.174 29.708,12.571 30.205,12.571 L 30.814,12.504 L 31.068,11.939 C 31.093,11.886 31.13,11.827 31.187,11.749 L 31.185,11.749 L 31.187,11.749 M 35.598,12.811 L 36.012,11.066 L 36.174,10.361 L 36.241,10.061 C 36.241,10.061 36.25,10.023 36.263,9.97 C 36.418,9.972 36.623,9.974 36.623,9.974 C 36.623,9.974 36.991,9.974 37.321,9.974 C 37.283,10.137 37.244,10.302 37.244,10.302 L 37.176,10.6 L 37.081,10.996 C 36.969,11.466 36.852,11.954 36.752,12.444 C 36.752,12.444 36.612,13.126 36.564,13.361 C 36.263,13.361 36.003,13.361 35.467,13.361 C 35.527,13.105 35.598,12.811 35.598,12.811 L 35.598,12.811 M 38.834,11.415 L 38.929,11.015 L 39,10.712 L 39.139,10.127 L 39.187,9.938 C 39.233,9.762 39.279,9.562 39.315,9.354 C 39.709,9.368 40.086,9.41 40.438,9.51 C 40.739,9.594 40.941,9.7 41.039,9.824 C 41.103,9.907 41.138,10.02 41.138,10.149 C 41.138,10.158 41.138,10.168 41.138,10.178 C 41.121,10.596 40.825,11.007 40.347,11.278 C 40.19,11.367 40.009,11.445 39.811,11.509 C 39.55,11.595 39.325,11.652 39.14,11.677 C 39.018,11.695 38.891,11.703 38.765,11.71 C 38.787,11.611 38.81,11.511 38.834,11.415 L 38.834,11.415 M 41.233,12.846 C 42.257,12.266 42.894,11.296 42.937,10.251 C 42.938,10.217 42.939,10.184 42.939,10.149 C 42.939,9.617 42.768,9.109 42.453,8.709 C 42.109,8.273 41.611,7.968 40.929,7.775 C 40.858,7.755 40.79,7.743 40.72,7.727 C 40.963,7.748 41.197,7.776 41.416,7.814 C 42.391,7.983 43.139,8.315 43.638,8.801 C 43.896,9.051 44.07,9.323 44.142,9.59 C 44.171,9.699 44.186,9.816 44.186,9.937 C 44.186,10.091 44.162,10.249 44.116,10.411 C 43.938,11.017 43.485,11.601 42.872,12.013 C 42.506,12.26 42.066,12.539 41.597,12.741 C 41.399,12.827 41.192,12.902 40.984,12.97 C 41.066,12.929 41.154,12.89 41.233,12.846 L 41.233,12.846 z " /><path
   id="path585"
   style="fill:#ffffff;opacity:1"
   d="M 17.41,6.719 C 19.812,6.719 22.214,6.719 24.616,6.719 C 25.812,6.719 27.007,6.719 28.203,6.719 C 28.269,6.719 28.336,6.71 28.403,6.717 C 28.483,6.725 28.507,6.825 28.535,6.891 C 28.626,7.099 28.681,7.322 28.747,7.539 C 28.909,8.073 29.116,8.596 29.302,9.123 C 29.492,9.663 29.655,10.208 29.817,10.755 C 29.891,11.005 29.952,11.25 29.971,11.508 C 29.974,11.541 30.002,11.576 30.026,11.576 C 30.042,11.529 30.062,11.484 30.084,11.44 C 30.138,11.334 30.204,11.233 30.272,11.136 C 30.41,10.942 30.564,10.761 30.71,10.571 C 30.874,10.358 31.03,10.138 31.197,9.927 C 31.558,9.474 31.938,9.038 32.31,8.594 C 32.692,8.14 33.074,7.686 33.456,7.232 C 33.538,7.134 33.624,7.039 33.701,6.937 C 33.762,6.858 33.823,6.764 33.923,6.732 C 34.105,6.675 34.318,6.703 34.504,6.711 C 35.057,6.735 35.614,6.716 36.168,6.716 C 36.76,6.716 37.351,6.716 37.943,6.716 C 38.535,6.716 39.127,6.717 39.718,6.719 C 40.009,6.72 40.301,6.711 40.592,6.734 C 40.86,6.756 41.125,6.788 41.39,6.835 C 42.366,7.004 43.364,7.362 44.086,8.063 C 44.425,8.394 44.704,8.8 44.829,9.261 C 44.947,9.692 44.924,10.147 44.799,10.572 C 44.547,11.431 43.928,12.174 43.194,12.669 C 42.737,12.976 42.278,13.259 41.772,13.478 C 41.273,13.692 40.754,13.857 40.224,13.971 C 39.105,14.213 37.959,14.169 36.822,14.169 C 35.935,14.169 35.048,14.169 34.159,14.169 C 34.183,13.9 34.274,13.637 34.337,13.375 C 34.404,13.088 34.473,12.8 34.541,12.513 C 34.679,11.931 34.817,11.349 34.956,10.767 C 35.034,10.436 35.108,10.104 35.183,9.771 C 35.218,9.612 35.256,9.456 35.298,9.298 C 35.321,9.215 35.34,9.093 35.398,9.025 C 35.426,8.99 35.494,8.986 35.535,8.982 C 35.625,8.972 35.717,8.972 35.807,8.974 C 36.02,8.979 36.232,8.984 36.445,8.984 C 37.052,8.984 37.663,8.984 38.272,8.984 C 38.235,9.269 38.152,9.544 38.084,9.822 C 38.011,10.118 37.943,10.418 37.873,10.717 C 37.729,11.321 37.58,11.925 37.454,12.534 C 38,12.534 38.545,12.554 39.085,12.478 C 39.36,12.439 39.648,12.361 39.911,12.273 C 40.154,12.194 40.39,12.094 40.611,11.969 C 41.285,11.587 41.826,10.923 41.858,10.122 C 41.871,9.783 41.779,9.442 41.566,9.174 C 41.305,8.842 40.901,8.662 40.503,8.55 C 39.51,8.268 38.439,8.371 37.418,8.376 C 37.122,8.377 36.827,8.378 36.53,8.38 C 36.388,8.38 36.246,8.381 36.103,8.381 C 35.958,8.382 35.795,8.362 35.652,8.386 C 35.53,8.406 35.446,8.552 35.37,8.637 C 35.266,8.754 35.163,8.869 35.059,8.986 C 34.859,9.21 34.66,9.433 34.459,9.656 C 33.661,10.548 32.871,11.447 32.077,12.343 C 31.451,13.05 30.831,13.762 30.199,14.464 C 29.817,14.888 29.42,15.303 29.057,15.744 C 29.022,15.787 28.97,15.836 28.95,15.89 C 28.949,15.893 28.949,15.894 28.949,15.897 C 28.909,15.897 28.905,15.909 28.896,15.865 C 28.882,15.802 28.866,15.74 28.846,15.678 C 28.806,15.545 28.755,15.415 28.704,15.285 C 28.492,14.742 28.31,14.185 28.115,13.637 C 27.715,12.505 27.314,11.372 26.914,10.24 C 26.79,9.891 26.663,9.542 26.54,9.194 C 26.478,9.025 26.418,8.857 26.357,8.688 C 26.325,8.598 26.279,8.329 26.145,8.329 C 26.145,8.488 26.189,8.631 26.238,8.783 C 26.301,8.987 26.336,9.191 26.355,9.404 C 26.404,9.929 26.351,10.467 26.145,10.957 C 25.761,11.867 24.919,12.565 24.089,13.059 C 23.214,13.579 22.231,13.9 21.23,14.06 C 20.688,14.147 20.147,14.176 19.6,14.173 C 19.015,14.172 18.431,14.169 17.846,14.169 C 17.25,14.169 16.657,14.169 16.062,14.169 C 15.919,14.169 15.777,14.169 15.634,14.169 C 15.634,14.035 15.695,13.89 15.729,13.76 C 15.803,13.481 15.865,13.198 15.931,12.917 C 16.209,11.756 16.484,10.594 16.764,9.434 C 16.794,9.306 16.825,9.179 16.856,9.052 C 16.867,9.005 16.855,8.983 16.908,8.983 C 16.945,8.983 16.979,8.983 17.015,8.983 C 17.087,8.983 17.158,8.983 17.229,8.983 C 17.516,8.983 17.802,8.983 18.088,8.983 C 18.648,8.983 19.208,8.983 19.768,8.983 C 19.487,10.165 19.207,11.35 18.927,12.532 C 19.492,12.532 20.063,12.561 20.62,12.468 C 20.9,12.423 21.174,12.343 21.441,12.252 C 21.659,12.178 21.872,12.1 22.072,11.988 C 22.818,11.571 23.427,10.762 23.332,9.872 C 23.227,8.882 22.18,8.509 21.324,8.417 C 20.806,8.36 20.283,8.374 19.763,8.375 C 19.168,8.377 18.574,8.375 17.979,8.375 C 17.752,8.375 17.525,8.375 17.298,8.375 C 17.25,8.375 17.202,8.375 17.155,8.375 C 17.115,8.375 17.011,8.396 17.011,8.353 C 17.011,8.246 17.061,8.124 17.087,8.021 C 17.194,7.586 17.301,7.152 17.408,6.717" /><polyline
   points="0,48 0,0 48,0 48,48 "
   style="fill:none;opacity:1"
   id="_x3C_Slice_x3E_" />
</svg>