<?xml version="1.0" encoding="UTF-8" standalone="no"?>
<!-- Created with Sodipodi ("http://www.sodipodi.com/") -->
<svg
   xmlns:xapMM="http://ns.adobe.com/xap/1.0/mm/"
   xmlns:xapGImg="http://ns.adobe.com/xap/1.0/g/img/"
   xmlns:xap="http://ns.adobe.com/xap/1.0/"
   xmlns:pdf="http://ns.adobe.com/pdf/1.3/"
   xmlns:a="http://ns.adobe.com/AdobeSVGViewerExtensions/3.0/"
   xmlns:x="adobe:ns:meta/"
   xmlns:dc="http://purl.org/dc/elements/1.1/"
   xmlns:cc="http://web.resource.org/cc/"
   xmlns:rdf="http://www.w3.org/1999/02/22-rdf-syntax-ns#"
   xmlns:svg="http://www.w3.org/2000/svg"
   xmlns="http://www.w3.org/2000/svg"
   xmlns:sodipodi="http://sodipodi.sourceforge.net/DTD/sodipodi-0.dtd"
   xmlns:inkscape="http://www.inkscape.org/namespaces/inkscape"
   width="48pt"
   height="48pt"
   viewBox="0 0 48 48"
   style="overflow:visible;enable-background:new 0 0 48 48"
   xml:space="preserve"
   id="svg1369"
   sodipodi:version="0.32"
   sodipodi:docname="web.svg"
   sodipodi:docbase="C:\Users\schroede.silverwhite\Documents\localcvs\spielwiese\flex\dnd\svg"
   inkscape:version="0.45.1"
   inkscape:output_extension="org.inkscape.output.svg.inkscape">
  <defs
   id="defs1515">
    
    
    
    <linearGradient
   y2="18.9375"
   x2="42.1875"
   y1="18.9375"
   x1="5.812"
   gradientUnits="userSpaceOnUse"
   id="XMLID_21_">
      <stop
   id="stop1435"
   style="stop-color:#0053BD"
   offset="0" />
      <stop
   id="stop1436"
   style="stop-color:#0032A4"
   offset="0.9944" />
      <a:midPointStop
   id="midPointStop1437"
   style="stop-color:#0053BD"
   offset="0" />
      <a:midPointStop
   id="midPointStop1438"
   style="stop-color:#0053BD"
   offset="0.5" />
      <a:midPointStop
   id="midPointStop1439"
   style="stop-color:#0032A4"
   offset="0.9944" />
    </linearGradient>
    
    
    
    <radialGradient
   gradientUnits="userSpaceOnUse"
   gradientTransform="matrix(0.1875,0,0,0.1875,19.5,19.5)"
   fy="-66.1196"
   fx="16.5093"
   r="146.2394"
   cy="-66.1196"
   cx="16.5093"
   id="XMLID_22_">
      <stop
   id="stop1444"
   style="stop-color:#FFFFFF"
   offset="0" />
      <stop
   id="stop1445"
   style="stop-color:#57ADFF"
   offset="0.5955" />
      <stop
   id="stop1446"
   style="stop-color:#C9E6FF"
   offset="0.9944" />
      <a:midPointStop
   id="midPointStop1447"
   style="stop-color:#FFFFFF"
   offset="0" />
      <a:midPointStop
   id="midPointStop1448"
   style="stop-color:#FFFFFF"
   offset="0.5" />
      <a:midPointStop
   id="midPointStop1449"
   style="stop-color:#57ADFF"
   offset="0.5955" />
      <a:midPointStop
   id="midPointStop1450"
   style="stop-color:#57ADFF"
   offset="0.5" />
      <a:midPointStop
   id="midPointStop1451"
   style="stop-color:#C9E6FF"
   offset="0.9944" />
    </radialGradient>
    
    <linearGradient
   y2="28.9878"
   x2="23.9307"
   y1="2.2344"
   x1="23.9307"
   gradientUnits="userSpaceOnUse"
   id="XMLID_23_">
      <stop
   id="stop1454"
   style="stop-color:#FFFFFF"
   offset="0" />
      <stop
   id="stop1455"
   style="stop-color:#57ADFF"
   offset="0.9944" />
      <a:midPointStop
   id="midPointStop1456"
   style="stop-color:#FFFFFF"
   offset="0" />
      <a:midPointStop
   id="midPointStop1457"
   style="stop-color:#FFFFFF"
   offset="0.5" />
      <a:midPointStop
   id="midPointStop1458"
   style="stop-color:#57ADFF"
   offset="0.9944" />
    </linearGradient>
    
    <linearGradient
   y2="37.0314"
   x2="23.9458"
   y1="8.5708"
   x1="23.9458"
   gradientUnits="userSpaceOnUse"
   id="XMLID_24_">
      <stop
   id="stop1461"
   style="stop-color:#0066CC"
   offset="0" />
      <stop
   id="stop1462"
   style="stop-color:#003366"
   offset="0.2" />
      <stop
   id="stop1463"
   style="stop-color:#428AFF"
   offset="1" />
      <a:midPointStop
   id="midPointStop1464"
   style="stop-color:#0066CC"
   offset="0" />
      <a:midPointStop
   id="midPointStop1465"
   style="stop-color:#0066CC"
   offset="0.5" />
      <a:midPointStop
   id="midPointStop1466"
   style="stop-color:#003366"
   offset="0.2" />
      <a:midPointStop
   id="midPointStop1467"
   style="stop-color:#003366"
   offset="0.5" />
      <a:midPointStop
   id="midPointStop1468"
   style="stop-color:#428AFF"
   offset="1" />
    </linearGradient>
    
    
    
  
      
      
      
      
      <linearGradient
   id="XMLID_16_"
   gradientUnits="userSpaceOnUse"
   x1="23.9995"
   y1="41.546902"
   x2="23.9995"
   y2="45.078098">
        <stop
   offset="0"
   style="stop-color:#CECEDB"
   id="stop1378" />
        <stop
   offset="0.191"
   style="stop-color:#FFFFFF"
   id="stop1379" />
        <stop
   offset="0.4831"
   style="stop-color:#CECEDB"
   id="stop1380" />
        <stop
   offset="0.7528"
   style="stop-color:#B3B3C6"
   id="stop1381" />
        <stop
   offset="0.9944"
   style="stop-color:#828282"
   id="stop1382" />
        <a:midPointStop
   offset="0"
   style="stop-color:#CECEDB"
   id="midPointStop1383" />
        <a:midPointStop
   offset="0.5"
   style="stop-color:#CECEDB"
   id="midPointStop1384" />
        <a:midPointStop
   offset="0.191"
   style="stop-color:#FFFFFF"
   id="midPointStop1385" />
        <a:midPointStop
   offset="0.5"
   style="stop-color:#FFFFFF"
   id="midPointStop1386" />
        <a:midPointStop
   offset="0.4831"
   style="stop-color:#CECEDB"
   id="midPointStop1387" />
        <a:midPointStop
   offset="0.5"
   style="stop-color:#CECEDB"
   id="midPointStop1388" />
        <a:midPointStop
   offset="0.7528"
   style="stop-color:#B3B3C6"
   id="midPointStop1389" />
        <a:midPointStop
   offset="0.5"
   style="stop-color:#B3B3C6"
   id="midPointStop1390" />
        <a:midPointStop
   offset="0.9944"
   style="stop-color:#828282"
   id="midPointStop1391" />
      </linearGradient>
      
      
      <linearGradient
   id="XMLID_17_"
   gradientUnits="userSpaceOnUse"
   x1="167.1348"
   y1="405.13089"
   x2="167.1348"
   y2="408.66211"
   gradientTransform="matrix(0,-1,1,0,-382.8965,205.1035)">
        <stop
   offset="0"
   style="stop-color:#CECEDB"
   id="stop1395" />
        <stop
   offset="0.191"
   style="stop-color:#FFFFFF"
   id="stop1396" />
        <stop
   offset="0.4831"
   style="stop-color:#CECEDB"
   id="stop1397" />
        <stop
   offset="0.7528"
   style="stop-color:#B3B3C6"
   id="stop1398" />
        <stop
   offset="0.9944"
   style="stop-color:#828282"
   id="stop1399" />
        <a:midPointStop
   offset="0"
   style="stop-color:#CECEDB"
   id="midPointStop1400" />
        <a:midPointStop
   offset="0.5"
   style="stop-color:#CECEDB"
   id="midPointStop1401" />
        <a:midPointStop
   offset="0.191"
   style="stop-color:#FFFFFF"
   id="midPointStop1402" />
        <a:midPointStop
   offset="0.5"
   style="stop-color:#FFFFFF"
   id="midPointStop1403" />
        <a:midPointStop
   offset="0.4831"
   style="stop-color:#CECEDB"
   id="midPointStop1404" />
        <a:midPointStop
   offset="0.5"
   style="stop-color:#CECEDB"
   id="midPointStop1405" />
        <a:midPointStop
   offset="0.7528"
   style="stop-color:#B3B3C6"
   id="midPointStop1406" />
        <a:midPointStop
   offset="0.5"
   style="stop-color:#B3B3C6"
   id="midPointStop1407" />
        <a:midPointStop
   offset="0.9944"
   style="stop-color:#828282"
   id="midPointStop1408" />
      </linearGradient>
      
      <linearGradient
   id="XMLID_18_"
   gradientUnits="userSpaceOnUse"
   x1="24.0005"
   y1="46.875"
   x2="24.0005"
   y2="40.125">
        <stop
   offset="0"
   style="stop-color:#CF0000"
   id="stop1411" />
        <stop
   offset="0.9944"
   style="stop-color:#FF6D00"
   id="stop1412" />
        <a:midPointStop
   offset="0"
   style="stop-color:#CF0000"
   id="midPointStop1413" />
        <a:midPointStop
   offset="0.5"
   style="stop-color:#CF0000"
   id="midPointStop1414" />
        <a:midPointStop
   offset="0.9944"
   style="stop-color:#FF6D00"
   id="midPointStop1415" />
      </linearGradient>
      
      <linearGradient
   id="XMLID_19_"
   gradientUnits="userSpaceOnUse"
   x1="23.9995"
   y1="37.5"
   x2="23.9995"
   y2="50.062698">
        <stop
   offset="0"
   style="stop-color:#FFF030"
   id="stop1418" />
        <stop
   offset="0.9944"
   style="stop-color:#FFAE00"
   id="stop1419" />
        <a:midPointStop
   offset="0"
   style="stop-color:#FFF030"
   id="midPointStop1420" />
        <a:midPointStop
   offset="0.5"
   style="stop-color:#FFF030"
   id="midPointStop1421" />
        <a:midPointStop
   offset="0.9944"
   style="stop-color:#FFAE00"
   id="midPointStop1422" />
      </linearGradient>
      
      <linearGradient
   id="XMLID_20_"
   gradientUnits="userSpaceOnUse"
   x1="23.9995"
   y1="41.4375"
   x2="23.9995"
   y2="44.249901">
        <stop
   offset="0"
   style="stop-color:#FFFFFF"
   id="stop1425" />
        <stop
   offset="0.4971"
   style="stop-color:#FFE3A9"
   id="stop1426" />
        <stop
   offset="0.9944"
   style="stop-color:#FFC957"
   id="stop1427" />
        <a:midPointStop
   offset="0"
   style="stop-color:#FFFFFF"
   id="midPointStop1428" />
        <a:midPointStop
   offset="0.4886"
   style="stop-color:#FFFFFF"
   id="midPointStop1429" />
        <a:midPointStop
   offset="0.9944"
   style="stop-color:#FFC957"
   id="midPointStop1430" />
      </linearGradient>
      
    </defs>
  <sodipodi:namedview
   id="base"
   inkscape:zoom="6.2833333"
   inkscape:cx="30"
   inkscape:cy="30"
   inkscape:window-width="893"
   inkscape:window-height="763"
   inkscape:window-x="637"
   inkscape:window-y="238"
   inkscape:current-layer="svg1369" />
  <metadata
   id="metadata1370">
    <!---->
    <x:xmpmeta
   x:xmptk="XMP toolkit 3.0-29, framework 1.6">
      
    <metadata
   id="metadata8264"><rdf:RDF>
        <rdf:Description
   rdf:about="uuid:d4b1e067-9d10-46d5-ac75-df446932c8ba">
          <pdf:Producer>
Adobe PDF library 5.00</pdf:Producer>
        </rdf:Description>
        <rdf:Description
   rdf:about="uuid:d4b1e067-9d10-46d5-ac75-df446932c8ba" />
        <rdf:Description
   rdf:about="uuid:d4b1e067-9d10-46d5-ac75-df446932c8ba" />
        <rdf:Description
   rdf:about="uuid:d4b1e067-9d10-46d5-ac75-df446932c8ba">
          <xap:CreateDate>
2004-01-18T18:19:36+02:00</xap:CreateDate>
          <xap:ModifyDate>
2004-03-29T09:07:39Z</xap:ModifyDate>
          <xap:CreatorTool>
Adobe Illustrator 10.0</xap:CreatorTool>
          <xap:MetadataDate>
2004-01-18T18:19:36+01:00</xap:MetadataDate>
          <xap:Thumbnails>
            <rdf:Alt>
              <rdf:li
   rdf:parseType="Resource">
                <xapGImg:format>
JPEG</xapGImg:format>
                <xapGImg:width>
256</xapGImg:width>
                <xapGImg:height>
256</xapGImg:height>
                <xapGImg:image>
/9j/4AAQSkZJRgABAgEASABIAAD/7QAsUGhvdG9zaG9wIDMuMAA4QklNA+0AAAAAABAASAAAAAEA
AQBIAAAAAQAB/+4ADkFkb2JlAGTAAAAAAf/bAIQABgQEBAUEBgUFBgkGBQYJCwgGBggLDAoKCwoK
DBAMDAwMDAwQDA4PEA8ODBMTFBQTExwbGxscHx8fHx8fHx8fHwEHBwcNDA0YEBAYGhURFRofHx8f
Hx8fHx8fHx8fHx8fHx8fHx8fHx8fHx8fHx8fHx8fHx8fHx8fHx8fHx8fHx8f/8AAEQgBAAEAAwER
AAIRAQMRAf/EAaIAAAAHAQEBAQEAAAAAAAAAAAQFAwIGAQAHCAkKCwEAAgIDAQEBAQEAAAAAAAAA
AQACAwQFBgcICQoLEAACAQMDAgQCBgcDBAIGAnMBAgMRBAAFIRIxQVEGE2EicYEUMpGhBxWxQiPB
UtHhMxZi8CRygvElQzRTkqKyY3PCNUQnk6OzNhdUZHTD0uIIJoMJChgZhJRFRqS0VtNVKBry4/PE
1OT0ZXWFlaW1xdXl9WZ2hpamtsbW5vY3R1dnd4eXp7fH1+f3OEhYaHiImKi4yNjo+Ck5SVlpeYmZ
qbnJ2en5KjpKWmp6ipqqusra6voRAAICAQIDBQUEBQYECAMDbQEAAhEDBCESMUEFURNhIgZxgZEy
obHwFMHR4SNCFVJicvEzJDRDghaSUyWiY7LCB3PSNeJEgxdUkwgJChgZJjZFGidkdFU38qOzwygp
0+PzhJSktMTU5PRldYWVpbXF1eX1RlZmdoaWprbG1ub2R1dnd4eXp7fH1+f3OEhYaHiImKi4yNjo
+DlJWWl5iZmpucnZ6fkqOkpaanqKmqq6ytrq+v/aAAwDAQACEQMRAD8A9U4q7FXYq7FXYq7FXYq7
FXYq7FXYq7FUNqGqaZpsBuNRu4bK3HWa4kSJB/snIGThjlM1EEnyYymIiyaYNq/59flhprMn6UN7
KvVLSKSUfRJRYz/wWbDF2PqJ/wANe/8AFuJPtDFHrfuYpff85UeWEJ+o6NezjsZmihr0/lM2ZsPZ
7J1lEfM/qceXasOgKVt/zlioYhfKxK1+Em+oSPcfVzl3+h3+n/sf2sP5W/o/b+xpf+csV5Dl5WIW
vxEX9SB7D6uMf9Dv9P8A2P7V/lb+j9v7Ezsf+cqvK7kfXtFvYB3MLRTU6/zNDlM/Z7J0lE/MfrbI
9qQ6gss0f8/fyv1JlQ6qbGVukd5FJEPpkAaIf8FmFl7H1EP4b934tyIa/FLrTOdO1XTNStxcadeQ
Xtuek1vIkqH/AGSFhmvnjlA1IEHzcqMhLcG0VkGTsVdirsVdirsVdirsVdirsVdirsVdirsVdirs
VdirsVdirsVdirsVYb52/NryZ5R5Q3939Y1EDbTrWkk3+z3Cx/7Ij2rmfpOzcufeIqPeeTi59Zjx
czv3PI7/APOH81vOcj2/lLTv0ZYk8TcRgO4HflcyhY18fhUNm9x9lafBvkPEfx0dXPX5cm0BQQ1n
+SOv6zci98063Lc3D/bCM00h9vXmO3/AnLpdpQxiscQB+OgaRppTNyNs40X8hfKNsFZtONww/wB2
3cjOfpSqJ/wua/L2xPv+TlY+z/Jllp+Xnl3T1Hp2dpb/AMoggQMaeAVanrmFLtCcu8+8uSNEAmCa
DYL8AllAHQCFwAPuplX5qXcPmz/Kx7z8nT6BYrErPcM0Uuw+AMCCpb9Q8MY6uV8lOlj3pZefl95e
1FW52lleU+0JYo3Ir812OXR7QnHvDWdGDyosR1v8h/J9yHb9GNasf93Wjsv3IC8Y/wCBzNxdrT/n
X73Hnoq6MHvPyO1vSbj675T12S3uU3QSM0MgpuB60H/NIzPHaMJiskbH46Fx/BlE3Eoix/OP83PJ
MqQeb9O/SmnghRcSAI9OwS5hDRse9HUt8soydlabPvjPDL8dG+GuyQ+rcPXvI35w+SfOASGxu/qu
pt1027pHMT/xXuVk/wBiSfEDNHq+zcuDci494/GzssOrhk5HfuZtmA5LsVdirsVdirsVdirsVdir
sVdirsVdirsVdirsVdirsVQOta5pOiadLqWq3SWllCKvNIaCvZQOrMeyjc5ZiwyyS4YiywyZIwFy
NB4H5o/OPzn521CTQ/ItvLZWB+GW9Hw3DIdubSdIE+R5e/bOn03ZWLAOPMbl3dP2ukz9oTynhx7D
7f2Inyj+Sek2ciXWuN+ldQc8jEamAMTU/Cfik+bbe2S1HaUiKj6Q1YtKOu5erWWkWlrCEZQiRjit
vCoNP8nb4FPgM0uTUEnZ2UMAHNO4vRt4uSw8HOyqaFyewqK/rzDkTI83LiAByUrq/W0QzO5crtKC
aKWIqqqOx/4169sMMfEaRKfDulEesySzfDWSaQ0ooqfkAOwzKOAAeTQMtlM4n4hjesRRatEFZlA6
nmwFDt2/XmPL+i3A96Nu4I7q3eCQsEelSpodiCKH6MrgTE2GchYpBxwaZaiRYHRLjiVDPISwNPFi
Sv0ZYZTlz5MAIjlzRiGSQBvUZEO9CFD1r9k1FKD8fHxqOzYN1C6s45v76FZT/vyP4HBr7nsP8r6M
nDIY8iwnjB5hI7/Q/UikWILdwkUlt5Fo/E12ZWG9fcb5nY9SOuxcPJpz03eS+bPyT0HUme50F/0P
qankIQD6BYf5A+KPfumw/lzc4dfOO0vVFwJYgeWxQnlj85PPXkG+j0Pz5bTahpv2YbwnncKg/ajl
PwzqPBjyHj2yvU9l4s448J4Zd3T9jkYdbOG09w+hNA8w6N5g0uLVNHu0vLGYfBLGeh7qwO6sO6nc
ZzObDPHLhkKLt4TEhY5JhlTN2KuxV2KuxV2KuxV2KuxV2KuxV2KuxV2KuxVj3nfzxonk7Rn1LVHq
TVbW1Qj1ZpP5UB/4Y9BmVpNJPPPhj8T3NGo1EcUbk+f0tfOP5s6x+ltblay8vQsfq0KVCKtaFIAf
tNt8Ujf2Z1URi0ceGG8/xz/U6CUp6iVy2i9X8v6Dpml2iadpNusFunUqKlj3Zid2b3Y5q8+Yk8Uj
u5eLGOUWTW0EcK0PU/aoevzPU/Lp7Zr5yMnOhARV2epQqxT0wQoULQV26EHtldNluMslC3MvIAQh
am1f9ULjwray+gsL3Tlgkl9BCQyMxCsGHWvLud65LHKUJWBbGYEo0qaXa6bax8bMq7U+OXkGc/Mj
9XTI5ZykfUnHGMeSy/tILi5V2mmDqoBhiK8SASfiqDStfEYcczEVQROIJ5lFcnf+9O3++1O3bqdi
f1e2V13NnvVBKAABsBsAMjTK2/W98eFbd63vjwraxyklOQqR0PQiu2xG4wgUg7pdqWmx3Sluso+z
IKBxSvyDdutPnmRhzGHucfNhEvew/XtI0/ULaTSdetUurV+jMDUHsynZlO/Ub5tMMz9WM0XXTHCe
GTye407zp+UWsHXfLc7Xvl2cqLmF/iRlr8KXCr4fsSrT6K0OwPhauPBMVP8AHL9SITliNx5PoX8v
/wAw9A876MNQ0t+E0dFvbGQj1YJCOjU6qf2WGx+dQOW1mjngnwy+B73dYM8cgsMnzEbnYq7FXYq7
FXYq7FXYq7FXYq7FXYq7FUj85+cNI8paFNq+pv8AAnwwQKRzmlP2Y0HifwG+ZOl0s88xCP8AY058
8cUeIvn3RtL1z8zPMEnmjzQ7Jo8Lcba2FVRlU/3MXgi/tt1J9606uRhpYeHj+r8bvPXLPLjnyen2
8kTyLp1giRQwKoZEAVIo+i7Dbt8K5rp+kcUuZcmHqNDkn0LRwoETYDv3PzzBlZNlzo0BQX/WPfI8
LLid9Y98eFeJwuSfboR03BFQdvY48KOJVjE8iB0HJT0NR8vHImgyG64wXJFClQeoJH9cbC7t2oEP
KMAL0ZuIoORJ28NlAG2RlumGyI9X3yPCzt3q++PCtu9X3x4Vt3q++PCtu9X3x4Vt3q++PCtoXUbS
3vrdoZfhYj4JVpyQ+IrlmKZgbDXlgJiiwNtSaw1F9B1qNCZ0b01IrDcwnZmj5V7fbjO49xvm6EBl
jxw/s/He6YyOKXDL+38dzzTzDoGvfllr0XnHyfKTpDMBNCSWRFcisMwr8UTn7J6g/wCVQnKjKGph
4WUer8bjzbYyOM8UX0Z5C89aP508vQ6xpp4k/Bd2rEGSCYD4o2p96nuN85PV6WWCZhL+13mHMMkb
DI8xm12KuxV2KuxV2KuxV2KuxV2KuxVSu7q2tLWa6upFhtrdGlmlc0VEQcmYnwAGSjEyIA5lEpAC
y+Z9Sv8AUvzc89NIxeDyvphpEm44xE/d6s1PoHy37HDijosNf5SX4+QeazZTqcn9Afj7WaatqyWr
Wnl/Q4kW4kUJbRAfu4ok2MzgfsJ2H7RyjHj2M5/jyRPJZEIfjzT3TLaDT7RbeJi5rylmc1eSQ/ad
z4n8Og2zCySMzZc/HEQFBFfWffIcLPiVIDNO/CIFj3PYV8TkZUOaQbRi6bckjnIqjuVqT9FQMqOQ
M+Eo97a1dFVoxRQFUioIUdByG+VCRDOgqRKkUYjjHFF6Dr798B3SNl3PBS2hJ/3T8h9hzX5Mdz9+
TG6LpT9bDwrbvWx4Vt3rY8K271seFbd62PCtu9bHhW3etjwraS+bfLtn5j0l7Kc+lOh9Szul+3FK
PssP4jMnS55YZ8Q+Pm0anAMsaPwYB5X8ySi5uvKnmeJTcryhnRwCkq0oWp3qu/uNxm6z4BKIyY3T
YMxhIwmxWC51X8mvzAjvbXnceV9T+GSOtecFalD29WGtVPcfM5DLijrMNHbJH8fIuww5Dhnf8JfU
2m6jZanp9vqFjMs9ndRrLbzL0ZHFQc4+cTEkHmHeggiwicil2KuxV2KuxV2KuxV2KuxV2KvD/wDn
IPzndTzWnkPRmL3d60b6iqHchyPRgPhyPxt7cexOdH2JpALzT5Dl+k/odL2pqDtij15/qQ7LpfkD
yatqCGlROd042aad9qD/AFjsPBRmWLz5OI8ujgzIxw4Qo+S7S4it5dY1HfVdUpJJX/dcX+64lr0A
G5/swamfEeEfSG3S4uEcR+osrthdXJpBG0nYkfZB67sdhmHIgc3LFlN7XRTs109f+K0r+Lf0+/KJ
Zu5sEO9NoxHGgSNQqjoAKDMc7tgXc8aW3c8aW3c8aW3c8aW0svLqR55Ii1I0ZfhFN6BW3PXrlkY7
MbtRa5CirGg8TkuFNuFyCKg1HiMeFbb9fHhW3CckgDckgAe5xpbbkkkjaj0BrThUFh35ECu2AC0W
16+HhTbvXx4Vt3r48K285/Nzy9JNaR+ZNPql/p1DOV6tEDUN84z+FfDNn2dqOE8B5F1vaGn4hxjm
FLT20/8AMPyRLpN0VS6C1t5DuYriMbEewr/wBpl+UHDPjjy6tOnycceEtf8AOOfnm80vVbv8vdcJ
jkjkkOnBzukqE+rCPY05L9PjmB23pAQM0eR5/oP6HbaDN/Afg+iM5x2bsVdirsVdirsVdirsVdiq
A1/WrTRNFvdXuzS3sYXmcdCeI2Ue7HYZbhxHJMQHMlry5BCJkej50/LK2uda13VvPes/HJ6knok9
PWk3fjXoERgi/P2zsNXUIRwweawkykckmNee9W1XzV5lfStMja5WzLF1QgKZBs7EkgAJ9gVP68nj
AgKceZMjbIPyu82XmvTpo97yaaFQxvexjG3xk/t9h45i6iAiLDm6fNexe4xLHFGscY4ogoo9hmnO
7sV3PBS27njS27njS27njS27njS2oXWoQ2y/GaufsoOp/syQha2kUc3FFWvQAZdShGWV/awrykVj
MdiwoQB4CpGQlAlWrvULSWrJG6y1Hx/CAR0+LfwxjAhVWKxmeNJC/EtuUI6KenvXAZLax20+F2im
dppKb8NgtaihFaV274dzyRaD9cBm4seFfgDUqB9GTpIb+se+PCl31j3x4VcboAEk0A3JOPCryX8y
fzUjmin0PRJOcbgx3l6p2KnZo4/EHozfd45n6bT0eKTrtVqbHDFif5c+ZpNK8wQoX4w3TKhqdhIP
sH6a8T88z5VIUXXi4mwyn849Lm03VtK8+aPWOR3QXLr+zNGAYmNP5lUo3yHjlGlAnGWGf4/HN2PH
RE4vo/yR5ntvM/lew1mA/wC9MSmVf5ZAPjU/TnIZsRxzMDzBd/CYlEEdU8ypm7FXYq7FXYq7FXYq
7FXjH/OS3mR4ND0/y3bEmbVJfWuEXqYoSOCkf5cpBH+rnQdgae5nIf4f0/s+90/a+aoiA6se80Xk
fkf8vLbT4iFuooQDT9q4krU+45lm+S5nxlxzlkPwddkHCBAfF51YahN5a8oxS+g63fmGpl1RgSkM
bVVfs8mZuJLgU796ZaTs1AbvQ/y+0bR9L0RG064S++snnLfIKeoRWgpVqca0pkZbsgzyw1aWMBJa
vH2PcZh5cAO4crHmI2KcRXMUq8kao/HMOUCOblCYPJfzwUyt3PGlt3qDGltKL7zBGtY7Uhm6GXqo
/wBXx/V88sjjtICUNdlmLMxLNuSTUnLeFk19Z98eFXfWffHhV31n3x4Vct0VDBWK8xR+JpUe9MHC
tO+s++HhV31n3x4Vd9ZHjjwqlWvecdE0KD1dRuVjYiscC/FK/wDqoN/p6YRAlhOYjzeO+cfzT1bX
g9pa1sdMOxiU/vJB/wAWMO3+SNvnmTjgI+9wsuYy25BhfrZdxuNwNi4KkEGhG4I6g48a8D6F0Bov
PP5bXGnS0M9zbngT+zcxnY9qD1VDfI5XOfBOOQfFtwcjFr/nFrzTJG2oeV7pipRvWt0bYg781p8w
a5g9v4KmMg/i/R+z7nbdn5LiY9z6Izn3YuxV2KuxV2KuxV2KuxV85ea5j5o/PwW5+Oz0YpGAdwBa
r6jAj/jOxGddo4+Dor6y/T+x5zVS8TU10j+j9rBPz58wNdeYY9NjasVsDJIO3I/Av3BSf9lkT6Yg
fFrHqkT8GdaPZ29/5UsbO/twYpbOFJ7aQEU/drUeIIPTvmWBcQ4pNSTvTLO0sLSKzs4lhtoV4xxr
0A/r4nIEMwUxjfKiGwFFwyspBU0PiMqlFsiUfDfydH+L36HKJYg3xyFFJdRt3p88qMC2CYSzzJOV
sUKsQGkCkA7EcSd/uyWOO7ZA7sa+sHL6bHfWDjSu+sHGld9YONK76wcaV31g40qhdarZ2kfqXdxH
bx/zyuqD72IxpBIDGNV/NjyrYgrDM99KP2LdSVr/AK7cVp8q4KYHLEMMv/zS8xaslxBpSjTnoZI0
Q+pI6KCZArsNmp8Ww8e/UgNEsx6MBnurq4laa4keaZzV5JGLMT7k1OStqIU+bY8RXhdzbHiK8Lub
Y8RXhew/84+646Xl5pbnbks8S17P+7k+gHhkj6oEMOUgVVZH8n/nw0kI4W97MJlA2BW4AkoB4esO
OS1kfF0d9Y/o/Y5mmlw5fe+sY5EkjWRDVHAZT4giozkndLsVdirsVdirsVdirTsqKXY0VQSxPQAY
gK+ZvyllOoeZPM3mSUEs3Jyzbkm5laZt/H93na62PDCGMfitnldPK5SmxL81tK0q1urXWQ3+5OaV
Q9ux5LKkY3YjtSig5HNEDfqwwSJ26Jno/wCbeh3BVL+GWxc9X/vYx9K/F/wuSGcHmxOAjkznTdV0
+/hE1lcR3MXdo2DU+dOmS2LHcc0yjfKyGYKJjkyshsBRCSZWQ2Aq6SZWQzBSzzVoMXmHRJtOeZ7a
VqPbXMZIaOVfstsRUb0I8MjVMrfPWq6p5/8AK+qS6ZeX86Tw7qZG9ZHQn4XQyBqqafwywJ8SQ6tw
/mf5vjpznilp/PEor/wHHCnxZIlPzZ80KDWG0f3aOT+EgxT4xc/5s+aGpSK1T/Vjf+LnFfGKGm/M
7zhJXhcRw9fsRIf+JhsUeLJLLrzh5qugRLqlwAeojb0hv7R8cWJyHvSiVpZXLyu0jnqzEsfvONMb
WcMaVVtJp7S6huoGKTwOskTjsymoP34qnvm7RbeM2utacgTS9WT1Y416QzD+9h/2LV4/2ZKUerCM
ujH0geRuKKWbc8VFTsKnpkaZ2iZdHvItNg1F0AtLh2jicMCSydQV6jDwGrY8QukJwwUyZZ+V1+LD
zpYlm4R3PO3ck03kU8B/wYXJQ5sJ8md/nzF9U8weXdfjBBZKcgO9vIsq7+P705kaGPFCeM/i9m2U
qIk+lfJ14Lvy3Yy15ER+mT/qHiPwGcWXoU5xV2KuxV2KuxV2KpT5uujaeVNaugeJt7C5lDb7cIWa
u3yy/TR4ssR3yH3tWeVY5HyLwD8nkSDybrV42we4MTN7JEp7b/7szr9cbzRDzOn2xyLxvzLrdzru
rTX09QrHjBF2SMfZX+vvmPI2W2EaFJX6eRpkrWd1eWU4ntJnt5l6SRMUb7xhCDuzrQPzc1i0Kxar
EL6EUHrLSOYD6Phb7h88mJnq1nGOj0/y95q0bXITJp84dkAMsLDjIlf5lP6xtkubCiE8STIEMgVd
ZcgQyBVVlyJiyBY9528maZ5q030J6RXsIJs7wCrIx7HxQ9xgAplbwLUPJXmewvJbWbTLhniJHOKJ
5I2HZkdRQg5NVOLyf5pmp6ej3rAmnIW8tK/PjTFVmteWNY0UW/6Tt/qz3Ks8UbMpfippVgCeP04r
aW+njSu9PGld6eNK708aV3p40qc2uven5cutDuYDPBLIs9rIH4mGQbEgFWqD4bd/HJg7UwMd7X+X
fMEujOZbawhmNP8ASZpAzOYyQCoavFAa/wAv34YS4eiJw4urIPzImtpLPRLfToFis54zdQxRoEr6
gXiOK9DTJ5jyprwjnaP8s/lAs9mLnWpXillQmO1joChI+Euxrv34jIDH3sjl7mEaZpkkOs2huYmN
pHfR280g5BSyuOShl3rx8N8hTbb138/oBJ5R0e6pUxXXo8ttucTGnj/urLtAaySDKX0h7F+TN6br
yRZsTU8I3r/xkiVs5PUx4csh3SP3u/xG4g+TOsobHYq7FXYq7FXYqx/8wyw8g+ZCq8j+jLwUrTYw
OCfoG+ZWh/v4f1o/e4+q/upf1T9zwr8taD8r9ZKMeX1iYntQiGLpnVa3+/H9X9bzuD+6Pv8A1PDu
GVU2u4Y0ruGNK7hjSsn8heZrfy9qkstzGz29wgjkKU5LRgQ1D1yUdmE429p0vV7DUrZbmxnWeFv2
lPQ+BHUH2OTpp5JgsuRMWQKosuQMWVrxLg4U2u9XBwp4nerjwrxPO/zo0z61olpqKLV7KXg58I5h
Sp/2ar9+EBILxrhhpk7hjSu4Y0ruGNK7hjSonT9Lu9Qu47S0jMk8poqjoPEk9gO+ERtBlQsvQ9W8
kGw8pGw06FrvULiaIzyKu7Fan/YovbLpQqNBx45LlZTma40ry75b0aTXbUyXFp6aQxxhJHSYIalS
WUbU8fDATQCgEk0reZfO/wBS8p22q2EZE2onhaiWlUBBJcgEgkU6VyJLKMN0vsNHjn/K3TJCoM1v
dJdhgNyxuypJP/GN8qLZ1Tf8+RTyBp4/7WUf/JmfLND/AHx936m0/QHpf5Dk/wCC7Ydvq9p/yYXO
W1v9/P8Ary+932D6I+4PScxm12KuxV2KuxV2KpL52ga48ma/AteU2nXca0FTVoHHTvmRpDWaB/pD
72nUC8ch/RP3PBvykUXPkPWbOlW+sSMQDuQ8MYp/wmdZr9s0T5freb02+MjzeKcMjTN3DGldwxpX
cMaV3DGlTPy9q2q6VqMcunM3quyq0A3WUE/YZe9cIRIAvellywxcYFUEuR4WVrxLg4U236uDhW3e
rjwptKfNdm2o+Xb+zQ0eSIlP9ZCHA+krTHhUS3eAcMFNzuGNK7hjSu4Y0q5IXd1RFLOxAVRuSTsB
jS29j8oeVYNEshyAe+mANxL4f5C/5I/HL4xoOJOfEWRM0UMTyysEijUs7tsAoFSTgJUBg/mCyk88
6Qt7pEMqyWEzxwrLxRJ1anIoSdiOI608Mqkbb4+lK4PJvnXVk0zRNQtvqljYGQrdNQhUkKkg8WIY
jj8Pz8MiSzeuadoVjaaTBpcalrWBVVQx3PBg1SRT9oVyklIDEP8AnIGQR+TdMt/2pL5ZB40WGT/q
pl3Z2+QnybZ7RD1D8joWh8pRRN1SG1Xw+zCB/DOW1crzTP8ASP3u+wioD3B6NmO2OxV2KuxV2Kux
VTuII7i3lgkFY5UZHG32WFD1wxNG0EWKfNf5KGS2vPMOiTGkyFfh8GjZ4pNvmVztO0SCITDy2lFG
UXleq2X1TVLy1pT0J5Iqf6jlf4YAyQvDGldwxpXcMaVwjJNAKk9BhpbeteW/LFhpNtDIYFa/Kgyz
tuwYjcLX7IHTbL4wAcOeQk+TIFlxMWNrxLg4WVrxLkeFNt+rjwrxO9XHhXiWu4ZSrbqRQj2OPCvE
8A4ZVTlu4Y0ruGNK7hjSsv8AJHlDULjUbfUbmIw2cDCVDIKGRl3XiDvSu9ckA1zntT1RI8kS0gJX
5rutBg0trbWZXit7qqqsXLmxT4qDj/HbKyWyId5R8xaVd+XZbuG3+o2mmh1lhHx8UjTnyFBU1X2r
XISbKTvy/rula3BJPp0hljifg5KshDUr0YDxyuVhkAncaZSS2APKP+chp2mu/L+jxmsp9V2X3cpH
Ht/sWzM7O2EplnkG4D3n8srRbfQDxFELcVHsgoPwzjZGzb0AFMvwJdirsVdirsVdirsVfN8kP+Gv
z91G1I4W2qvIyN0BF2ouBT/nsOOdhjl4uiiesf0bfc81lj4epI7/ANO7DvzS0j6h5zvCq8YrsLcx
geDijf8ADKclglcQiYosS4ZbTB3DGldwxpU68n6S2oa/bJxrFC3rTHsFTcV+bUGLGZ2ettFlgk4p
CkYslxMaW8WGG1p1WxVvm2NLbubY0ttVbFXkGuaPJpepS2j1KqeUTn9pD9k/wPvlJDmRlYQHDBTJ
3DGlZPpq2eh2tvPJaC91u9Ae0hcVWJGNEYjuzncfwwsDv7npGh2F9DaiTUJTNfT0ec/sp4RoBsAv
45ElhSbJHkCUgJX50hU+VNS5AGkRIr2NRkQd2YDxSG5vII5I4J5Io5QVlRHZQykUIYA7gjLqZJn5
f8163oKTR6dIqJOQ0iugcVAoCK5GWMHmkF6r+Usurapb3msapcyXMkkohhEhoipGoZ+CCiryLDoO
2YepqOwbsQtg/m+f9P8A51RW6/HBpXpx17D6upmav/PViuXZZeFo5HrL9O33N2GPFlHk+oPKNobX
QbZCKMw5MPfp/DOQd4nGKuxV2KuxV2KuxV2KvCf+cktGms77QvN1otJbdxazSdg8betbn7+f4Z0v
YGYETxH3/oP6HR9r46Mcg936kp/M+xh17ypp3mayHIRorvTr6UwB390f+OX6e4TMC0ZPVESDyThm
dTQ2sTMwVVLMxoqgVJJ7DGleweUfKEGjWCvMitqMwrPIQDxB/wB1qfAd/E/RmPKdlBCcR6fawF2g
hSIyGshRQpY+JoN8IkwIc0WSEmJCm0WSEmNLDFkuJFLTFh4kUt9LHiWneljxLwtiLHiWmMeftEFz
pYvo1/fWe7e8bGh+47/fgtsx7PN+GGm5MvL2jSapqkdsqF1UGSVQaEogqVBOw5fZBPjgOyCXoflv
ypcrqEmtauqi/kJ9C3BDLCvQbioqF2HgMrlJiy1IsrMkgKN5qNnYzWkM5Ie9lEEAUV+Ijv7ZHmyA
Q/nOP/nVNT/4wn9YwQPqDOtnhfDMymDYjJNAKk40r6D0WG38o+Q1luxwFjatPcjuZCDI6/PkeIzV
SvJkodS5kRwxeWfktpd1q+vX2uXI5z3cxTl/Mzt6033njg7ezACOIe/9A/S5XZ8Ocn1nbwrDBHCv
SNQo+gUzm3aL8VdirsVdirsVdirsVSDz75Xj8z+UtR0VqCW4iJtnPRZ0+OI18OaivtmVo9R4OWM+
77urRqcPiYzF4d+UGqJeaVqPlDVF/e23qBYJNj6TnjKn+wkO/wDrZ1HaEKkMkeRee0srBgejA/Mm
gXGiazcadMDSNqxOf24z9lvu6++X4picbDGQo0n/AOWfl4X2rNqEy1t7ChSvQzN9n/gev3ZXnnQr
vTEW9VaLMUSZEKLRZISYkKbRZMSYkKZiyXExpYYsPEilpiw8SKa9LHiWneljxLThFjxLSne2Au7K
4tSeIuI3iLUrTmpWtPpx4kgMQi/KuGo9XUGYV34xBdvpZsl4rNlWh+WtN0eAx2kZ5v8A3kz7u3zO
23sMrlO1pNliysySAqrFkTJmAw+9Mmved7K2swfq+huZLyVhRefIVUeP2QPvy36YWeqKss0vdMt9
QsprK5UtBOvCQA0ND7jMUTo228LAvMP5SWsFhPd6TLPJNEvJLNgshffcKRwPT55kY9VZosTi22QP
5ffl7qd1rMd5qtpJa2dmwkEc6MjSyDdVCsAeIO5P0YdTqIiNA7lcWMk7ov8AP7zMYrC08sWbFrm/
ZZbhF6+kjUjX/Zybj/Vx7OxbnIeQbcp6BnX5K+Ul02xtkZa/VY6yN2MrHkx/4M7fLOZ1mo8bLKff
93R3eDHwQAeuZitrsVdirsVdirsVdirsVdir54/OXQLvyZ55s/PGkx0sr+Wt4i7L9YofVVvadKn/
AFuXtnV9k5xnwnDLnHl7v2PP9o4TiyDJHkfv/amXnHRLTzf5at9b0n95cRx+rbkDeSM/ajNP2gR0
/m274MEzimYyYziJx4gxb8rtaFpqMmkznjFefFDXtMo6f7JfxAzL1WOxxDo04zvT1FoswBJuIUmi
yQkxIUmiyQkxpYYslxMaWGLDxIpaYsPEimvSx4l4Xelh4l4W/SwcS0uEWDiTS4RYOJNL1iwGSaVV
iyJkyAVFiyBkyAQuneXrCxv7y+t1YT3xDT1NQSCTsO3XGWUkAdyRBNkiyolsAV0jyslmAoazqtlo
2lXOpXr+nbW0ZkkbvxHYeJY7AeOHHAzkAEk0HgXk21v/ADp52uvM9+lY1l/0aM1Kq/8AutR7RJv8
6HMztbOMGEYY85c/d+1losXHLjPIPqvy1pS6dpUUVKOwDP4+2cq7hNcVdirsVdirsVdirsVdirsV
SrzR5b07zJoN3o2oLytrtOPIfaRxuki/5SNQjLtPnlimJx5hqzYhkiYnq+efJOsaj5D81XXkvzGf
TtmlpbTt/dq7/YdSf91TCnyPWnxZ12eEdRjGXH+P2h5zGThmYSTT8wfJE8F1+ntGjajMJLmKMfEk
gNfUUD3+177/ACr0mpBHBJszYq3DN9Fnu7zSba4vIGtrp0HrQuOJDDYmh6A0qMw8lRkQDYbY7jdE
tFkRJBCm0WSEkUsMWS4mNLDFh4kUt9LDxLTXpYeJHC70seJeFv0sHEtLhFjxJpcIsjxJpesWDiTS
osWRMmVKqxZEyZAKqxZAyZAKyRZAlmAq8VReTdBkbtlVPAfzT833XnHzDD5T0J+djDL/AKVOv2JJ
V6tX/fcQ+8+Pw5ucEI6bGcs/x+0uMbyS4Q9f/KryRa2FnAEjpbWyjjyG7E7lj7udznJ6jPLLMzlz
LvceMQiIh6llLN2KuxV2KuxV2KuxV2KuxV2KuxV59+cH5YQ+c9GE9mqpr9ipNlKaD1U6mBz4H9kn
ofYnNn2Z2gdPOj9B5/rcHXaMZo7fUOX6nm/5ZfmHOs3+FvMhaHVLZjBBJN8LOU+H0ZK9JFOwJ69O
vXeazSAjxMe8T+Pk6jBmIPBLm9SMYIqNwc1duZSm0WSEmJCmYslxIpYYsPExpYYsPEimvSw8S8LX
pYeJFO9LHiWnCLBxJ4Vwix4lpcIsHEml4iyPEmlRYsiZMqVFiyJkyAVViyJkyAVOKovJtgMjdsqp
43+bn5oSiRvK3lxzJqU59G6mh3MfLYwxkf7sb9o/s9Ov2dvotIIjxJ/SPx8nFyZCTwjmi/yk/LI2
iKZUD3s9DdSdlA39MH+Vf2j3P0ZpO0+0DqJ0PoHL9btdLphjG/1F9A2VnDZ2yQRD4VG57k9yc1jl
K+KuxV2KuxV2KuxV2KuxV2KuxV2KuxV5V+cP5Ow+Z421vRlWDzBCtXUfCtyqjYMezj9lvoPtt+zO
1DgPDLfH9347nXa3QjL6o7T+9gfkP81bmyuf8P8Am8tb3cLekt5N8O424T16Hwf7/E7nU6KMxx4t
wfxt+p1eLOYnhnsXr0ZimQNGQQRX6DmoNjm5wouMWPEtLDFh4mNLTFh4lpaYsPEimvSw8SKd6WPE
vC2IsHEmmxFjxLS4RYOJNLxFkeJNL1iwGTKlRY8iSmmppYoELuQABXfwGIBKkgPE/wAxvziub24P
l/yexnupSYpL+H4gK9Vt/E+Mnbt4jc6bRRhHjy7Afjf9TiTymRqKp+WH5VyW8qXVyvr6lLs79RHX
7SoT+1/M/wDmdP2l2mc54Y7Y/v8Ax3Oz0ukGPc/U+htF0e30y1WKMD1CBzYe3Ye2ahzUwxV2KuxV
2KuxV2KuxV2KuxV2KuxV2KuxV2KsA/Mz8o9F8427XCAWmsov7q7Qfa8Fcbchmfoe0MmnO28eocTV
aOGYb7HveKWfmHz3+Wd+NL1q3e60pW4xAk0A8YJSPh/1D+HXOkj4GsjcDU/xzH6XSyjk05qX0vXP
K3nzy75kg52FyGlArJA3wTJ/rx+HutRmrz6SeM7hyseeMkTrPmaz0n47q1uWg2/0mKNXi37Fg3wn
2amODSyyciL7uqcmUR5gsKk/MMyebIbhZZItDjHBoqfaBU/Gy+PI/hm1HZ1YSK/eOIdT67/hZDef
mP5Xt2jEby3QkFS0KbLvT4vUKH7swodm5jzoe9vlqoDzX2v5heVriRUM0kLOQo9SNgKnbcryAwT7
OzAcrUamBT19Q0uNGd7uBUUVZjIgAA+nMQY5nofk3cUe9K9P85+Xb/UVsLaZmlblwdlKoeIJNC1O
wzIyaLLCPERs1xzwkaCaS6ppMF4tlNdxRXTU4wu4Vjy2WgPWuY4xTMeIA02mUQaJ3RwjGU2zpsKM
FppxKqKsQB4nHmrGvNv5g+XPLNuZNQuQspFYrdfimf8A1I/D/KagzLwaOeQ7BpnmEXieuecvOv5i
3D2OmRtp+h8uM3xGjD/i6QD4v9Rdvn1zZy8DRi5m5/jl+tohCeY0OT0H8ufylgsQPTjMk7gevdSC
jEeHfgnt1Oc5re0MmoO+0egdxp9NHGNufe9s0nR7XTYBHCo50oz0p9A8BmA5COxV2KuxV2KuxV2K
uxV2KuxV2KuxV2KuxV2KuxV2Kpbrvl3SNcs3tNSt0nicUPIA/ryUJmJsGiiURIUdw8J85f8AOPmo
adcHUvK1y0RjPNI+TAofFZB8afj883+l7dIHDmHEO/8AY6nP2WDvjNMes/zO8/8AleQWnmWwa8gH
wGSQenIV6UEqgo/+yFffNlHBp9QLxS3/AB05uDKWXFtMJ3b+bPyo8xUM7HR7x92DD0BX/WAeCn3E
5IR1OLl6h8/2o4sU+e34+SMP5fR3cfr6RqsF3Cdwx+z8g8ZkB/DJx7TracSPx50xOmvkUBN5C8yx
1K2yyqP2kkj/AFMyt+GZEe0MJ618CwOnmg38q+YFNDYTV9lr+quWjV4j/EGHhT7mv8L6/wD9W+f/
AIA4/msX84L4Uu5Xi8meZJKcbJh7syL/AMSYZA63CP4kjBPuT2LR/NdlGJtQ8wfo22Xq8ly5A+hm
VPxzCnnwH6YcR9wb4wyDnKvi64/ODyn5etGtzq82u3YNaxKJN6UoJDxj4/7JjmMdBPLK+EQDcM4i
Ku2Fal+a/wCYPmmRrfy7ZGxtieJnX45AP8qZwET/AGIr75ccGn04vJLfu/ZzRE5Mn0hf5b/J27vr
r67rsz31xK3J15OVZj3eRvjkPyzXart0kcOEcI7/ANjnYezgN5m3uHlj8ubayii9WNYYox8ESqFo
P8lRsv680E5mRsmy7KMQBQZxb20FvEIoUCIOw/jkUqmKuxV2KuxV2KuxV2KuxV2KuxV2KuxV2Kux
V2KuxV2KuxV2KpTq/lbRdUjZLq3U8hQkAb18R0wgkGwgi3mXmP8A5x48v3haSyT0XPeA+mf+APwZ
ssHa+ox/xcQ89/2/a4eTQYp9K9zz7UfyH8yaXMZtOvpIWH2GIaNh/wA9FK/gM2UPaAEVOHy/Uf1u
HLsoj6ZMev7780vL2rwaQ2r3ElzMgeEGRpVKsWUf3w/yTlw7T0c+ca+H6ms6HOORv4/rTFvMf53w
oK3J4U+Filiajx3WuT/M6A9f90x/Lanu+5Bz+ePzgRSJL4qO5EdlX71SuH8xoe//AHS/ltR3fclC
+a/zD1e9FkdauVlc8SEkaJf+SIGVntPRw5Rv4frZjRZzzNfFktv+S+t3s3rarqEsrn7Z4ksf+ekr
V/4XKZ+0AAqEPn+ofrbY9l/zpM18vfkRpsJV/qRuGHSS4rIPubhF+Ga3P2vqMn8XCPLb9rmY9Dij
0v3vSdI/LiytlT1uIVRsigGg8BsFH3ZrSSTZcoCmV2emWVmAIIgrdOZ3b7zgSicVdirsVdirsVdi
rsVdirsVdirsVdirsVdirsVdirsVdirsVdirsVdirsVdirxP8zrW2b83/L6mJaNaQ8hQCv76fDHm
r0K/0PSjp0Z9AA8ezMP1HJDmh5/ruj6csT0h7fzN/XLa2V575WsbT/G6qYwV9Q7Gp7jxzHKX1PFa
WsX91Cie6qB+rFVXFXYq7FXYq7FXYq7FXYq7FXYq7FXYq7FXYq7FXYq7FXYq7FXYq7FXYq7FXYq7
FXYq7FXin5k3Nu/5p6TfRyrJaWNvFHdyowYRussxZSBU1AYVAzX5e1tNilwynv8AE/cC7LD2Rqcs
eKMDXwH3kMwu/PvlOSxSJL6rgUI9Kb/mjKx29o7+v/Yy/U2/yDrP5n+yj+th2r67pVxG4hn5E9Ph
cfrGWf6INH/P/wBjL9SP5B1n8z/ZR/Wwvy1aTxecYrmReMDyfC9R3Ip3wYe1tNllwxnv8R94DXn7
I1OKPFKBr4H7iX1Bmxda7FXYq7FXYq7FXYq7FXYq7FXYq7FXYq7FXYq7FXYq7FXYq7FXYq7FXhNz
50/NTUfOGuaTompKIrC6uVjiaG2osMc5jUcmiYmgp1wgWqK+t/n3/wBXGL/kVaf9UcPCVd9b/Pv/
AKuMX/Iq0/6o48JV31v8+/8Aq4xf8irT/qjjwlXfW/z7/wCrjF/yKtP+qOPCVQ+oaz+dNjZy3Op6
kq2CjjOY47YNRzwFCsSsN2G4Nc1/auSWPTzlHn+s07LsfBHLqoQlyv7gT+hG+R/J2n6xpyXE6iWa
YO/xu6Kqo5Snwbkk55xp9Ll1OY4sZAIF7/DyPe9X2r2pPBMiOwHkO6+rJ/8AlVuk/wC+Yv8AkdP/
AFzZ/wChvWfz8f2/8Q6n/RDl7z8ou/5VbpP++Yv+R0/9cf8AQ3rP5+P7f+IX/RDl7z8osY88+TtP
0bTZLiBRFLDwY8Hd1ZXcJT49xQnNZqNLl02YYshBJF7fHyHc7bsrtSeedS3BvoO6+iC07WPzovbK
K40vUlawYcYDIlsz0Q8DVniZjup3Jrno/ZWSWTTwlLn+o08p2xgji1U4R5X94B/SiPrf59/9XGL/
AJFWn/VHNhwl1rvrf59/9XGL/kVaf9UceEq763+ff/Vxi/5FWn/VHHhKu+t/n3/1cYv+RVp/1Rx4
SqV3v5hfmr5f1uwt9a1BZI5XjlkgWG2o8XqUZeSxqRyoRscBFK920u/j1DT4L2NSiTqGCNSo7U2w
KisVdirsVdirsVdirsVdirsVdirsVdirsVdirsVeIeQ7yO1/NTzc7gENNeDf/mMwxFq9Q/Ttt/Kv
3DJ8KHfp22/lX7hjwq79O238q/cMeFXfp22/lX7hjwqxf8zdYgl8j6lGqqGPoUIA7XEZzWdsQ/wa
Xw/3Qd17Pf47D/O/3JQX5WXXHy7ZvXqkw/5LtnC9l5ODWT/qf8S7ft2F5pe8f7lm36Q986f846Lw
XfpD3x/OL4LCfzTuuXl28evRIR/yXXOY7Uycesh/U/4p3vYUKzR95/3KN/LLWIIvI+mxsqlh69SQ
O9xIc7rseH+DR+P+6LqPaH/HZ/5v+5DKP07bfyr9wzZ8LpXfp22/lX7hjwq79O238q/cMeFXfp22
/lX7hjwq8a/Oe8juvNmkugAC26Db/jM2QkKS9t8of8o1p/8Axi/icCpvirsVdirsVdirsVdirsVd
irsVdirsVdirsVdir5ysb9LP8x/NEjGga7u1/wCnonJwO6Cyb/EkH8+W2Fd/iSD+fGwrv8SQfz42
Fd/iSD+fGwqR+dtdin8sXsSvUt6W3ylQ5ru1qOml8PvDu/Zwf4dj/wA7/cyTr8tJz/hGwYdxN/yf
fPNBIx1U/d/xL0Pa8f38vh9wZX9ZkzO8Yuq8MO+syY+MV8MMU/Muc/4Rv2PYQ/8AJ9MwTIy1UPd/
xTteyI/v4/H7ikvknXYoPLFlEz0K+rt85XOel9k0NNH4/eXnvaMf4dk/zf8AcxTz/EkH8+bGw6R3
+JIP58bCu/xJB/PjYV3+JIP58bCsF8836XmvafIpqFRF/wCShOVTO6h9FeUP+Ua0/wD4xfxOQSm+
KuxV2KuxV2KuxV2KuxV2KuxV2KuxV2KuxV2KvB/PH5Q69/iK81CwmNzFqU8118EZUxmWQvwNGNac
uvfFWP8A/KqfOH8kv/At/XFXf8qp84fyS/8AAt/XFXf8qp84fyS/8C39cVd/yqnzh/JL/wAC39cV
Quq/lZ5yj064kWCWYxoX9IKxLcdyAKmp22zG1mMzxSAdr2HqI4dXCcto3XzBH6Vb8v8A8yPLumaB
Fp2pTG1ntS4DFJJFdXcvUemrUI5U3zzvV6LOMxyYwJcQ/Hc932l2ZlyZTKAsH8dWTf8AK2fJP/Vy
H/Ii4/5oyrwdZ/MHzH/FOu/kbP8Azftj+t3/ACtnyT/1ch/yIuP+aMfB1n8wfMf8Uv8AI2f+b9sf
1sZ/MD8yPLupaBLp+mzG6nuSgZgkkaoqOHqfUVa1402y3SaLOcwyZAI8I/He7Hs3szLjyiUxQH46
Jb5b8heYdU02OW159KtGAarU18c9E0eMwxRBeE7c1Ec2rnOO8br5AD9Cbf8AKqfOH8kv/At/XMl1
Tv8AlVPnD+SX/gW/rirv+VU+cP5Jf+Bb+uKu/wCVU+cP5Jf+Bb+uKtx/lT5sWZJWhdyjBqFT2Nad
cVfQflaGWDy/ZRTIY5Ujo6MKEEMcVTTFXYq7FXYq7FXYq7FXYq7FXYq7FXYq7FXYq7FXYq7FXYq7
FXYq7FXm/nP8jfKXmHUJNTiiFnezHlcenySORj1cqhFGPc9+vXMeelxyNkO20/buswx4IZDwjvAP
3gsb/wChatH/AN/L/wAHL/XIfksXd9pb/wDRNr/9U/2MP+Jd/wBC1aP/AL+X/g5f64/ksXd9pX/R
Nr/9U/2MP+JRFj/zjtpVpcpMkkbFTX4i7fdyrvk4aXHE2A0ajt3WZo8M8h4T3AD7gHqHl/y/Z6LZ
i3txUmnN6UrTMh1KaYq7FXYq7FXYq7FXYq7FXYq7FXYq7FXYq//Z</xapGImg:image>
              </rdf:li>
            </rdf:Alt>
          </xap:Thumbnails>
        </rdf:Description>
        <rdf:Description
   rdf:about="uuid:d4b1e067-9d10-46d5-ac75-df446932c8ba">
          <xapMM:DocumentID>
uuid:edc784af-870b-4411-9d70-93084af35081</xapMM:DocumentID>
        </rdf:Description>
        <rdf:Description
   rdf:about="uuid:d4b1e067-9d10-46d5-ac75-df446932c8ba">
          <dc:format>
image/svg+xml</dc:format>
          <dc:title>
            <rdf:Alt>
              <rdf:li
   xml:lang="x-default">
network.ai</rdf:li>
            </rdf:Alt>
          </dc:title>
        </rdf:Description>
      <cc:Work
   rdf:about=""><dc:format>image/svg+xml</dc:format><dc:type
     rdf:resource="http://purl.org/dc/dcmitype/StillImage" /></cc:Work></rdf:RDF></metadata></x:xmpmeta>
    <!---->
  </metadata>
  <polygon
   style="opacity:1;fill:#616161"
   points="35.095,40.875 12.233,40.875 12.233,45.75 35.768,45.75 35.768,40.875 35.095,40.875 "
   id="polygon1376" /><rect
   x="12.905"
   y="41.547001"
   style="opacity:1;fill:url(#XMLID_16_)"
   width="22.188999"
   height="3.5309999"
   id="rect1392" /><polygon
   style="opacity:1;fill:#616161"
   points="21.563,31.912 21.563,44.393 26.438,44.393 26.438,31.545 21.563,31.545 21.563,31.912 "
   id="polygon1393" /><rect
   x="22.235001"
   y="31.912001"
   style="opacity:1;fill:url(#XMLID_17_)"
   width="3.5309999"
   height="12.113"
   id="rect1409" /><path
   style="opacity:1;fill:url(#XMLID_18_)"
   d="M 27.375,45.375 C 27.375,46.203 26.703,46.875 25.875,46.875 L 22.125,46.875 C 21.297,46.875 20.625,46.203 20.625,45.375 L 20.625,41.625 C 20.625,40.797 21.297,40.125 22.125,40.125 L 25.875,40.125 C 26.703,40.125 27.375,40.797 27.375,41.625 L 27.375,45.375 z "
   id="path1416" /><path
   style="opacity:1;fill:url(#XMLID_19_)"
   d="M 22.125,40.875 C 21.711,40.875 21.375,41.212 21.375,41.625 L 21.375,45.375 C 21.375,45.789 21.711,46.125 22.125,46.125 L 25.875,46.125 C 26.289,46.125 26.625,45.789 26.625,45.375 L 26.625,41.625 C 26.625,41.212 26.289,40.875 25.875,40.875 L 22.125,40.875 z "
   id="path1423" /><path
   style="opacity:1;fill:url(#XMLID_20_)"
   d="M 22.125,41.438 C 22.021,41.438 21.937,41.522 21.937,41.626 L 21.937,45.376 C 21.937,45.48 22.021,45.564 22.125,45.564 L 25.875,45.564 C 25.979,45.564 26.063,45.48 26.063,45.376 L 26.063,41.626 C 26.063,41.522 25.979,41.438 25.875,41.438 L 22.125,41.438 z "
   id="path1431" /><path
   id="path1440"
   d="M 11.166,6.088 C 7.713,9.531 5.812,14.085 5.812,18.909 C 5.812,28.952 13.971,37.123 24,37.123 C 34.029,37.123 42.188,28.952 42.188,18.909 C 42.188,8.897 34.028,0.752 24,0.752 C 19.173,0.752 14.615,2.647 11.166,6.088 z "
   style="fill:url(#XMLID_21_);opacity:1" /><path
   id="path1441"
   d="M 11.695,6.619 C 8.385,9.921 6.562,14.286 6.562,18.909 C 6.562,28.538 14.384,36.373 24,36.373 C 33.616,36.373 41.438,28.538 41.438,18.909 C 41.438,9.311 33.616,1.502 24,1.502 C 19.373,1.502 15.003,3.319 11.695,6.619 z "
   style="fill:#b0d9ff;opacity:1" /><path
   id="path1442"
   d="M 24,35.811 C 33.317,35.811 40.875,28.221 40.875,18.909 C 40.875,9.656 33.317,2.065 24,2.065 C 14.749,2.065 7.125,9.656 7.125,18.909 C 7.125,28.221 14.748,35.811 24,35.811 z "
   style="fill:#ffffff;opacity:1" /><path
   id="path1452"
   d="M 24,35.811 C 33.317,35.811 40.875,28.221 40.875,18.909 C 40.875,9.656 33.317,2.065 24,2.065 C 14.749,2.065 7.125,9.656 7.125,18.909 C 7.125,28.221 14.748,35.811 24,35.811 z "
   style="fill:url(#XMLID_22_);opacity:1" /><path
   id="path1459"
   d="M 23.942,15.527 C 29.722,15.527 34.751,13.535 37.338,10.6 C 34.733,5.628 29.699,2.234 23.918,2.234 C 18.187,2.234 13.147,5.616 10.524,10.575 C 13.104,13.524 18.146,15.527 23.942,15.527 z "
   style="fill:url(#XMLID_23_);opacity:1" /><path
   id="path1469"
   d="M 18.394,3.921 C 18.311,3.921 18.219,3.955 18.125,4.008 C 18.345,3.943 18.449,3.921 18.394,3.921 z M 23.827,4.981 L 23.882,4.186 L 23.043,4.239 L 23.154,4.981 L 23.827,4.981 z M 14.361,18.717 C 14.193,18.558 14.305,17.868 14.305,17.868 C 14.305,17.868 11.784,16.543 9.039,15.747 C 8.701,15.649 8.872,14.952 9.206,14.687 L 9.094,13.942 C 9.038,13.572 9.655,11.769 10.271,11.611 C 10.887,11.451 10.215,12.671 10.215,12.671 L 9.6,13.043 C 9.6,13.043 10.328,13.891 10.497,13.891 C 10.664,13.891 10.944,13.467 10.944,13.467 L 10.16,12.938 L 10.889,12.619 L 10.934,12.34 L 11.056,12.301 L 12.262,10.475 C 13.095,10.134 14.119,9.712 14.249,9.649 C 14.473,9.544 16.041,8.643 16.322,8.43 C 16.603,8.217 17.218,8.271 17.441,8.271 C 17.666,8.271 18.002,8.164 18.058,7.58 C 18.114,6.997 18.338,6.891 18.507,7.05 C 18.675,7.208 18.338,7.474 18.731,7.58 C 19.123,7.686 19.459,7.952 19.739,7.686 C 19.944,7.492 19.67,7.27 19.485,7.103 L 22.595,7.103 L 22.931,6.147 L 22.203,6.041 L 19.513,5.776 L 19.513,5.459 L 19.299,5.495 C 19.59,3.895 21.32,4.159 20.018,3.232 C 19.939,3.176 18.8,5.027 18.51,4.991 C 17.985,4.922 17.306,4.917 17.161,5.087 C 16.971,5.313 17.591,4.311 18.125,4.007 C 17.272,4.259 14.577,5.181 11.728,8.216 C 9.004,11.117 7.918,15.026 7.918,15.163 C 7.918,15.428 8.479,15.535 8.535,15.853 C 8.591,16.17 7.471,17.231 7.471,17.762 C 7.471,18.007 7.207,21.275 8.142,23.968 C 9.235,27.111 11.568,29.735 11.839,29.907 L 12.399,29.641 C 12.399,29.641 11.111,27.361 11.055,27.148 C 10.999,26.937 12.511,23.861 13.24,23.967 C 13.968,24.071 13.8,24.285 14.248,24.02 C 14.696,23.755 14.976,21.58 15.48,21.369 C 15.984,21.156 16.544,20.891 16.489,20.361 C 16.433,19.83 14.529,18.876 14.361,18.717 L 14.361,18.717 z M 26.516,3.125 L 25.004,2.594 L 25.284,3.444 L 26.516,3.125 z M 20.858,5.087 C 21.026,5.087 24.387,2.86 24.051,2.807 C 23.716,2.754 23.659,2.807 22.762,2.701 C 21.866,2.595 20.913,3.974 20.69,4.186 C 20.466,4.399 20.542,5.087 20.858,5.087 L 20.858,5.087 z M 36.28,21.078 L 36.714,20.515 L 36.28,20.362 L 35.955,20.771 L 35.576,21.332 L 35.901,21.486 L 36.28,21.078 z M 38.178,22.919 L 38.069,22.101 L 37.366,22.101 L 37.311,22.714 L 36.66,22.612 L 36.499,21.947 L 36.174,21.743 L 35.793,22.202 L 35.415,22.1 L 35.306,22.457 L 35.74,22.561 L 35.74,25.882 L 37.275,26.251 C 37.24,26.313 37.212,26.364 37.204,26.392 C 37.095,26.75 37.638,26.906 38.016,26.75 C 38.159,26.694 38.604,26.243 38.884,25.576 C 39.275,24.647 39.616,23.42 39.685,22.987 L 39.861,22.612 L 38.776,23.02 L 38.178,22.919 L 38.178,22.919 z M 40.455,16.733 L 40.172,16.185 C 39.836,14.294 39.068,11.874 37.42,9.373 C 34.94,5.613 28.039,3.445 28.039,3.445 L 27.66,3.904 L 27.443,3.548 L 26.9,3.342 L 26.9,3.802 L 27.389,4.212 L 27.064,4.365 L 25.816,4.467 L 22.998,6 L 23.269,7.226 L 22.942,7.33 L 22.78,7.585 L 23.701,8.964 L 23.756,9.425 L 22.997,9.578 L 22.997,10.497 L 22.564,10.6 L 22.619,11.316 L 18.931,13.873 L 19.039,15.302 C 19.31,15.66 21.425,17.808 21.425,17.808 C 21.425,17.808 23.864,17.909 24.406,17.603 C 24.948,17.296 24.569,17.909 24.732,18.062 C 24.894,18.216 24.948,19.289 25.11,19.391 C 25.273,19.493 25.11,20.106 25.327,20.312 C 25.544,20.515 25.544,22.97 25.544,22.97 C 25.544,22.97 26.846,25.167 26.846,25.729 C 26.846,26.291 26.791,26.24 27.823,26.189 C 28.853,26.138 29.069,25.729 29.286,25.577 C 29.504,25.423 29.504,25.065 29.721,24.758 C 29.938,24.451 30.317,23.276 30.805,22.868 C 31.292,22.458 32.594,22.151 32.701,21.436 C 32.809,20.72 33.298,20.157 33.298,20.157 L 35.642,17.678 L 35.577,18.011 L 35.522,19.287 L 36.227,19.032 L 36.173,17.651 L 35.919,17.383 L 35.955,17.344 C 35.955,17.344 35.792,17.038 35.576,17.038 C 35.359,17.038 34.056,17.344 33.841,17.293 C 33.624,17.242 32.701,14.788 32.539,14.687 C 32.376,14.584 31.347,12.897 31.347,12.897 C 31.347,12.897 33.733,15.76 34.112,16.883 C 34.333,17.538 35.16,16.928 35.833,16.245 L 36.012,16.68 L 36.445,16.576 L 36.39,16.065 L 36.878,16.065 L 36.878,16.832 L 36.715,17.241 L 36.659,17.905 L 37.094,18.315 L 37.312,17.958 L 38.015,17.293 L 38.829,16.884 L 39.046,17.293 L 39.154,17.856 L 38.936,18.469 L 38.503,18.827 L 38.285,19.747 L 38.285,20.206 L 37.798,19.9 L 37.744,18.929 L 37.039,18.981 L 36.714,19.849 L 37.202,20.566 L 38.341,20.719 L 39.263,19.849 L 39.371,18.164 L 39.78,17.622 C 40.048,18.309 40.238,19.027 40.238,19.696 C 40.238,20.43 40.574,19.188 40.288,16.95 L 40.455,16.733 L 40.455,16.733 z M 26.792,11.521 L 23.865,11.417 L 25.111,10.396 L 25.761,10.396 L 26.791,11.111 L 26.791,11.521 L 26.792,11.521 z M 30.371,11.163 L 30.371,11.623 L 29.125,11.623 L 29.232,11.93 L 28.473,12.033 L 28.419,12.287 L 27.876,12.186 L 26.9,11.98 L 27.063,11.725 L 27.225,11.417 L 27.767,10.855 L 27.985,11.264 L 28.798,11.213 L 29.231,10.753 L 30.912,11.06 L 30.371,11.163 L 30.371,11.163 z M 30.479,10.498 L 29.829,10.6 L 29.721,10.14 L 30.534,10.038 L 30.642,9.579 L 31.24,10.193 L 30.479,10.498 L 30.479,10.498 z M 33.624,26.393 L 33.244,26.7 L 33.298,27.468 L 33.786,27.468 L 33.786,26.805 L 34.221,26.242 L 34.221,25.066 L 33.95,25.014 L 33.624,26.393 L 33.624,26.393 z M 29.992,24.861 C 29.992,24.861 29.612,24.961 30.046,25.115 C 30.479,25.269 32.214,22.612 32.214,22.612 L 30.75,23.531 L 29.992,24.861 L 29.992,24.861 z M 27.041,34.657 L 26.717,34.348 L 26.066,34.244 L 25.959,34.553 L 25.092,34.451 L 25.037,34.039 L 24.387,34.039 L 23.683,34.451 L 22.437,34.451 L 22.329,34.141 L 20.324,33.934 L 19.998,34.244 L 19.186,34.039 L 19.078,33.317 L 18.699,33.264 L 18.265,34.038 L 16.803,33.986 C 17.064,34.11 19.249,35.413 22.599,35.685 C 27.042,36.044 29.156,34.964 29.156,34.964 L 28.993,34.809 L 27.041,34.657 L 27.041,34.657 z "
   style="fill:url(#XMLID_24_);opacity:1" /><g
   id="g1470"
   style="opacity:1">
      <linearGradient
   y2="27.8664"
   x2="28.1348"
   y1="3.3418"
   x1="28.1348"
   gradientUnits="userSpaceOnUse"
   id="XMLID_25_">
        <stop
   id="stop1472"
   style="stop-color:#FFFFFF"
   offset="0" />
        <stop
   id="stop1473"
   style="stop-color:#00008D"
   offset="1" />
        <a:midPointStop
   id="midPointStop1474"
   style="stop-color:#FFFFFF"
   offset="0" />
        <a:midPointStop
   id="midPointStop1475"
   style="stop-color:#FFFFFF"
   offset="0.5" />
        <a:midPointStop
   id="midPointStop1476"
   style="stop-color:#00008D"
   offset="1" />
      </linearGradient>
      <path
   id="path1477"
   d="M 31.347,12.9 C 31.347,12.9 31.742,13.373 32.235,14.01 C 34.36,13.156 36.12,11.983 37.339,10.6 C 36.476,8.953 35.345,7.48 34.01,6.246 C 31.198,4.439 28.04,3.446 28.04,3.446 L 27.66,3.904 L 27.443,3.548 L 26.9,3.342 L 26.9,3.802 L 27.389,4.212 L 27.064,4.365 L 25.816,4.467 L 22.998,6 L 23.269,7.226 L 22.942,7.33 L 22.78,7.585 L 23.701,8.964 L 23.756,9.425 L 22.997,9.578 L 22.997,10.497 L 22.564,10.6 L 22.619,11.316 L 18.931,13.873 L 19.018,15.023 C 20.563,15.349 22.218,15.527 23.941,15.527 C 26.935,15.527 29.727,14.992 32.083,14.069 C 31.744,13.551 31.347,12.9 31.347,12.9 z M 23.865,11.417 L 25.111,10.396 L 25.761,10.396 L 26.791,11.111 L 26.791,11.521 L 26.791,11.521 L 23.865,11.417 z M 30.371,11.163 L 30.371,11.622 L 29.125,11.622 L 29.232,11.929 L 28.473,12.032 L 28.419,12.286 L 27.876,12.185 L 26.9,11.979 L 27.063,11.724 L 27.225,11.416 L 27.767,10.854 L 27.985,11.263 L 28.798,11.212 L 29.231,10.752 L 30.912,11.059 L 30.371,11.163 z M 30.479,10.497 L 30.479,10.497 L 29.829,10.6 L 29.721,10.14 L 30.534,10.038 L 30.642,9.579 L 31.24,10.193 L 30.479,10.497 z "
   style="fill:url(#XMLID_25_)" />
      <linearGradient
   y2="7.5096002"
   x2="22.3179"
   y1="2.6953001"
   x1="22.3179"
   gradientUnits="userSpaceOnUse"
   id="XMLID_26_">
        <stop
   id="stop1479"
   style="stop-color:#FFFFFF"
   offset="0" />
        <stop
   id="stop1480"
   style="stop-color:#00008D"
   offset="1" />
        <a:midPointStop
   id="midPointStop1481"
   style="stop-color:#FFFFFF"
   offset="0" />
        <a:midPointStop
   id="midPointStop1482"
   style="stop-color:#FFFFFF"
   offset="0.5" />
        <a:midPointStop
   id="midPointStop1483"
   style="stop-color:#00008D"
   offset="1" />
      </linearGradient>
      <path
   id="path1484"
   d="M 20.69,4.186 C 20.466,4.399 20.542,5.087 20.858,5.087 C 21.026,5.087 24.387,2.86 24.051,2.807 C 23.716,2.754 23.659,2.807 22.762,2.701 C 21.866,2.595 20.913,3.974 20.69,4.186 z "
   style="fill:url(#XMLID_26_)" />
      <linearGradient
   y2="5.7859001"
   x2="23.4629"
   y1="4.1859999"
   x1="23.4629"
   gradientUnits="userSpaceOnUse"
   id="XMLID_27_">
        <stop
   id="stop1486"
   style="stop-color:#FFFFFF"
   offset="0" />
        <stop
   id="stop1487"
   style="stop-color:#00008D"
   offset="1" />
        <a:midPointStop
   id="midPointStop1488"
   style="stop-color:#FFFFFF"
   offset="0" />
        <a:midPointStop
   id="midPointStop1489"
   style="stop-color:#FFFFFF"
   offset="0.5" />
        <a:midPointStop
   id="midPointStop1490"
   style="stop-color:#00008D"
   offset="1" />
      </linearGradient>
      <polygon
   id="polygon1491"
   points="23.827,4.981 23.882,4.186 23.043,4.239 23.154,4.981 23.827,4.981 "
   style="fill:url(#XMLID_27_)" />
      <linearGradient
   y2="4.0957999"
   x2="18.267099"
   y1="3.9209001"
   x1="18.267099"
   gradientUnits="userSpaceOnUse"
   id="XMLID_28_">
        <stop
   id="stop1493"
   style="stop-color:#FFFFFF"
   offset="0" />
        <stop
   id="stop1494"
   style="stop-color:#00008D"
   offset="1" />
        <a:midPointStop
   id="midPointStop1495"
   style="stop-color:#FFFFFF"
   offset="0" />
        <a:midPointStop
   id="midPointStop1496"
   style="stop-color:#FFFFFF"
   offset="0.5" />
        <a:midPointStop
   id="midPointStop1497"
   style="stop-color:#00008D"
   offset="1" />
      </linearGradient>
      <path
   id="path1498"
   d="M 18.394,3.921 C 18.311,3.921 18.219,3.955 18.125,4.008 C 18.345,3.943 18.449,3.921 18.394,3.921 z "
   style="fill:url(#XMLID_28_)" />
      <linearGradient
   y2="4.3042002"
   x2="25.7598"
   y1="2.5941999"
   x1="25.7598"
   gradientUnits="userSpaceOnUse"
   id="XMLID_29_">
        <stop
   id="stop1500"
   style="stop-color:#FFFFFF"
   offset="0" />
        <stop
   id="stop1501"
   style="stop-color:#00008D"
   offset="1" />
        <a:midPointStop
   id="midPointStop1502"
   style="stop-color:#FFFFFF"
   offset="0" />
        <a:midPointStop
   id="midPointStop1503"
   style="stop-color:#FFFFFF"
   offset="0.5" />
        <a:midPointStop
   id="midPointStop1504"
   style="stop-color:#00008D"
   offset="1" />
      </linearGradient>
      <polygon
   id="polygon1505"
   points="26.516,3.125 25.004,2.594 25.284,3.444 26.516,3.125 "
   style="fill:url(#XMLID_29_)" />
      <linearGradient
   y2="20.0226"
   x2="16.727501"
   y1="3.2309999"
   x1="16.727501"
   gradientUnits="userSpaceOnUse"
   id="XMLID_30_">
        <stop
   id="stop1507"
   style="stop-color:#FFFFFF"
   offset="0" />
        <stop
   id="stop1508"
   style="stop-color:#00008D"
   offset="1" />
        <a:midPointStop
   id="midPointStop1509"
   style="stop-color:#FFFFFF"
   offset="0" />
        <a:midPointStop
   id="midPointStop1510"
   style="stop-color:#FFFFFF"
   offset="0.5" />
        <a:midPointStop
   id="midPointStop1511"
   style="stop-color:#00008D"
   offset="1" />
      </linearGradient>
      <path
   id="path1512"
   d="M 14.249,9.648 C 14.473,9.543 16.041,8.642 16.322,8.429 C 16.603,8.216 17.218,8.27 17.441,8.27 C 17.666,8.27 18.002,8.163 18.058,7.579 C 18.114,6.996 18.338,6.89 18.507,7.049 C 18.675,7.207 18.338,7.473 18.731,7.579 C 19.123,7.685 19.459,7.951 19.739,7.685 C 19.944,7.491 19.67,7.269 19.485,7.102 L 22.595,7.102 L 22.931,6.146 L 22.203,6.04 L 19.513,5.775 L 19.513,5.459 L 19.299,5.495 C 19.59,3.895 21.32,4.159 20.018,3.232 C 19.939,3.176 18.8,5.027 18.51,4.991 C 17.985,4.922 17.306,4.917 17.161,5.087 C 16.971,5.313 17.591,4.311 18.125,4.007 C 17.464,4.202 15.694,4.801 13.604,6.475 C 12.379,7.655 11.335,9.038 10.523,10.574 C 10.827,10.921 11.166,11.254 11.535,11.573 L 12.261,10.473 C 13.095,10.133 14.119,9.711 14.249,9.648 z "
   style="fill:url(#XMLID_30_)" />
    </g><polyline
   points="0,48 0,0 48,0 48,48 "
   style="fill:none;opacity:1"
   id="_x3C_Slice_x3E_" />
</svg>