<?xml version="1.0" encoding="UTF-8" standalone="no"?>
<!DOCTYPE svg PUBLIC "-//W3C//DTD SVG 1.0//EN"
"http://www.w3.org/TR/2001/REC-SVG-20010904/DTD/svg10.dtd">
<!-- Created with Inkscape (http://www.inkscape.org/) -->
<svg
   xmlns="http://www.w3.org/2000/svg"
   xmlns:xlink="http://www.w3.org/1999/xlink"
   xmlns:a="http://www.adobe.com"
   version="1.0"
   x="0.0000000"
   y="0.0000000"
   width="60.000000"
   height="60.000000"
   viewBox="0 0 256 256"
   id="svg1"
   xml:space="preserve">
  <defs
     id="defs502" />
  <g
     id="Layer_1">
    <rect
       width="256.00000"
       height="256.00000"
       x="0.0000000"
       y="0.0000000"
       style="fill:none;"
       id="_x3C_Slice_x3E_" />
    <linearGradient
       x1="27.595703"
       y1="128.00000"
       x2="228.59215"
       y2="128.00000"
       id="XMLID_20_"
       gradientUnits="userSpaceOnUse">
      <stop
         style="stop-color:#666699;stop-opacity:1.0000000;"
         offset="0.0000000"
         id="stop90" />
      <stop
         style="stop-color:#333366;stop-opacity:1.0000000;"
         offset="1.0000000"
         id="stop92" />
      <a:midPointStop
         offset="0"
         style="stop-color:#666699"
         id="midPointStop94" />
      <a:midPointStop
         offset="0.5"
         style="stop-color:#666699"
         id="midPointStop96" />
      <a:midPointStop
         offset="1"
         style="stop-color:#333366"
         id="midPointStop98" />
    </linearGradient>
    <path
       d="M 203.10742,60.404785 L 203.10742,60.404785 C 145.78125,62.774414 48.094727,128.58545 48.094727,128.58545 C 48.094727,128.58545 47.040527,133.91211 47.102539,134.09961 C 47.102539,135.19141 47.102539,142.70703 47.102539,142.94922 C 41.321777,145.81445 23.390625,154.70117 23.390625,154.70117 L 24.202637,164.44336 L 45.116211,195.67188 C 45.116211,195.67188 68.021484,182.37695 72.979004,179.50000 C 74.930664,182.24609 77.301758,185.58203 77.589355,185.98438 C 77.810059,186.47266 80.031738,191.37305 80.031738,191.37305 L 83.674805,189.72266 C 84.022461,189.56445 118.85303,173.72461 154.19141,153.10547 C 202.43457,124.95459 228.67285,101.53418 232.17773,83.492676 C 233.53516,76.505371 231.68848,70.309082 226.69727,65.068359 C 226.69727,65.068359 223.83984,63.006348 223.36719,63.318848 C 218.67383,61.003418 212.02148,60.036621 203.10742,60.404785 z "
       style="fill:url(#XMLID_20_);"
       id="path101" />
    <linearGradient
       x1="73.476074"
       y1="126.95312"
       x2="228.60254"
       y2="126.95312"
       id="XMLID_21_"
       gradientUnits="userSpaceOnUse">
      <stop
         style="stop-color:#6666cc;stop-opacity:1.0000000;"
         offset="0.0000000"
         id="stop105" />
      <stop
         style="stop-color:#6b6ad1;stop-opacity:1.0000000;"
         offset="0.14726670"
         id="stop107" />
      <stop
         style="stop-color:#7977df;stop-opacity:1.0000000;"
         offset="0.32124081"
         id="stop109" />
      <stop
         style="stop-color:#918cf5;stop-opacity:1.0000000;"
         offset="0.50804567"
         id="stop111" />
      <stop
         style="stop-color:#9b95ff;stop-opacity:1.0000000;"
         offset="0.57303399"
         id="stop113" />
      <stop
         style="stop-color:#3a3aa9;stop-opacity:1.0000000;"
         offset="1.0000000"
         id="stop115" />
      <a:midPointStop
         offset="0"
         style="stop-color:#6666CC"
         id="midPointStop117" />
      <a:midPointStop
         offset="0.672316"
         style="stop-color:#6666CC"
         id="midPointStop119" />
      <a:midPointStop
         offset="0.573034"
         style="stop-color:#9B95FF"
         id="midPointStop121" />
      <a:midPointStop
         offset="0.5"
         style="stop-color:#9B95FF"
         id="midPointStop123" />
      <a:midPointStop
         offset="1"
         style="stop-color:#3A3AA9"
         id="midPointStop125" />
    </linearGradient>
    <path
       d="M 82.023438,186.07812 C 82.023438,186.07812 259.74902,105.53174 223.80176,67.828613 L 73.476074,167.22656 L 82.023438,186.07812 z "
       style="fill:url(#XMLID_21_);"
       id="path128" />
    <path
       d="M 221.93262,69.064453 L 73.476074,167.22656 L 74.145508,168.70312 L 82.023438,179.75391 C 181.99707,138.79102 246.86621,82.062500 221.93262,69.064453 z "
       style="fill:#333366;"
       id="path130" />
    <linearGradient
       x1="158.72852"
       y1="141.93848"
       x2="129.72812"
       y2="85.437782"
       id="XMLID_22_"
       gradientUnits="userSpaceOnUse">
      <stop
         style="stop-color:#e6edff;stop-opacity:1.0000000;"
         offset="0.0000000"
         id="stop134" />
      <stop
         style="stop-color:#9999ff;stop-opacity:1.0000000;"
         offset="1.0000000"
         id="stop136" />
      <a:midPointStop
         offset="0"
         style="stop-color:#E6EDFF"
         id="midPointStop138" />
      <a:midPointStop
         offset="0.5"
         style="stop-color:#E6EDFF"
         id="midPointStop140" />
      <a:midPointStop
         offset="1"
         style="stop-color:#9999FF"
         id="midPointStop142" />
    </linearGradient>
    <path
       d="M 50.936035,132.95117 C 50.936035,132.95117 140.09082,67.012695 203.27246,64.401367 C 266.45313,61.790039 197.74219,130.33984 82.023438,177.75391 L 54.622559,139.31641 L 52.276367,137.03320 L 50.936035,132.95117 z "
       style="fill:url(#XMLID_22_);"
       id="path145" />
    <linearGradient
       x1="77.388672"
       y1="167.13672"
       x2="60.903042"
       y2="135.01820"
       id="XMLID_23_"
       gradientUnits="userSpaceOnUse">
      <stop
         style="stop-color:#9999ff;stop-opacity:1.0000000;"
         offset="0.0000000"
         id="stop149" />
      <stop
         style="stop-color:#6666cc;stop-opacity:1.0000000;"
         offset="1.0000000"
         id="stop151" />
      <a:midPointStop
         offset="0"
         style="stop-color:#9999FF"
         id="midPointStop153" />
      <a:midPointStop
         offset="0.5"
         style="stop-color:#9999FF"
         id="midPointStop155" />
      <a:midPointStop
         offset="1"
         style="stop-color:#6666CC"
         id="midPointStop157" />
    </linearGradient>
    <path
       d="M 54.369141,138.62305 C 54.200195,138.68750 54.048340,138.77344 53.885254,138.84766 L 74.634766,167.95508 C 74.956543,167.78711 75.280273,167.62500 75.584473,167.42578 C 81.762207,163.36328 81.216309,153.94727 75.243652,146.55273 C 69.662109,139.64453 60.658203,136.19531 54.369141,138.62305 z "
       style="fill:url(#XMLID_23_);"
       id="path160" />
    <linearGradient
       x1="75.999512"
       y1="165.24609"
       x2="61.703682"
       y2="137.39392"
       id="XMLID_24_"
       gradientUnits="userSpaceOnUse">
      <stop
         style="stop-color:#ffffff;stop-opacity:1.0000000;"
         offset="0.0000000"
         id="stop164" />
      <stop
         style="stop-color:#fafaff;stop-opacity:1.0000000;"
         offset="0.17666019"
         id="stop166" />
      <stop
         style="stop-color:#ececff;stop-opacity:1.0000000;"
         offset="0.38538831"
         id="stop168" />
      <stop
         style="stop-color:#d4d4ff;stop-opacity:1.0000000;"
         offset="0.61038750"
         id="stop170" />
      <stop
         style="stop-color:#b3b3ff;stop-opacity:1.0000000;"
         offset="0.84519422"
         id="stop172" />
      <stop
         style="stop-color:#9999ff;stop-opacity:1.0000000;"
         offset="1.0000000"
         id="stop174" />
      <a:midPointStop
         offset="0"
         style="stop-color:#FFFFFF"
         id="midPointStop176" />
      <a:midPointStop
         offset="0.672316"
         style="stop-color:#FFFFFF"
         id="midPointStop178" />
      <a:midPointStop
         offset="1"
         style="stop-color:#9999FF"
         id="midPointStop180" />
    </linearGradient>
    <path
       d="M 56.038086,140.51953 C 55.891602,140.57617 55.759766,140.65039 55.618652,140.71484 L 73.611328,165.95508 C 73.890137,165.81055 74.170898,165.66992 74.434570,165.49609 C 79.791504,161.97461 79.318359,153.80859 74.139160,147.39648 C 69.299316,141.40625 61.491699,138.41406 56.038086,140.51953 z "
       style="fill:url(#XMLID_24_);"
       id="path183" />
    <linearGradient
       x1="51.102539"
       y1="158.76562"
       x2="81.852539"
       y2="158.76562"
       id="XMLID_25_"
       gradientUnits="userSpaceOnUse">
      <stop
         style="stop-color:#9b95ff;stop-opacity:1.0000000;"
         offset="0.0000000"
         id="stop187" />
      <stop
         style="stop-color:#5454a2;stop-opacity:1.0000000;"
         offset="1.0000000"
         id="stop189" />
      <a:midPointStop
         offset="0"
         style="stop-color:#9B95FF"
         id="midPointStop191" />
      <a:midPointStop
         offset="0.5"
         style="stop-color:#9B95FF"
         id="midPointStop193" />
      <a:midPointStop
         offset="1"
         style="stop-color:#5454A2"
         id="midPointStop195" />
    </linearGradient>
    <path
       d="M 51.102539,141.82812 L 51.102539,132.45312 C 51.102539,132.45312 74.352539,156.07812 81.852539,177.57812 L 81.852539,185.07812 L 51.102539,141.82812 z "
       style="fill:url(#XMLID_25_);"
       id="path198" />
    <linearGradient
       x1="51.102539"
       y1="155.19824"
       x2="81.852539"
       y2="155.19824"
       id="XMLID_26_"
       gradientUnits="userSpaceOnUse">
      <stop
         style="stop-color:#ffffff;stop-opacity:1.0000000;"
         offset="0.0000000"
         id="stop202" />
      <stop
         style="stop-color:#5454a2;stop-opacity:1.0000000;"
         offset="1.0000000"
         id="stop204" />
      <a:midPointStop
         offset="0"
         style="stop-color:#FFFFFF"
         id="midPointStop206" />
      <a:midPointStop
         offset="0.5"
         style="stop-color:#FFFFFF"
         id="midPointStop208" />
      <a:midPointStop
         offset="1"
         style="stop-color:#5454A2"
         id="midPointStop210" />
    </linearGradient>
    <path
       d="M 52.102539,135.45312 C 52.102539,135.45312 73.490234,157.19336 81.852539,177.94336 L 81.852539,177.57812 C 74.352539,156.07812 51.102539,132.45312 51.102539,132.45312 L 51.102539,141.82812 L 52.102539,143.23438 L 52.102539,135.45312 z "
       style="fill:url(#XMLID_26_);"
       id="path213" />
    <linearGradient
       x1="33.353027"
       y1="177.32812"
       x2="40.603031"
       y2="170.07812"
       id="XMLID_27_"
       gradientUnits="userSpaceOnUse">
      <stop
         style="stop-color:#7d7d99;stop-opacity:1.0000000;"
         offset="0.0000000"
         id="stop217" />
      <stop
         style="stop-color:#494949;stop-opacity:1.0000000;"
         offset="1.0000000"
         id="stop219" />
      <a:midPointStop
         offset="0"
         style="stop-color:#7D7D99"
         id="midPointStop221" />
      <a:midPointStop
         offset="0.5"
         style="stop-color:#7D7D99"
         id="midPointStop223" />
      <a:midPointStop
         offset="1"
         style="stop-color:#494949"
         id="midPointStop225" />
    </linearGradient>
    <polygon
       points="27.602539,157.07812 46.352539,185.32812 46.352539,190.32812 28.102539,163.07812 27.602539,157.07812 "
       style="fill:url(#XMLID_27_);"
       id="polygon228" />
    <linearGradient
       x1="46.352539"
       y1="179.57812"
       x2="74.602539"
       y2="179.57812"
       id="XMLID_28_"
       gradientUnits="userSpaceOnUse">
      <stop
         style="stop-color:#ffffff;stop-opacity:1.0000000;"
         offset="0.0000000"
         id="stop232" />
      <stop
         style="stop-color:#494949;stop-opacity:1.0000000;"
         offset="1.0000000"
         id="stop234" />
      <a:midPointStop
         offset="0"
         style="stop-color:#FFFFFF"
         id="midPointStop236" />
      <a:midPointStop
         offset="0.5"
         style="stop-color:#FFFFFF"
         id="midPointStop238" />
      <a:midPointStop
         offset="1"
         style="stop-color:#494949"
         id="midPointStop240" />
    </linearGradient>
    <polygon
       points="74.602539,168.82812 46.352539,185.32812 46.352539,190.32812 74.352539,174.07812 74.602539,168.82812 "
       style="fill:url(#XMLID_28_);"
       id="polygon243" />
    <radialGradient
       cx="31.602051"
       cy="159.82812"
       r="56.500435"
       fx="31.602051"
       fy="159.82812"
       id="XMLID_29_"
       gradientUnits="userSpaceOnUse">
      <stop
         style="stop-color:#585868;stop-opacity:1.0000000;"
         offset="0.0000000"
         id="stop247" />
      <stop
         style="stop-color:#616171;stop-opacity:1.0000000;"
         offset="0.14989950"
         id="stop249" />
      <stop
         style="stop-color:#7a7a89;stop-opacity:1.0000000;"
         offset="0.39554629"
         id="stop251" />
      <stop
         style="stop-color:#a1a1b0;stop-opacity:1.0000000;"
         offset="0.70432287"
         id="stop253" />
      <stop
         style="stop-color:#cecedb;stop-opacity:1.0000000;"
         offset="1.0000000"
         id="stop255" />
      <a:midPointStop
         offset="0"
         style="stop-color:#585868"
         id="midPointStop257" />
      <a:midPointStop
         offset="0.59887"
         style="stop-color:#585868"
         id="midPointStop259" />
      <a:midPointStop
         offset="1"
         style="stop-color:#CECEDB"
         id="midPointStop261" />
    </radialGradient>
    <polygon
       points="56.352539,142.82812 74.602539,168.82812 46.352539,185.32812 27.602539,157.07812 56.352539,142.82812 "
       style="fill:url(#XMLID_29_);"
       id="polygon264" />
    <radialGradient
       cx="31.603516"
       cy="159.82812"
       r="56.500389"
       fx="31.603516"
       fy="159.82812"
       id="XMLID_30_"
       gradientUnits="userSpaceOnUse">
      <stop
         style="stop-color:#ffffff;stop-opacity:1.0000000;"
         offset="0.0000000"
         id="stop268" />
      <stop
         style="stop-color:#f6f6f8;stop-opacity:1.0000000;"
         offset="0.28690329"
         id="stop270" />
      <stop
         style="stop-color:#dddde6;stop-opacity:1.0000000;"
         offset="0.75558323"
         id="stop272" />
      <stop
         style="stop-color:#cecedb;stop-opacity:1.0000000;"
         offset="1.0000000"
         id="stop274" />
      <a:midPointStop
         offset="0"
         style="stop-color:#FFFFFF"
         id="midPointStop276" />
      <a:midPointStop
         offset="0.59887"
         style="stop-color:#FFFFFF"
         id="midPointStop278" />
      <a:midPointStop
         offset="1"
         style="stop-color:#CECEDB"
         id="midPointStop280" />
    </radialGradient>
    <path
       d="M 28.333008,157.27539 C 28.930664,158.17578 46.008789,183.90625 46.507812,184.65820 C 47.286621,184.20312 72.986328,169.19336 73.880859,168.67188 C 73.286133,167.82227 56.661621,144.13867 56.189941,143.46680 C 55.454590,143.83203 29.300293,156.79492 28.333008,157.27539 z "
       style="fill:url(#XMLID_30_);"
       id="path283" />
    <linearGradient
       x1="128.17041"
       y1="119.36182"
       x2="131.67033"
       y2="134.36151"
       id="XMLID_31_"
       gradientUnits="userSpaceOnUse">
      <stop
         style="stop-color:#6666cc;stop-opacity:1.0000000;"
         offset="0.0000000"
         id="stop287" />
      <stop
         style="stop-color:#6b6bd1;stop-opacity:1.0000000;"
         offset="0.26271439"
         id="stop289" />
      <stop
         style="stop-color:#7979df;stop-opacity:1.0000000;"
         offset="0.57302338"
         id="stop291" />
      <stop
         style="stop-color:#9191f7;stop-opacity:1.0000000;"
         offset="0.90630078"
         id="stop293" />
      <stop
         style="stop-color:#9999ff;stop-opacity:1.0000000;"
         offset="1.0000000"
         id="stop295" />
      <a:midPointStop
         offset="0"
         style="stop-color:#6666CC"
         id="midPointStop297" />
      <a:midPointStop
         offset="0.672316"
         style="stop-color:#6666CC"
         id="midPointStop299" />
      <a:midPointStop
         offset="1"
         style="stop-color:#9999FF"
         id="midPointStop301" />
    </linearGradient>
    <path
       d="M 74.139160,147.39648 C 74.139160,147.39648 137.60254,115.82861 187.10254,112.32861 C 187.10254,112.32861 90.102539,136.32812 75.602539,148.82812"
       style="fill:url(#XMLID_31_);"
       id="path304" />
    <linearGradient
       x1="161.76660"
       y1="91.925293"
       x2="165.51250"
       y2="107.97918"
       id="XMLID_32_"
       gradientUnits="userSpaceOnUse">
      <stop
         style="stop-color:#6666cc;stop-opacity:1.0000000;"
         offset="0.0000000"
         id="stop308" />
      <stop
         style="stop-color:#6161c9;stop-opacity:1.0000000;"
         offset="0.17666019"
         id="stop310" />
      <stop
         style="stop-color:#5353c0;stop-opacity:1.0000000;"
         offset="0.38538831"
         id="stop312" />
      <stop
         style="stop-color:#3b3bb1;stop-opacity:1.0000000;"
         offset="0.61038750"
         id="stop314" />
      <stop
         style="stop-color:#1a1a9d;stop-opacity:1.0000000;"
         offset="0.84519422"
         id="stop316" />
      <stop
         style="stop-color:#00008d;stop-opacity:1.0000000;"
         offset="1.0000000"
         id="stop318" />
      <a:midPointStop
         offset="0"
         style="stop-color:#6666CC"
         id="midPointStop320" />
      <a:midPointStop
         offset="0.672316"
         style="stop-color:#6666CC"
         id="midPointStop322" />
      <a:midPointStop
         offset="1"
         style="stop-color:#00008D"
         id="midPointStop324" />
    </linearGradient>
    <path
       d="M 156.86035,104.10303 C 157.87500,107.14453 161.41992,109.32861 165.04980,109.32861 C 168.86426,109.32861 172.10254,106.92773 172.10254,103.54297 C 172.10254,99.578125 167.81445,96.196289 162.83789,96.622558 C 158.17383,97.022461 155.69141,100.59424 156.86035,104.10303 z "
       style="fill:url(#XMLID_32_);"
       id="path327" />
    <linearGradient
       x1="162.26367"
       y1="95.055176"
       x2="165.28604"
       y2="108.00822"
       id="XMLID_33_"
       gradientUnits="userSpaceOnUse">
      <stop
         style="stop-color:#6666cc;stop-opacity:1.0000000;"
         offset="0.0000000"
         id="stop331" />
      <stop
         style="stop-color:#6b6bd1;stop-opacity:1.0000000;"
         offset="0.26271439"
         id="stop333" />
      <stop
         style="stop-color:#7979df;stop-opacity:1.0000000;"
         offset="0.57302338"
         id="stop335" />
      <stop
         style="stop-color:#9191f7;stop-opacity:1.0000000;"
         offset="0.90630078"
         id="stop337" />
      <stop
         style="stop-color:#9999ff;stop-opacity:1.0000000;"
         offset="1.0000000"
         id="stop339" />
      <a:midPointStop
         offset="0"
         style="stop-color:#6666CC"
         id="midPointStop341" />
      <a:midPointStop
         offset="0.672316"
         style="stop-color:#6666CC"
         id="midPointStop343" />
      <a:midPointStop
         offset="1"
         style="stop-color:#9999FF"
         id="midPointStop345" />
    </linearGradient>
    <path
       d="M 158.30469,104.88184 C 159.12402,107.33545 161.98340,109.09766 164.91211,109.09766 C 167.99023,109.09766 170.60254,107.16064 170.60254,104.42969 C 170.60254,101.23096 167.14258,98.502441 163.12793,98.846191 C 159.36426,99.168945 157.36133,102.05078 158.30469,104.88184 z "
       style="fill:url(#XMLID_33_);"
       id="path348" />
    <linearGradient
       x1="163.10742"
       y1="97.696289"
       x2="165.33313"
       y2="107.23508"
       id="XMLID_34_"
       gradientUnits="userSpaceOnUse">
      <stop
         style="stop-color:#6666cc;stop-opacity:1.0000000;"
         offset="0.0000000"
         id="stop352" />
      <stop
         style="stop-color:#6b6bce;stop-opacity:1.0000000;"
         offset="0.14009750"
         id="stop354" />
      <stop
         style="stop-color:#7979d2;stop-opacity:1.0000000;"
         offset="0.30563420"
         id="stop356" />
      <stop
         style="stop-color:#9191da;stop-opacity:1.0000000;"
         offset="0.48412949"
         id="stop358" />
      <stop
         style="stop-color:#b2b2e5;stop-opacity:1.0000000;"
         offset="0.67173737"
         id="stop360" />
      <stop
         style="stop-color:#ddddf4;stop-opacity:1.0000000;"
         offset="0.86443168"
         id="stop362" />
      <stop
         style="stop-color:#ffffff;stop-opacity:1.0000000;"
         offset="1.0000000"
         id="stop364" />
      <a:midPointStop
         offset="0"
         style="stop-color:#6666CC"
         id="midPointStop366" />
      <a:midPointStop
         offset="0.672316"
         style="stop-color:#6666CC"
         id="midPointStop368" />
      <a:midPointStop
         offset="1"
         style="stop-color:#FFFFFF"
         id="midPointStop370" />
    </linearGradient>
    <path
       d="M 164.82031,106.09766 C 162.35938,106.09766 159.95605,104.33545 159.26758,101.88184 C 159.23145,101.75244 159.20605,101.62305 159.17969,101.49365 C 159.02246,102.25342 159.04004,103.06885 159.26758,103.88184 C 159.95605,106.33545 162.35938,108.09766 164.82031,108.09766 C 167.40723,108.09766 169.60254,106.16064 169.60254,103.42969 C 169.60254,103.08789 169.56250,102.75342 169.50000,102.42578 C 169.03906,104.61963 167.08008,106.09766 164.82031,106.09766 z "
       style="fill:url(#XMLID_34_);"
       id="path373" />
    <linearGradient
       x1="162.14551"
       y1="102.57861"
       x2="166.55957"
       y2="102.57861"
       id="XMLID_35_"
       gradientUnits="userSpaceOnUse">
      <stop
         style="stop-color:#6666cc;stop-opacity:1.0000000;"
         offset="0.0000000"
         id="stop377" />
      <stop
         style="stop-color:#6b6bce;stop-opacity:1.0000000;"
         offset="0.14009750"
         id="stop379" />
      <stop
         style="stop-color:#7979d2;stop-opacity:1.0000000;"
         offset="0.30563420"
         id="stop381" />
      <stop
         style="stop-color:#9191da;stop-opacity:1.0000000;"
         offset="0.48412949"
         id="stop383" />
      <stop
         style="stop-color:#b2b2e5;stop-opacity:1.0000000;"
         offset="0.67173737"
         id="stop385" />
      <stop
         style="stop-color:#ddddf4;stop-opacity:1.0000000;"
         offset="0.86443168"
         id="stop387" />
      <stop
         style="stop-color:#ffffff;stop-opacity:1.0000000;"
         offset="1.0000000"
         id="stop389" />
      <a:midPointStop
         offset="0"
         style="stop-color:#6666CC"
         id="midPointStop391" />
      <a:midPointStop
         offset="0.672316"
         style="stop-color:#6666CC"
         id="midPointStop393" />
      <a:midPointStop
         offset="1"
         style="stop-color:#FFFFFF"
         id="midPointStop395" />
    </linearGradient>
    <circle
       cx="164.35254"
       cy="102.57861"
       r="2.2501669"
       style="fill:url(#XMLID_35_);"
       id="circle398" />
    <g
       id="g400">
      <path
         d="M 85.494141,120.99756 C 85.106445,120.37939 84.766601,119.87842 84.472168,119.44873 L 85.708984,118.69189 L 86.207031,119.32861 L 86.235840,119.31104 C 86.219238,118.87647 86.379394,118.12939 87.146973,117.65869 C 88.083984,117.08643 89.226074,117.31396 90.185058,118.74854 L 92.170410,121.71631 L 90.696289,122.61865 L 88.860351,119.81494 C 88.443359,119.17920 87.953613,118.87451 87.434570,119.19189 C 87.037109,119.43506 86.988281,119.87158 87.066406,120.21924 C 87.092773,120.34326 87.174804,120.49268 87.266113,120.63428 L 89.144531,123.56885 L 87.669922,124.47119 L 85.494141,120.99756 z "
         style="fill:#3a3aa9;"
         id="path402" />
      <path
         d="M 96.674316,116.66650 C 97.140137,117.30908 97.541016,117.82373 97.864258,118.23096 L 96.583984,119.01416 L 96.013672,118.35010 L 95.984375,118.36768 C 96.019043,118.78564 95.936523,119.57275 95.082519,120.09619 C 94.111816,120.69092 92.974609,120.47412 91.922363,118.92627 L 89.982910,116.07568 L 91.407226,115.20361 L 93.208496,117.79639 C 93.705566,118.51318 94.229980,118.81396 94.749512,118.49561 C 95.153808,118.24854 95.187012,117.80713 95.101562,117.51318 C 95.076172,117.39990 95.016113,117.27686 94.924316,117.14697 L 92.896972,114.29199 L 94.321777,113.41943 L 96.674316,116.66650 z "
         style="fill:#3a3aa9;"
         id="path404" />
      <path
         d="M 96.522949,112.07178 L 98.784180,113.86914 C 99.200195,114.19971 99.565918,114.53516 99.934082,114.87305 L 99.963379,114.85547 C 99.740723,114.41406 99.541504,114.00488 99.335449,113.53027 L 98.275879,110.99951 L 99.775391,110.08154 L 101.70459,115.88037 L 100.23096,116.78174 L 94.977539,113.01855 L 96.522949,112.07178 z "
         style="fill:#3a3aa9;"
         id="path406" />
      <path
         d="M 106.23584,113.26953 C 104.84717,114.11914 103.04688,113.83984 101.83691,112.29980 C 100.65381,110.79248 100.88477,109.25098 102.36377,108.34521 C 103.75928,107.49121 105.48730,107.86133 106.64648,109.24170 C 108.07129,110.93994 107.50684,112.49121 106.24512,113.26367 L 106.23584,113.26953 z M 105.39648,112.18311 C 105.97461,111.82959 105.86279,111.04199 105.17188,110.20117 C 104.61182,109.52148 103.77979,108.99170 103.12842,109.39014 C 102.44873,109.80518 102.74365,110.66455 103.30127,111.36035 C 103.94238,112.15967 104.77051,112.56641 105.38721,112.18896 L 105.39648,112.18311 z "
         style="fill:#3a3aa9;"
         id="path408" />
      <path
         d="M 103.98340,104.50391 L 105.38574,103.64551 L 111.03467,110.16895 L 109.56201,111.07129 L 103.98340,104.50391 z "
         style="fill:#3a3aa9;"
         id="path410" />
      <path
         d="M 115.14600,105.92432 C 115.54102,106.35254 115.95020,106.76172 116.24463,106.98096 L 114.91553,107.79395 L 114.40674,107.38428 L 114.37744,107.40186 C 114.40234,107.95996 114.09814,108.45703 113.53467,108.80127 C 112.57422,109.39014 111.39648,109.05029 110.74951,108.31104 C 109.70996,107.12451 110.30566,105.90967 111.94531,104.90576 L 111.89600,104.85156 C 111.68262,104.61621 111.24756,104.36377 110.54004,104.79736 C 110.06885,105.08545 109.70557,105.54541 109.55664,105.90332 L 108.51758,105.18652 C 108.68506,104.82031 109.11670,104.21240 109.94971,103.70264 C 111.47607,102.76855 112.73975,103.32520 113.69531,104.35791 L 115.14600,105.92432 z M 112.78076,105.74365 C 112.01660,106.21094 111.58252,106.74854 112.06396,107.28857 C 112.39160,107.65430 112.80127,107.68018 113.12842,107.47900 C 113.48437,107.26172 113.58057,106.83789 113.41504,106.49072 C 113.36621,106.40527 113.30029,106.31592 113.22363,106.23193 L 112.78076,105.74365 z "
         style="fill:#3a3aa9;"
         id="path412" />
    </g>
    <linearGradient
       x1="45.227539"
       y1="158.45312"
       x2="49.727539"
       y2="153.95312"
       id="XMLID_36_"
       gradientUnits="userSpaceOnUse">
      <stop
         style="stop-color:#ffffff;stop-opacity:1.0000000;"
         offset="0.0000000"
         id="stop417" />
      <stop
         style="stop-color:#fafafa;stop-opacity:1.0000000;"
         offset="0.10456490"
         id="stop419" />
      <stop
         style="stop-color:#ececec;stop-opacity:1.0000000;"
         offset="0.22824121"
         id="stop421" />
      <stop
         style="stop-color:#d4d4d4;stop-opacity:1.0000000;"
         offset="0.36159411"
         id="stop423" />
      <stop
         style="stop-color:#b2b2b2;stop-opacity:1.0000000;"
         offset="0.50178307"
         id="stop425" />
      <stop
         style="stop-color:#888888;stop-opacity:1.0000000;"
         offset="0.64739132"
         id="stop427" />
      <stop
         style="stop-color:#535353;stop-opacity:1.0000000;"
         offset="0.79755312"
         id="stop429" />
      <stop
         style="stop-color:#161616;stop-opacity:1.0000000;"
         offset="0.94865412"
         id="stop431" />
      <stop
         style="stop-color:#000000;stop-opacity:1.0000000;"
         offset="1.0000000"
         id="stop433" />
      <a:midPointStop
         offset="0"
         style="stop-color:#FFFFFF"
         id="midPointStop435" />
      <a:midPointStop
         offset="0.672316"
         style="stop-color:#FFFFFF"
         id="midPointStop437" />
      <a:midPointStop
         offset="1"
         style="stop-color:#000000"
         id="midPointStop439" />
    </linearGradient>
    <polygon
       points="48.102539,152.32812 51.602539,157.32812 47.102539,160.32812 43.602539,154.82812 48.102539,152.32812 "
       style="fill:url(#XMLID_36_);"
       id="polygon442" />
    <linearGradient
       x1="54.228027"
       y1="170.45312"
       x2="58.728027"
       y2="165.95312"
       id="XMLID_37_"
       gradientUnits="userSpaceOnUse">
      <stop
         style="stop-color:#ffffff;stop-opacity:1.0000000;"
         offset="0.0000000"
         id="stop446" />
      <stop
         style="stop-color:#fafafa;stop-opacity:1.0000000;"
         offset="0.10456490"
         id="stop448" />
      <stop
         style="stop-color:#ececec;stop-opacity:1.0000000;"
         offset="0.22824121"
         id="stop450" />
      <stop
         style="stop-color:#d4d4d4;stop-opacity:1.0000000;"
         offset="0.36159411"
         id="stop452" />
      <stop
         style="stop-color:#b2b2b2;stop-opacity:1.0000000;"
         offset="0.50178307"
         id="stop454" />
      <stop
         style="stop-color:#888888;stop-opacity:1.0000000;"
         offset="0.64739132"
         id="stop456" />
      <stop
         style="stop-color:#535353;stop-opacity:1.0000000;"
         offset="0.79755312"
         id="stop458" />
      <stop
         style="stop-color:#161616;stop-opacity:1.0000000;"
         offset="0.94865412"
         id="stop460" />
      <stop
         style="stop-color:#000000;stop-opacity:1.0000000;"
         offset="1.0000000"
         id="stop462" />
      <a:midPointStop
         offset="0"
         style="stop-color:#FFFFFF"
         id="midPointStop464" />
      <a:midPointStop
         offset="0.672316"
         style="stop-color:#FFFFFF"
         id="midPointStop466" />
      <a:midPointStop
         offset="1"
         style="stop-color:#000000"
         id="midPointStop468" />
    </linearGradient>
    <polygon
       points="57.102539,164.32812 60.602539,169.32812 56.102539,172.32812 52.602539,166.82812 57.102539,164.32812 "
       style="fill:url(#XMLID_37_);"
       id="polygon471" />
    <linearGradient
       x1="128.06689"
       y1="88.435547"
       x2="137.99364"
       y2="106.19918"
       id="XMLID_38_"
       gradientUnits="userSpaceOnUse">
      <stop
         style="stop-color:#ffffff;stop-opacity:1.0000000;"
         offset="0.0000000"
         id="stop475" />
      <stop
         style="stop-color:#f6f6f6;stop-opacity:1.0000000;"
         offset="0.084900796"
         id="stop477" />
      <stop
         style="stop-color:#dddddd;stop-opacity:1.0000000;"
         offset="0.22415259"
         id="stop479" />
      <stop
         style="stop-color:#b5b5b5;stop-opacity:1.0000000;"
         offset="0.40051159"
         id="stop481" />
      <stop
         style="stop-color:#7d7d7d;stop-opacity:1.0000000;"
         offset="0.60701013"
         id="stop483" />
      <stop
         style="stop-color:#373737;stop-opacity:1.0000000;"
         offset="0.83606672"
         id="stop485" />
      <stop
         style="stop-color:#000000;stop-opacity:1.0000000;"
         offset="1.0000000"
         id="stop487" />
      <a:midPointStop
         offset="0"
         style="stop-color:#FFFFFF"
         id="midPointStop489" />
      <a:midPointStop
         offset="0.59887"
         style="stop-color:#FFFFFF"
         id="midPointStop491" />
      <a:midPointStop
         offset="1"
         style="stop-color:#000000"
         id="midPointStop493" />
    </linearGradient>
    <path
       d="M 61.102539,136.82812 C 61.102539,136.82812 92.343750,92.213379 208.60254,64.328613 C 208.60254,64.328613 129.21875,93.227051 125.12207,104.88818 C 121.02441,116.54932 76.467285,135.30859 61.102539,136.82812 z "
       style="fill:url(#XMLID_38_);"
       id="path496" />
    <polyline
       id="_x3C_Slice_x3E__8_"
       fill="none"
       points="0,256 0,0 256,0 256,256 "
       style="fill:none;" />
  </g>
</svg>
